<svg xmlns="http://www.w3.org/2000/svg" xmlns:xlink="http://www.w3.org/1999/xlink" version="1.1" class="marks" width="494" height="628" viewBox="0 0 494 628"><rect width="494" height="628" fill="white"/><g fill="none" stroke-miterlimit="10" transform="translate(74,6)"><g class="mark-group role-frame root" role="graphics-object" aria-roledescription="group mark container"><g transform="translate(0,0)"><path class="background" aria-hidden="true" d="M0,0h0v0h0Z"/><g><g class="mark-group role-row-header row_header" role="graphics-object" aria-roledescription="group mark container"><g transform="translate(-1,0)"><path class="background" aria-hidden="true" d="M0,0h0v180h0Z"/><g><g class="mark-group role-axis" role="graphics-symbol" aria-roledescription="axis" aria-label="Y-axis titled 'Density' for a linear scale with values from 0.000 to 0.018"><g transform="translate(0.5,0.5)"><path class="background" aria-hidden="true" d="M0,0h0v0h0Z" pointer-events="none"/><g><g class="mark-rule role-axis-tick" pointer-events="none"><line transform="translate(0,180)" x2="-5" y2="0" stroke="#888" stroke-width="1" opacity="1"/><line transform="translate(0,130)" x2="-5" y2="0" stroke="#888" stroke-width="1" opacity="1"/><line transform="translate(0,80)" x2="-5" y2="0" stroke="#888" stroke-width="1" opacity="1"/><line transform="translate(0,30)" x2="-5" y2="0" stroke="#888" stroke-width="1" opacity="1"/></g><g class="mark-text role-axis-label" pointer-events="none"><text text-anchor="end" transform="translate(-7,183)" font-family="sans-serif" font-size="10px" fill="#000" opacity="1">0.000</text><text text-anchor="end" transform="translate(-7,133)" font-family="sans-serif" font-size="10px" fill="#000" opacity="1">0.005</text><text text-anchor="end" transform="translate(-7,83)" font-family="sans-serif" font-size="10px" fill="#000" opacity="1">0.010</text><text text-anchor="end" transform="translate(-7,32.99999999999999)" font-family="sans-serif" font-size="10px" fill="#000" opacity="1">0.015</text></g><g class="mark-rule role-axis-domain" pointer-events="none"><line transform="translate(0,180)" x2="0" y2="-180" stroke="#888" stroke-width="1" opacity="1"/></g><g class="mark-text role-axis-title" pointer-events="none"><text text-anchor="middle" transform="translate(-36.0244140625,90) rotate(-90) translate(0,-2)" font-family="sans-serif" font-size="11px" font-weight="bold" fill="#000" opacity="1">Density</text></g></g><path class="foreground" aria-hidden="true" d="" pointer-events="none" display="none"/></g></g><g class="mark-group role-title"><g transform="translate(-67.0244140625,90)"><path class="background" aria-hidden="true" d="M0,0h0v0h0Z" pointer-events="none"/><g><g class="mark-text role-title-text" role="graphics-symbol" aria-roledescription="title" aria-label="Title text 'single'" pointer-events="none"><text text-anchor="middle" transform="translate(0,0) rotate(-90) translate(0,8)" font-family="sans-serif" font-size="10px" fill="#000" opacity="1">single</text></g></g><path class="foreground" aria-hidden="true" d="" pointer-events="none" display="none"/></g></g></g><path class="foreground" aria-hidden="true" d="" display="none"/></g><g transform="translate(-1,202)"><path class="background" aria-hidden="true" d="M0,0h0v180h0Z"/><g><g class="mark-group role-axis" role="graphics-symbol" aria-roledescription="axis" aria-label="Y-axis titled 'Density' for a linear scale with values from 0.000 to 0.018"><g transform="translate(0.5,0.5)"><path class="background" aria-hidden="true" d="M0,0h0v0h0Z" pointer-events="none"/><g><g class="mark-rule role-axis-tick" pointer-events="none"><line transform="translate(0,180)" x2="-5" y2="0" stroke="#888" stroke-width="1" opacity="1"/><line transform="translate(0,130)" x2="-5" y2="0" stroke="#888" stroke-width="1" opacity="1"/><line transform="translate(0,80)" x2="-5" y2="0" stroke="#888" stroke-width="1" opacity="1"/><line transform="translate(0,30)" x2="-5" y2="0" stroke="#888" stroke-width="1" opacity="1"/></g><g class="mark-text role-axis-label" pointer-events="none"><text text-anchor="end" transform="translate(-7,183)" font-family="sans-serif" font-size="10px" fill="#000" opacity="1">0.000</text><text text-anchor="end" transform="translate(-7,133)" font-family="sans-serif" font-size="10px" fill="#000" opacity="1">0.005</text><text text-anchor="end" transform="translate(-7,83)" font-family="sans-serif" font-size="10px" fill="#000" opacity="1">0.010</text><text text-anchor="end" transform="translate(-7,32.99999999999999)" font-family="sans-serif" font-size="10px" fill="#000" opacity="1">0.015</text></g><g class="mark-rule role-axis-domain" pointer-events="none"><line transform="translate(0,180)" x2="0" y2="-180" stroke="#888" stroke-width="1" opacity="1"/></g><g class="mark-text role-axis-title" pointer-events="none"><text text-anchor="middle" transform="translate(-36.0244140625,90) rotate(-90) translate(0,-2)" font-family="sans-serif" font-size="11px" font-weight="bold" fill="#000" opacity="1">Density</text></g></g><path class="foreground" aria-hidden="true" d="" pointer-events="none" display="none"/></g></g><g class="mark-group role-title"><g transform="translate(-67.0244140625,90)"><path class="background" aria-hidden="true" d="M0,0h0v0h0Z" pointer-events="none"/><g><g class="mark-text role-title-text" role="graphics-symbol" aria-roledescription="title" aria-label="Title text 'couple'" pointer-events="none"><text text-anchor="middle" transform="translate(0,0) rotate(-90) translate(0,8)" font-family="sans-serif" font-size="10px" fill="#000" opacity="1">couple</text></g></g><path class="foreground" aria-hidden="true" d="" pointer-events="none" display="none"/></g></g></g><path class="foreground" aria-hidden="true" d="" display="none"/></g><g transform="translate(-1,404)"><path class="background" aria-hidden="true" d="M0,0h0v180h0Z"/><g><g class="mark-group role-axis" role="graphics-symbol" aria-roledescription="axis" aria-label="Y-axis titled 'Density' for a linear scale with values from 0.000 to 0.018"><g transform="translate(0.5,0.5)"><path class="background" aria-hidden="true" d="M0,0h0v0h0Z" pointer-events="none"/><g><g class="mark-rule role-axis-tick" pointer-events="none"><line transform="translate(0,180)" x2="-5" y2="0" stroke="#888" stroke-width="1" opacity="1"/><line transform="translate(0,130)" x2="-5" y2="0" stroke="#888" stroke-width="1" opacity="1"/><line transform="translate(0,80)" x2="-5" y2="0" stroke="#888" stroke-width="1" opacity="1"/><line transform="translate(0,30)" x2="-5" y2="0" stroke="#888" stroke-width="1" opacity="1"/></g><g class="mark-text role-axis-label" pointer-events="none"><text text-anchor="end" transform="translate(-7,183)" font-family="sans-serif" font-size="10px" fill="#000" opacity="1">0.000</text><text text-anchor="end" transform="translate(-7,133)" font-family="sans-serif" font-size="10px" fill="#000" opacity="1">0.005</text><text text-anchor="end" transform="translate(-7,83)" font-family="sans-serif" font-size="10px" fill="#000" opacity="1">0.010</text><text text-anchor="end" transform="translate(-7,32.99999999999999)" font-family="sans-serif" font-size="10px" fill="#000" opacity="1">0.015</text></g><g class="mark-rule role-axis-domain" pointer-events="none"><line transform="translate(0,180)" x2="0" y2="-180" stroke="#888" stroke-width="1" opacity="1"/></g><g class="mark-text role-axis-title" pointer-events="none"><text text-anchor="middle" transform="translate(-36.0244140625,90) rotate(-90) translate(0,-2)" font-family="sans-serif" font-size="11px" font-weight="bold" fill="#000" opacity="1">Density</text></g></g><path class="foreground" aria-hidden="true" d="" pointer-events="none" display="none"/></g></g><g class="mark-group role-title"><g transform="translate(-67.0244140625,90)"><path class="background" aria-hidden="true" d="M0,0h0v0h0Z" pointer-events="none"/><g><g class="mark-text role-title-text" role="graphics-symbol" aria-roledescription="title" aria-label="Title text 'more than 2'" pointer-events="none"><text text-anchor="middle" transform="translate(0,0) rotate(-90) translate(0,8)" font-family="sans-serif" font-size="10px" fill="#000" opacity="1">more than 2</text></g></g><path class="foreground" aria-hidden="true" d="" pointer-events="none" display="none"/></g></g></g><path class="foreground" aria-hidden="true" d="" display="none"/></g></g><g class="mark-group role-column-footer column_footer" role="graphics-object" aria-roledescription="group mark container"><g transform="translate(0,585)"><path class="background" aria-hidden="true" d="M0,0h300v0h-300Z"/><g><g class="mark-group role-axis" role="graphics-symbol" aria-roledescription="axis" aria-label="X-axis titled 'Advanced booking (num. days)' for a linear scale with values from 0 to 800"><g transform="translate(0.5,0.5)"><path class="background" aria-hidden="true" d="M0,0h0v0h0Z" pointer-events="none"/><g><g class="mark-rule role-axis-tick" pointer-events="none"><line transform="translate(0,0)" x2="0" y2="5" stroke="#888" stroke-width="1" opacity="1"/><line transform="translate(38,0)" x2="0" y2="5" stroke="#888" stroke-width="1" opacity="1"/><line transform="translate(75,0)" x2="0" y2="5" stroke="#888" stroke-width="1" opacity="1"/><line transform="translate(113,0)" x2="0" y2="5" stroke="#888" stroke-width="1" opacity="1"/><line transform="translate(150,0)" x2="0" y2="5" stroke="#888" stroke-width="1" opacity="1"/><line transform="translate(188,0)" x2="0" y2="5" stroke="#888" stroke-width="1" opacity="1"/><line transform="translate(225,0)" x2="0" y2="5" stroke="#888" stroke-width="1" opacity="1"/><line transform="translate(263,0)" x2="0" y2="5" stroke="#888" stroke-width="1" opacity="1"/><line transform="translate(300,0)" x2="0" y2="5" stroke="#888" stroke-width="1" opacity="1"/></g><g class="mark-text role-axis-label" pointer-events="none"><text text-anchor="start" transform="translate(0,15)" font-family="sans-serif" font-size="10px" fill="#000" opacity="1">0</text><text text-anchor="middle" transform="translate(37.5,15)" font-family="sans-serif" font-size="10px" fill="#000" opacity="1">100</text><text text-anchor="middle" transform="translate(75,15)" font-family="sans-serif" font-size="10px" fill="#000" opacity="1">200</text><text text-anchor="middle" transform="translate(112.5,15)" font-family="sans-serif" font-size="10px" fill="#000" opacity="1">300</text><text text-anchor="middle" transform="translate(150,15)" font-family="sans-serif" font-size="10px" fill="#000" opacity="1">400</text><text text-anchor="middle" transform="translate(187.5,15)" font-family="sans-serif" font-size="10px" fill="#000" opacity="1">500</text><text text-anchor="middle" transform="translate(225,15)" font-family="sans-serif" font-size="10px" fill="#000" opacity="1">600</text><text text-anchor="middle" transform="translate(262.5,15)" font-family="sans-serif" font-size="10px" fill="#000" opacity="1">700</text><text text-anchor="end" transform="translate(300,15)" font-family="sans-serif" font-size="10px" fill="#000" opacity="1">800</text></g><g class="mark-rule role-axis-domain" pointer-events="none"><line transform="translate(0,0)" x2="300" y2="0" stroke="#888" stroke-width="1" opacity="1"/></g><g class="mark-text role-axis-title" pointer-events="none"><text text-anchor="middle" transform="translate(150,30)" font-family="sans-serif" font-size="11px" font-weight="bold" fill="#000" opacity="1">Advanced booking (num. days)</text></g></g><path class="foreground" aria-hidden="true" d="" pointer-events="none" display="none"/></g></g></g><path class="foreground" aria-hidden="true" d="" display="none"/></g></g><g class="mark-group role-scope cell" role="graphics-object" aria-roledescription="group mark container"><g transform="translate(0,0)"><path class="background" aria-hidden="true" d="M0.5,0.5h300v180h-300Z" stroke="#ddd"/><g><g class="mark-group role-axis" role="graphics-symbol" aria-roledescription="axis" aria-label="X-axis for a linear scale with values from 0 to 800"><g transform="translate(0.5,180.5)"><path class="background" aria-hidden="true" d="M0,0h0v0h0Z" pointer-events="none"/><g><g class="mark-rule role-axis-grid" pointer-events="none"><line transform="translate(0,-180)" x2="0" y2="180" stroke="#ddd" stroke-width="1" opacity="1"/><line transform="translate(38,-180)" x2="0" y2="180" stroke="#ddd" stroke-width="1" opacity="1"/><line transform="translate(75,-180)" x2="0" y2="180" stroke="#ddd" stroke-width="1" opacity="1"/><line transform="translate(113,-180)" x2="0" y2="180" stroke="#ddd" stroke-width="1" opacity="1"/><line transform="translate(150,-180)" x2="0" y2="180" stroke="#ddd" stroke-width="1" opacity="1"/><line transform="translate(188,-180)" x2="0" y2="180" stroke="#ddd" stroke-width="1" opacity="1"/><line transform="translate(225,-180)" x2="0" y2="180" stroke="#ddd" stroke-width="1" opacity="1"/><line transform="translate(263,-180)" x2="0" y2="180" stroke="#ddd" stroke-width="1" opacity="1"/><line transform="translate(300,-180)" x2="0" y2="180" stroke="#ddd" stroke-width="1" opacity="1"/></g></g><path class="foreground" aria-hidden="true" d="" pointer-events="none" display="none"/></g></g><g class="mark-group role-axis" role="graphics-symbol" aria-roledescription="axis" aria-label="Y-axis for a linear scale with values from 0.000 to 0.018"><g transform="translate(0.5,0.5)"><path class="background" aria-hidden="true" d="M0,0h0v0h0Z" pointer-events="none"/><g><g class="mark-rule role-axis-grid" pointer-events="none"><line transform="translate(0,180)" x2="300" y2="0" stroke="#ddd" stroke-width="1" opacity="1"/><line transform="translate(0,130)" x2="300" y2="0" stroke="#ddd" stroke-width="1" opacity="1"/><line transform="translate(0,80)" x2="300" y2="0" stroke="#ddd" stroke-width="1" opacity="1"/><line transform="translate(0,30)" x2="300" y2="0" stroke="#ddd" stroke-width="1" opacity="1"/></g></g><path class="foreground" aria-hidden="true" d="" pointer-events="none" display="none"/></g></g><g class="mark-group role-scope child_pathgroup" role="graphics-object" aria-roledescription="group mark container"><g transform="translate(0,0)"><path class="background" aria-hidden="true" d="M0,0h300v180h-300Z"/><g><g class="mark-area role-mark child_marks" role="graphics-symbol" aria-roledescription="area mark container"><path d="M0,33.48605916672155L1.179375,21.11794236409729L2.35875,18.785352886148484L3.538125,25.766896262964437L4.7175,39.456703805402626L5.896875,56.40947845465406L7.07625,73.46195075382509L8.255625,88.4799211431929L9.435,100.56673019712234L10.614375,109.83805632452456L11.79375,116.98688170685146L12.973125,122.84322927110969L14.1525,128.0561331197395L15.331875,132.94898763750166L16.51125,137.53852308161817L17.690624999999997,141.66170038718622L18.87,145.1318072203517L20.049375,147.85462734757888L21.22875,149.8717265085697L22.408125000000002,151.33807236142988L23.5875,152.46366824265831L24.766875,153.44891193868597L25.94625,154.4322984500088L27.125625000000003,155.4599374437503L28.305,156.4825235874084L29.484375,157.38182629290208L30.66375,158.02106449234066L31.843125000000004,158.30362212880465L33.0225,158.21848213113327L34.201875,157.85344732062924L35.381249999999994,157.36953077864607L36.560625,156.94776814191724L37.74,156.73416381983716L38.91937500000001,156.80908299653865L40.09875,157.1906966710262L41.278124999999996,157.85851327709875L42.4575,158.7716153332306L43.636874999999996,159.86757538796456L44.816250000000004,161.0519099331708L45.995625000000004,162.20103951462434L47.175,163.19048795371393L48.354375,163.93498369481304L49.53375,164.41269928732905L50.713125,164.65616231040616L51.8925,164.71784991616911L53.071875000000006,164.63651310109535L54.251250000000006,164.4269059782475L55.430625000000006,164.096287337996L56.61,163.67241321830093L57.78937499999999,163.22186124207974L58.96875,162.84492593304648L60.14812500000001,162.64726142126395L61.3275,162.70165906007185L62.506875,163.02007244736248L63.68625000000001,163.55208980643255L64.86562500000001,164.21188123000678L66.045,164.91893121627385L67.224375,165.62982072593292L68.40375,166.34452680154004L69.583125,167.08626825235717L70.76249999999999,167.86834467858395L71.941875,168.66723070944707L73.12125,169.41741589637587L74.300625,170.03298371604563L75.48,170.44761325670083L76.659375,170.65366904569456L77.83875000000002,170.71849506233778L79.018125,170.76560437298383L80.1975,170.92673364460842L81.376875,171.28735552975147L82.55624999999999,171.85251420289293L83.73562499999998,172.54877356403713L84.915,173.25874945702205L86.094375,173.86900282495304L87.27374999999999,174.30833655775638L88.453125,174.56196495351264L89.63250000000001,174.6611265089974L90.811875,174.65921207533157L91.99125000000001,174.6089124717937L93.170625,174.5499469781595L94.35,174.50808256566575L95.529375,174.49959558236563L96.70875,174.53475381495153L97.88812499999999,174.61804035327881L99.0675,174.74710256077083L100.246875,174.91323823632735L101.42625,175.10403630890082L102.60562500000002,175.30664608875804L103.785,175.51012698848717L104.964375,175.70666618520391L106.14375000000001,175.89218641151274L107.32312499999999,176.0664040340812L108.50250000000001,176.23184372226973L109.681875,176.39169196690375L110.86125000000001,176.54732222695566L112.04062499999999,176.69675885666157L113.22,176.83479676581496L114.399375,176.95445467712267L115.57874999999999,177.04868784978115L116.758125,177.11129042662893L117.9375,177.13675032480788L119.116875,177.1200763798424L120.29625000000001,177.0583052266639L121.475625,176.95446989447174L122.655,176.8223965410818L123.83437500000001,176.6886348230794L125.01375,176.58836200256127L126.19312500000001,176.5555540626105L127.37250000000002,176.61169675329293L128.55187500000002,176.75866416055538L129.73125000000002,176.9790877708472L130.910625,177.24344378152864L132.09,177.52001057138187L133.269375,177.78321422580848L134.44875,178.01734006387974L135.62812499999998,178.21513836415465L136.8075,178.37349116546395L137.986875,178.48981616643516L139.16625,178.56208980683957L140.345625,178.59238434744154L141.52499999999998,178.59067684288794L142.704375,178.57499596779445L143.88375,178.5664788094711L145.06312499999999,178.58166047263038L146.2425,178.6263477075536L147.421875,178.69433193544685L148.60125,178.77113384887224L149.78062500000001,178.8403532069685L150.96,178.88958217354437L152.139375,178.91396393932317L153.31875,178.91697203514812L154.49812500000002,178.90877681676102L155.67750000000004,178.90264892020772L156.856875,178.90996957966522L158.03625,178.93512961616867L159.21562500000002,178.9725418723851L160.395,179.00802590316718L161.574375,179.02507347821555L162.75375,179.01351640325913L163.933125,178.97593391124403L165.11249999999998,178.9277997265842L166.291875,178.89096563749052L167.47124999999997,178.8842207668839L168.650625,178.91626474168166L169.83,178.98435898355845L171.009375,179.07801032483277L172.18875,179.18438486064267L173.368125,179.29234059925193L174.54749999999999,179.39402895853334L175.726875,179.4848179762382L176.90625,179.56266434106467L178.085625,179.6274534042643L179.26500000000001,179.68028897030536L180.44437499999998,179.72271459803878L181.62375,179.75608547712383L182.80312500000002,179.78134346366562L183.98250000000002,179.79920930303692L185.161875,179.81054682973638L186.34125,179.81659922831554L187.52062500000002,179.81895053072918L188.7,179.81927476387142L189.879375,179.81905138942014L191.05875,179.81939478907734L192.23812499999997,179.82101946500094L193.4175,179.82425625086918L194.59687499999998,179.82903977895108L195.77624999999998,179.83488903466952L196.955625,179.84098658460152L198.135,179.84642593638517L199.314375,179.85055907871018L200.49375,179.85326221990246L201.67312499999997,179.85495627733488L202.8525,179.85636317852192L204.031875,179.8581398602468L205.21125000000004,179.86059368755815L206.390625,179.8636127579279L207.57,179.86680444979694L208.74937499999996,179.86972545458696L209.92875,179.87206833150594L211.108125,179.87373191692143L212.28750000000002,179.87478539436543L213.466875,179.8753835233963L214.64624999999998,179.87568917128004L215.825625,179.87583014282802L217.00500000000002,179.87588895671286L218.18437500000002,179.8759112154647L219.36375,179.87591899211057L220.543125,179.87592201911383L221.72250000000003,179.87592516001666L222.901875,179.87593380527275L224.08124999999998,179.87596031408467L225.260625,179.87603562767305L226.44,179.8762307322782L227.619375,179.87669098767586L228.79875,179.87767949331717L229.97812499999998,179.87961216702627L231.15749999999997,179.8830516496623L232.336875,179.8886227781046L233.51625,179.89683524877384L234.695625,179.9078520600182L235.875,179.92130033516946L235.875,180L234.695625,180L233.51625,180L232.336875,180L231.15749999999997,180L229.97812499999998,180L228.79875,180L227.619375,180L226.44,180L225.260625,180L224.08124999999998,180L222.901875,180L221.72250000000003,180L220.543125,180L219.36375,180L218.18437500000002,180L217.00500000000002,180L215.825625,180L214.64624999999998,180L213.466875,180L212.28750000000002,180L211.108125,180L209.92875,180L208.74937499999996,180L207.57,180L206.390625,180L205.21125000000004,180L204.031875,180L202.8525,180L201.67312499999997,180L200.49375,180L199.314375,180L198.135,180L196.955625,180L195.77624999999998,180L194.59687499999998,180L193.4175,180L192.23812499999997,180L191.05875,180L189.879375,180L188.7,180L187.52062500000002,180L186.34125,180L185.161875,180L183.98250000000002,180L182.80312500000002,180L181.62375,180L180.44437499999998,180L179.26500000000001,180L178.085625,180L176.90625,180L175.726875,180L174.54749999999999,180L173.368125,180L172.18875,180L171.009375,180L169.83,180L168.650625,180L167.47124999999997,180L166.291875,180L165.11249999999998,180L163.933125,180L162.75375,180L161.574375,180L160.395,180L159.21562500000002,180L158.03625,180L156.856875,180L155.67750000000004,180L154.49812500000002,180L153.31875,180L152.139375,180L150.96,180L149.78062500000001,180L148.60125,180L147.421875,180L146.2425,180L145.06312499999999,180L143.88375,180L142.704375,180L141.52499999999998,180L140.345625,180L139.16625,180L137.986875,180L136.8075,180L135.62812499999998,180L134.44875,180L133.269375,180L132.09,180L130.910625,180L129.73125000000002,180L128.55187500000002,180L127.37250000000002,180L126.19312500000001,180L125.01375,180L123.83437500000001,180L122.655,180L121.475625,180L120.29625000000001,180L119.116875,180L117.9375,180L116.758125,180L115.57874999999999,180L114.399375,180L113.22,180L112.04062499999999,180L110.86125000000001,180L109.681875,180L108.50250000000001,180L107.32312499999999,180L106.14375000000001,180L104.964375,180L103.785,180L102.60562500000002,180L101.42625,180L100.246875,180L99.0675,180L97.88812499999999,180L96.70875,180L95.529375,180L94.35,180L93.170625,180L91.99125000000001,180L90.811875,180L89.63250000000001,180L88.453125,180L87.27374999999999,180L86.094375,180L84.915,180L83.73562499999998,180L82.55624999999999,180L81.376875,180L80.1975,180L79.018125,180L77.83875000000002,180L76.659375,180L75.48,180L74.300625,180L73.12125,180L71.941875,180L70.76249999999999,180L69.583125,180L68.40375,180L67.224375,180L66.045,180L64.86562500000001,180L63.68625000000001,180L62.506875,180L61.3275,180L60.14812500000001,180L58.96875,180L57.78937499999999,180L56.61,180L55.430625000000006,180L54.251250000000006,180L53.071875000000006,180L51.8925,180L50.713125,180L49.53375,180L48.354375,180L47.175,180L45.995625000000004,180L44.816250000000004,180L43.636874999999996,180L42.4575,180L41.278124999999996,180L40.09875,180L38.91937500000001,180L37.74,180L36.560625,180L35.381249999999994,180L34.201875,180L33.0225,180L31.843125000000004,180L30.66375,180L29.484375,180L28.305,180L27.125625000000003,180L25.94625,180L24.766875,180L23.5875,180L22.408125000000002,180L21.22875,180L20.049375,180L18.87,180L17.690624999999997,180L16.51125,180L15.331875,180L14.1525,180L12.973125,180L11.79375,180L10.614375,180L9.435,180L8.255625,180L7.07625,180L5.896875,180L4.7175,180L3.538125,180L2.35875,180L1.179375,180L0,180Z" fill="#4c78a8" opacity="0.5"/></g></g><path class="foreground" aria-hidden="true" d="" display="none"/></g></g></g><path class="foreground" aria-hidden="true" d="" display="none"/></g><g transform="translate(0,202)"><path class="background" aria-hidden="true" d="M0.5,0.5h300v180h-300Z" stroke="#ddd"/><g><g class="mark-group role-axis" role="graphics-symbol" aria-roledescription="axis" aria-label="X-axis for a linear scale with values from 0 to 800"><g transform="translate(0.5,180.5)"><path class="background" aria-hidden="true" d="M0,0h0v0h0Z" pointer-events="none"/><g><g class="mark-rule role-axis-grid" pointer-events="none"><line transform="translate(0,-180)" x2="0" y2="180" stroke="#ddd" stroke-width="1" opacity="1"/><line transform="translate(38,-180)" x2="0" y2="180" stroke="#ddd" stroke-width="1" opacity="1"/><line transform="translate(75,-180)" x2="0" y2="180" stroke="#ddd" stroke-width="1" opacity="1"/><line transform="translate(113,-180)" x2="0" y2="180" stroke="#ddd" stroke-width="1" opacity="1"/><line transform="translate(150,-180)" x2="0" y2="180" stroke="#ddd" stroke-width="1" opacity="1"/><line transform="translate(188,-180)" x2="0" y2="180" stroke="#ddd" stroke-width="1" opacity="1"/><line transform="translate(225,-180)" x2="0" y2="180" stroke="#ddd" stroke-width="1" opacity="1"/><line transform="translate(263,-180)" x2="0" y2="180" stroke="#ddd" stroke-width="1" opacity="1"/><line transform="translate(300,-180)" x2="0" y2="180" stroke="#ddd" stroke-width="1" opacity="1"/></g></g><path class="foreground" aria-hidden="true" d="" pointer-events="none" display="none"/></g></g><g class="mark-group role-axis" role="graphics-symbol" aria-roledescription="axis" aria-label="Y-axis for a linear scale with values from 0.000 to 0.018"><g transform="translate(0.5,0.5)"><path class="background" aria-hidden="true" d="M0,0h0v0h0Z" pointer-events="none"/><g><g class="mark-rule role-axis-grid" pointer-events="none"><line transform="translate(0,180)" x2="300" y2="0" stroke="#ddd" stroke-width="1" opacity="1"/><line transform="translate(0,130)" x2="300" y2="0" stroke="#ddd" stroke-width="1" opacity="1"/><line transform="translate(0,80)" x2="300" y2="0" stroke="#ddd" stroke-width="1" opacity="1"/><line transform="translate(0,30)" x2="300" y2="0" stroke="#ddd" stroke-width="1" opacity="1"/></g></g><path class="foreground" aria-hidden="true" d="" pointer-events="none" display="none"/></g></g><g class="mark-group role-scope child_pathgroup" role="graphics-object" aria-roledescription="group mark container"><g transform="translate(0,0)"><path class="background" aria-hidden="true" d="M0,0h300v180h-300Z"/><g><g class="mark-area role-mark child_marks" role="graphics-symbol" aria-roledescription="area mark container"><path d="M0,120.25226405645135L1.381875,112.53159949982854L2.76375,108.05100599835416L4.145625,106.80791968174272L5.5275,108.14537974784582L6.909375,111.08599192554794L8.29125,114.69267178583458L9.673125,118.30086137047222L11.055,121.57341220773192L12.436875,124.4257793594572L13.81875,126.90594376995132L15.200625000000002,129.09535933057091L16.5825,131.0575015840746L17.964375,132.82823456386362L19.34625,134.4281264459064L20.728125,135.87790560686042L22.11,137.20635791940845L23.491875000000004,138.44835548917177L24.87375,139.63623312215154L26.255625000000002,140.7901824476085L27.6375,141.9133223386011L29.019374999999997,142.9947509732661L30.401250000000005,144.01961419429983L31.783125000000005,144.98105353076727L33.165,145.88763236529667L34.546875,146.76247808683283L35.92875,147.63492383040017L37.310625,148.5288027439307L38.6925,149.45230886374918L40.074374999999996,150.39319882332862L41.45625,151.32123177379884L42.838125,152.19745448460307L44.22,152.9872370794688L45.601875,153.67173535983596L46.98375000000001,154.252449855057L48.365625,154.74676993460082L49.7475,155.17743954822717L51.129375,155.562361393399L52.511250000000004,155.91033686119752L53.893125,156.22377189221456L55.275,156.50469894116264L56.65687499999999,156.75926500651477L58.03874999999999,156.99853101843792L59.420624999999994,157.23709575913816L60.80250000000001,157.49229564836568L62.18437500000001,157.7847469189379L63.56625000000001,158.13809401007993L64.94812499999999,158.57507269278756L66.33,159.10940764690042L67.71187499999999,159.73683823307167L69.09375,160.4307032210249L70.47562500000001,161.14619212974912L71.8575,161.8331883032383L73.23937500000001,162.4530556977524L74.62125,162.99237213828724L76.00312500000001,163.46765347802238L77.385,163.9188285818712L78.766875,164.39375871551172L80.14874999999999,164.92956230749556L81.530625,165.53771742710268L82.9125,166.19856021426403L84.294375,166.86731767576504L85.67625,167.48924983699936L87.058125,168.01747544830204L88.44,168.4256596478015L89.82187499999999,168.71032030272883L91.20375,168.88319051863675L92.585625,168.95950776239619L93.96750000000002,168.94971749390513L95.34937500000001,168.85909502845638L96.73125,168.69471210703864L98.113125,168.4752356012135L99.495,168.23763257233682L100.876875,168.03572691353264L102.25875,167.92855805080228L103.640625,167.96154898606193L105.02250000000001,168.14871624351758L106.404375,168.46568774107755L107.78625,168.85859899703354L109.168125,169.26520897287637L110.55,169.63775838797665L111.931875,169.95690463580038L113.31374999999998,170.23206466236678L114.69562499999998,170.49091143484355L116.07749999999999,170.76482926552774L117.45937499999998,171.07660895991492L118.84124999999999,171.43376712985506L120.22312499999998,171.82829936695862L121.60500000000002,172.24210631668336L122.98687500000001,172.65585603345426L124.36875000000002,173.0574570400304L125.75062500000001,173.4460174379772L127.13250000000002,173.82939805589658L128.514375,174.21722864979262L129.89624999999998,174.61377733534397L131.278125,175.01445713474502L132.66,175.4068046200936L134.041875,175.7740398927992L135.42374999999998,176.09876918601157L136.805625,176.36584715795658L138.1875,176.56504064074775L139.569375,176.69421129413678L140.95125000000002,176.76220719516428L142.333125,176.78916938622925L143.715,176.80232889734378L145.096875,176.82782556777235L146.47875000000002,176.88195753010498L147.860625,176.96636111381287L149.2425,177.06991402806958L150.62437500000001,177.17655423804496L152.00625000000002,177.2748807106153L153.388125,177.36437744729872L154.77,177.45501599844246L156.151875,177.56071390538963L157.53375,177.6904677973239L158.915625,177.84203331669113L160.29749999999999,178.001307907448L161.679375,178.14728757382372L163.06125,178.25969012030725L164.44312499999998,178.32560974689446L165.825,178.3428989554918L167.206875,178.32004458939275L168.58875,178.27367268722395L169.97062499999998,178.22497535698298L171.3525,178.1958029441539L172.734375,178.2047146936758L174.11625,178.2633487517834L175.498125,178.37386251213692L176.88,178.5283606593751L178.261875,178.7107859393118L179.64374999999998,178.90084491099626L181.025625,179.07874240937477L182.4075,179.22928198354987L183.78937500000004,179.3442819568353L185.17125,179.42293934784888L186.55312500000002,179.470421122885L187.93500000000003,179.49540470666224L189.31687499999998,179.50744892490658L190.69875000000002,179.51491392181052L192.08062499999997,179.52374426784436L193.4625,179.537031174781L194.84437499999996,179.5551338759821L196.22625,179.57627012508476L197.60812499999994,179.59759220727932L198.99,179.6165827211922L200.371875,179.63224495770726L201.75375,179.64545171306935L203.13562499999998,179.65822377511924L204.5175,179.672394059762L205.899375,179.68851267622875L207.28125,179.70562391385027L208.66312500000004,179.7219035967409L210.04500000000002,179.73561164724848L211.42687500000002,179.74574821383294L212.80875,179.75213344605777L214.190625,179.75502845865068L215.5725,179.75461793541456L216.95437500000003,179.7506588180393L218.33625,179.7424808362623L219.71812500000001,179.7293841812843L221.1,179.7113090319259L222.48187500000003,179.68945285190892L223.86375,179.6664058389478L225.245625,179.64554905046592L226.62749999999997,179.6299371139723L228.00937499999998,179.62136036912366L229.39124999999996,179.62028123349623L230.773125,179.62670454243786L232.15499999999997,179.64121806820788L233.53687499999998,179.66518330686432L234.91874999999996,179.69970700491007L236.300625,179.7440838777979L237.68249999999998,179.79494058126377L239.06437499999998,179.8468431152712L240.44624999999996,179.89406724805585L241.82812500000003,179.93246660635208L243.21000000000004,179.96044791524852L244.59187500000002,179.9787681270774L245.97375000000002,179.9895699231502L247.355625,179.99531592430907L248.73750000000004,179.99807678832755L250.11937500000002,179.99927327468595L251.50125000000003,179.99973272652804L252.883125,179.9998678852791L254.26500000000004,179.99984857756104L255.64687500000002,179.9997193211703L257.02875,179.99946817766818L258.410625,179.99906907129005L259.79249999999996,179.99851442472394L261.17437499999994,179.99784081360892L262.55625,179.9971379971822L263.93812499999996,179.99652982657574L265.32,179.99612777367938L266.701875,179.9959775281805L268.08375,179.99603084203403L269.465625,179.99616562392725L270.84749999999997,179.99624926882512L272.22937499999995,179.99621137687137L273.61125,179.99608323533155L274.993125,179.99598021225327L276.375,179.9960377429829L276.375,180L274.993125,180L273.61125,180L272.22937499999995,180L270.84749999999997,180L269.465625,180L268.08375,180L266.701875,180L265.32,180L263.93812499999996,180L262.55625,180L261.17437499999994,180L259.79249999999996,180L258.410625,180L257.02875,180L255.64687500000002,180L254.26500000000004,180L252.883125,180L251.50125000000003,180L250.11937500000002,180L248.73750000000004,180L247.355625,180L245.97375000000002,180L244.59187500000002,180L243.21000000000004,180L241.82812500000003,180L240.44624999999996,180L239.06437499999998,180L237.68249999999998,180L236.300625,180L234.91874999999996,180L233.53687499999998,180L232.15499999999997,180L230.773125,180L229.39124999999996,180L228.00937499999998,180L226.62749999999997,180L225.245625,180L223.86375,180L222.48187500000003,180L221.1,180L219.71812500000001,180L218.33625,180L216.95437500000003,180L215.5725,180L214.190625,180L212.80875,180L211.42687500000002,180L210.04500000000002,180L208.66312500000004,180L207.28125,180L205.899375,180L204.5175,180L203.13562499999998,180L201.75375,180L200.371875,180L198.99,180L197.60812499999994,180L196.22625,180L194.84437499999996,180L193.4625,180L192.08062499999997,180L190.69875000000002,180L189.31687499999998,180L187.93500000000003,180L186.55312500000002,180L185.17125,180L183.78937500000004,180L182.4075,180L181.025625,180L179.64374999999998,180L178.261875,180L176.88,180L175.498125,180L174.11625,180L172.734375,180L171.3525,180L169.97062499999998,180L168.58875,180L167.206875,180L165.825,180L164.44312499999998,180L163.06125,180L161.679375,180L160.29749999999999,180L158.915625,180L157.53375,180L156.151875,180L154.77,180L153.388125,180L152.00625000000002,180L150.62437500000001,180L149.2425,180L147.860625,180L146.47875000000002,180L145.096875,180L143.715,180L142.333125,180L140.95125000000002,180L139.569375,180L138.1875,180L136.805625,180L135.42374999999998,180L134.041875,180L132.66,180L131.278125,180L129.89624999999998,180L128.514375,180L127.13250000000002,180L125.75062500000001,180L124.36875000000002,180L122.98687500000001,180L121.60500000000002,180L120.22312499999998,180L118.84124999999999,180L117.45937499999998,180L116.07749999999999,180L114.69562499999998,180L113.31374999999998,180L111.931875,180L110.55,180L109.168125,180L107.78625,180L106.404375,180L105.02250000000001,180L103.640625,180L102.25875,180L100.876875,180L99.495,180L98.113125,180L96.73125,180L95.34937500000001,180L93.96750000000002,180L92.585625,180L91.20375,180L89.82187499999999,180L88.44,180L87.058125,180L85.67625,180L84.294375,180L82.9125,180L81.530625,180L80.14874999999999,180L78.766875,180L77.385,180L76.00312500000001,180L74.62125,180L73.23937500000001,180L71.8575,180L70.47562500000001,180L69.09375,180L67.71187499999999,180L66.33,180L64.94812499999999,180L63.56625000000001,180L62.18437500000001,180L60.80250000000001,180L59.420624999999994,180L58.03874999999999,180L56.65687499999999,180L55.275,180L53.893125,180L52.511250000000004,180L51.129375,180L49.7475,180L48.365625,180L46.98375000000001,180L45.601875,180L44.22,180L42.838125,180L41.45625,180L40.074374999999996,180L38.6925,180L37.310625,180L35.92875,180L34.546875,180L33.165,180L31.783125000000005,180L30.401250000000005,180L29.019374999999997,180L27.6375,180L26.255625000000002,180L24.87375,180L23.491875000000004,180L22.11,180L20.728125,180L19.34625,180L17.964375,180L16.5825,180L15.200625000000002,180L13.81875,180L12.436875,180L11.055,180L9.673125,180L8.29125,180L6.909375,180L5.5275,180L4.145625,180L2.76375,180L1.381875,180L0,180Z" fill="#f58518" opacity="0.5"/></g></g><path class="foreground" aria-hidden="true" d="" display="none"/></g></g></g><path class="foreground" aria-hidden="true" d="" display="none"/></g><g transform="translate(0,404)"><path class="background" aria-hidden="true" d="M0.5,0.5h300v180h-300Z" stroke="#ddd"/><g><g class="mark-group role-axis" role="graphics-symbol" aria-roledescription="axis" aria-label="X-axis for a linear scale with values from 0 to 800"><g transform="translate(0.5,180.5)"><path class="background" aria-hidden="true" d="M0,0h0v0h0Z" pointer-events="none"/><g><g class="mark-rule role-axis-grid" pointer-events="none"><line transform="translate(0,-180)" x2="0" y2="180" stroke="#ddd" stroke-width="1" opacity="1"/><line transform="translate(38,-180)" x2="0" y2="180" stroke="#ddd" stroke-width="1" opacity="1"/><line transform="translate(75,-180)" x2="0" y2="180" stroke="#ddd" stroke-width="1" opacity="1"/><line transform="translate(113,-180)" x2="0" y2="180" stroke="#ddd" stroke-width="1" opacity="1"/><line transform="translate(150,-180)" x2="0" y2="180" stroke="#ddd" stroke-width="1" opacity="1"/><line transform="translate(188,-180)" x2="0" y2="180" stroke="#ddd" stroke-width="1" opacity="1"/><line transform="translate(225,-180)" x2="0" y2="180" stroke="#ddd" stroke-width="1" opacity="1"/><line transform="translate(263,-180)" x2="0" y2="180" stroke="#ddd" stroke-width="1" opacity="1"/><line transform="translate(300,-180)" x2="0" y2="180" stroke="#ddd" stroke-width="1" opacity="1"/></g></g><path class="foreground" aria-hidden="true" d="" pointer-events="none" display="none"/></g></g><g class="mark-group role-axis" role="graphics-symbol" aria-roledescription="axis" aria-label="Y-axis for a linear scale with values from 0.000 to 0.018"><g transform="translate(0.5,0.5)"><path class="background" aria-hidden="true" d="M0,0h0v0h0Z" pointer-events="none"/><g><g class="mark-rule role-axis-grid" pointer-events="none"><line transform="translate(0,180)" x2="300" y2="0" stroke="#ddd" stroke-width="1" opacity="1"/><line transform="translate(0,130)" x2="300" y2="0" stroke="#ddd" stroke-width="1" opacity="1"/><line transform="translate(0,80)" x2="300" y2="0" stroke="#ddd" stroke-width="1" opacity="1"/><line transform="translate(0,30)" x2="300" y2="0" stroke="#ddd" stroke-width="1" opacity="1"/></g></g><path class="foreground" aria-hidden="true" d="" pointer-events="none" display="none"/></g></g><g class="mark-group role-scope child_pathgroup" role="graphics-object" aria-roledescription="group mark container"><g transform="translate(0,0)"><path class="background" aria-hidden="true" d="M0,0h300v180h-300Z"/><g><g class="mark-area role-mark child_marks" role="graphics-symbol" aria-roledescription="area mark container"><path d="M0,135.17182437054475L1.0162499999999999,130.29256756972055L2.0324999999999998,126.04794862577488L3.048749999999999,122.56109416686127L4.0649999999999995,119.88357240217495L5.081250000000001,117.99774812183495L6.097499999999998,116.82919975901127L7.113750000000001,116.26567724123646L8.129999999999999,116.1781445549506L9.14625,116.43971463957782L10.162500000000001,116.93950512496588L11.178749999999999,117.59013952654209L12.194999999999997,118.32925602496363L13.211250000000001,119.11655244303182L14.227500000000003,119.92840071281395L15.243749999999999,120.75194640368002L16.259999999999998,121.58007255026065L17.27625,122.40791867501206L18.2925,123.23103839710403L19.30875,124.04488913993545L20.325000000000003,124.84519944440369L21.34125,125.62878951370233L22.357499999999998,126.39452620831166L23.37375,127.14418549792923L24.389999999999993,127.88303328600097L25.40625,128.61993629813364L26.422500000000003,129.36683121503026L27.43875,130.13746391357284L28.455000000000005,130.94547614616812L29.471249999999998,131.8021261142281L30.487499999999997,132.71410375744048L31.503750000000004,133.681957979183L32.519999999999996,134.69954516435882L33.53625,135.754654043786L34.5525,136.83064165822532L35.568749999999994,137.9086412538155L36.585,138.96977360624675L37.60125,139.9968521247422L38.6175,140.97529140788438L39.63375,141.89322308037637L40.650000000000006,142.7410842027215L41.66625,143.5110846876547L42.6825,144.196943377816L43.69875,144.79412825718705L44.714999999999996,145.30060944607325L45.73125,145.71791587266844L46.7475,146.0521476321858L47.763749999999995,146.31457351651707L48.77999999999999,146.5215351150626L49.79624999999999,146.693549902205L50.8125,146.85370186484334L51.82875000000001,147.02557479404268L52.845000000000006,147.23108040089352L53.86125,147.48854457050592L54.8775,147.81134821876276L55.893750000000004,148.2072997376921L56.91000000000001,148.67877606701154L57.926249999999996,149.22353783167407L58.942499999999995,149.83602051011744L59.95874999999999,150.50883892846343L60.974999999999994,151.23422174434626L61.99125,152.0051190642759L63.00750000000001,152.81580037301723L64.02374999999999,153.66187481161555L65.03999999999999,154.53980244728086L66.05625,155.4460915015374L67.0725,156.37645487410882L68.08875000000002,157.3252003577638L69.105,158.28504610774738L70.12124999999999,159.24740956036243L71.13749999999999,160.20306200002128L72.15375,161.1429277285246L73.17,162.05877716124823L74.18625,162.94362640202326L75.2025,163.79178517101192L76.21875000000001,164.59863821832386L77.235,165.3603461003651L78.25125,166.07367124910732L79.2675,166.736069258214L80.28375000000001,167.34606146879992L81.30000000000001,167.9037724945244L82.31625,168.4114255548614L83.3325,168.87357195507695L84.34875,169.2968933526718L85.365,169.68953430353884L86.38125000000001,170.0600591905933L87.3975,170.41624086838257L88.41375,170.76394702491544L89.42999999999999,171.10638006066242L90.44625,171.44385095305813L91.4625,171.77414600216008L92.47875,172.09340664041395L93.495,172.39732002187873L94.51125,172.68234274922492L95.52749999999999,172.9466727450377L96.54375,173.19074916844892L97.55999999999997,173.4171817237661L98.57625000000002,173.63015574605188L99.59249999999999,173.83448708387982L100.60875,174.03457527398538L101.625,174.23350659438267L102.64125,174.43249563288995L103.65750000000001,174.63075085819648L104.67375,174.82574180392157L105.69000000000001,175.01376418464605L106.70625,175.19066104999885L107.7225,175.35256135790462L108.73875000000001,175.49652708781392L109.755,175.62103719299967L110.77125000000001,175.72626754106093L111.78750000000001,175.81414686676698L112.80375000000001,175.88818495171213L113.82000000000002,175.9530891611102L114.83624999999998,176.0142136744802L115.85249999999999,176.07691863184272L116.86874999999999,176.14594279148682L117.88499999999999,176.22489970522423L118.90125,176.31598551825218L119.91749999999998,176.41993865145452L120.93374999999999,176.53623152855113L121.94999999999999,176.6634221278273L122.96624999999999,176.79956604861798L123.9825,176.94259523960343L124.99875,177.09060130555625L126.01500000000001,177.24200303751437L127.03125,177.39561124545435L128.04749999999999,177.55061777989962L129.06375,177.70653026461295L130.07999999999998,177.86306029506548L131.09625,178.01996495981393L132.1125,178.17684890942638L133.12875,178.33295582942324L134.145,178.48700282348338L135.16125000000002,178.63712304954402L136.17750000000004,178.78096884465455L137.19375,178.915987926537L138.21,179.039830067939L139.22625000000002,179.1507907340786L140.24249999999998,179.24817221320436L141.25875,179.3324544614786L142.27499999999998,179.40521622238242L143.29125,179.46881703817394L144.3075,179.5259191667713L145.32375,179.5789722222165L146.34,179.62978871915595L147.35625,179.6793056851499L148.3725,179.72756931775837L149.38875000000002,179.77391690496282L150.405,179.8172828195208L151.42125000000001,179.85653563146494L152.43750000000003,179.89076269547894L153.45374999999999,179.9194488089368L154.47,179.94253351188175L155.48625,179.9603645779861L156.5025,179.9735850932599L157.51874999999998,179.98299623762466L158.535,179.98943059332672L159.55125,179.99365724163852L160.56750000000002,179.99632579054096L161.58375,179.99794571224882L162.60000000000002,179.99889149888023L163.61625,179.99942275078482L164.6325,179.9997099156561L165.64875,179.9998593288486L166.665,179.9999341743526L167.68125,179.99997027740523L168.6975,179.99998704985515L169.71374999999998,179.9999945554507L170.73,179.99999779094134L171.74625,179.99999913403522L172.76250000000002,179.99999966909888L173.77875,179.9999998683568L174.795,179.99999992301056L175.81125,179.99999989162592L176.8275,179.9999997519033L177.84375,179.99999939137678L178.85999999999999,179.99999853863395L179.87625000000003,179.9999966083991L180.8925,179.99999240395468L181.90875,179.99998358583235L182.925,179.99996577941133L183.94125,179.99993116775101L184.9575,179.99986642286163L185.97375,179.99974990328906L186.99,179.99954822781172L188.00625000000002,179.99921265210804L189.0225,179.99867611728357L190.03875000000002,179.99785232767053L191.05499999999998,179.99663858450995L192.07124999999996,179.9949241119116L193.0875,179.9926050107739L194.10375,179.98960561691177L195.11999999999995,179.98590401080872L196.13625,179.98155714876037L197.15250000000003,179.97671928928202L198.16875,179.97164693121167L199.18499999999997,179.9666850186367L200.20125000000002,179.96223280385908L201.2175,179.95869281698782L202.23375000000001,179.9564114843594L203.25,179.9556233773151L203.25,180L202.23375000000001,180L201.2175,180L200.20125000000002,180L199.18499999999997,180L198.16875,180L197.15250000000003,180L196.13625,180L195.11999999999995,180L194.10375,180L193.0875,180L192.07124999999996,180L191.05499999999998,180L190.03875000000002,180L189.0225,180L188.00625000000002,180L186.99,180L185.97375,180L184.9575,180L183.94125,180L182.925,180L181.90875,180L180.8925,180L179.87625000000003,180L178.85999999999999,180L177.84375,180L176.8275,180L175.81125,180L174.795,180L173.77875,180L172.76250000000002,180L171.74625,180L170.73,180L169.71374999999998,180L168.6975,180L167.68125,180L166.665,180L165.64875,180L164.6325,180L163.61625,180L162.60000000000002,180L161.58375,180L160.56750000000002,180L159.55125,180L158.535,180L157.51874999999998,180L156.5025,180L155.48625,180L154.47,180L153.45374999999999,180L152.43750000000003,180L151.42125000000001,180L150.405,180L149.38875000000002,180L148.3725,180L147.35625,180L146.34,180L145.32375,180L144.3075,180L143.29125,180L142.27499999999998,180L141.25875,180L140.24249999999998,180L139.22625000000002,180L138.21,180L137.19375,180L136.17750000000004,180L135.16125000000002,180L134.145,180L133.12875,180L132.1125,180L131.09625,180L130.07999999999998,180L129.06375,180L128.04749999999999,180L127.03125,180L126.01500000000001,180L124.99875,180L123.9825,180L122.96624999999999,180L121.94999999999999,180L120.93374999999999,180L119.91749999999998,180L118.90125,180L117.88499999999999,180L116.86874999999999,180L115.85249999999999,180L114.83624999999998,180L113.82000000000002,180L112.80375000000001,180L111.78750000000001,180L110.77125000000001,180L109.755,180L108.73875000000001,180L107.7225,180L106.70625,180L105.69000000000001,180L104.67375,180L103.65750000000001,180L102.64125,180L101.625,180L100.60875,180L99.59249999999999,180L98.57625000000002,180L97.55999999999997,180L96.54375,180L95.52749999999999,180L94.51125,180L93.495,180L92.47875,180L91.4625,180L90.44625,180L89.42999999999999,180L88.41375,180L87.3975,180L86.38125000000001,180L85.365,180L84.34875,180L83.3325,180L82.31625,180L81.30000000000001,180L80.28375000000001,180L79.2675,180L78.25125,180L77.235,180L76.21875000000001,180L75.2025,180L74.18625,180L73.17,180L72.15375,180L71.13749999999999,180L70.12124999999999,180L69.105,180L68.08875000000002,180L67.0725,180L66.05625,180L65.03999999999999,180L64.02374999999999,180L63.00750000000001,180L61.99125,180L60.974999999999994,180L59.95874999999999,180L58.942499999999995,180L57.926249999999996,180L56.91000000000001,180L55.893750000000004,180L54.8775,180L53.86125,180L52.845000000000006,180L51.82875000000001,180L50.8125,180L49.79624999999999,180L48.77999999999999,180L47.763749999999995,180L46.7475,180L45.73125,180L44.714999999999996,180L43.69875,180L42.6825,180L41.66625,180L40.650000000000006,180L39.63375,180L38.6175,180L37.60125,180L36.585,180L35.568749999999994,180L34.5525,180L33.53625,180L32.519999999999996,180L31.503750000000004,180L30.487499999999997,180L29.471249999999998,180L28.455000000000005,180L27.43875,180L26.422500000000003,180L25.40625,180L24.389999999999993,180L23.37375,180L22.357499999999998,180L21.34125,180L20.325000000000003,180L19.30875,180L18.2925,180L17.27625,180L16.259999999999998,180L15.243749999999999,180L14.227500000000003,180L13.211250000000001,180L12.194999999999997,180L11.178749999999999,180L10.162500000000001,180L9.14625,180L8.129999999999999,180L7.113750000000001,180L6.097499999999998,180L5.081250000000001,180L4.0649999999999995,180L3.048749999999999,180L2.0324999999999998,180L1.0162499999999999,180L0,180Z" fill="#e45756" opacity="0.5"/></g></g><path class="foreground" aria-hidden="true" d="" display="none"/></g></g></g><path class="foreground" aria-hidden="true" d="" display="none"/></g></g><g class="mark-group role-legend" role="graphics-symbol" aria-roledescription="legend" aria-label="Symbol legend titled 'Number of Guests' for fill color with 3 values: single, couple, more than 2"><g transform="translate(319,0)"><path class="background" aria-hidden="true" d="M0,0h96v53h-96Z" pointer-events="none"/><g><g class="mark-group role-legend-entry"><g transform="translate(0,16)"><path class="background" aria-hidden="true" d="M0,0h0v0h0Z" pointer-events="none"/><g><g class="mark-group role-scope" role="graphics-object" aria-roledescription="group mark container"><g transform="translate(0,0)"><path class="background" aria-hidden="true" d="M0,0h69.3642578125v11h-69.3642578125Z" pointer-events="none" opacity="1"/><g><g class="mark-symbol role-legend-symbol" pointer-events="none"><path transform="translate(6,6)" d="M5,0A5,5,0,1,1,-5,0A5,5,0,1,1,5,0" fill="#4c78a8" stroke-width="1.5" opacity="0.5"/></g><g class="mark-text role-legend-label" pointer-events="none"><text text-anchor="start" transform="translate(16,9)" font-family="sans-serif" font-size="10px" fill="#000" opacity="1">single</text></g></g><path class="foreground" aria-hidden="true" d="" pointer-events="none" display="none"/></g><g transform="translate(0,13)"><path class="background" aria-hidden="true" d="M0,0h69.3642578125v11h-69.3642578125Z" pointer-events="none" opacity="1"/><g><g class="mark-symbol role-legend-symbol" pointer-events="none"><path transform="translate(6,6)" d="M5,0A5,5,0,1,1,-5,0A5,5,0,1,1,5,0" fill="#f58518" stroke-width="1.5" opacity="0.5"/></g><g class="mark-text role-legend-label" pointer-events="none"><text text-anchor="start" transform="translate(16,9)" font-family="sans-serif" font-size="10px" fill="#000" opacity="1">couple</text></g></g><path class="foreground" aria-hidden="true" d="" pointer-events="none" display="none"/></g><g transform="translate(0,26)"><path class="background" aria-hidden="true" d="M0,0h69.3642578125v11h-69.3642578125Z" pointer-events="none" opacity="1"/><g><g class="mark-symbol role-legend-symbol" pointer-events="none"><path transform="translate(6,6)" d="M5,0A5,5,0,1,1,-5,0A5,5,0,1,1,5,0" fill="#e45756" stroke-width="1.5" opacity="0.5"/></g><g class="mark-text role-legend-label" pointer-events="none"><text text-anchor="start" transform="translate(16,9)" font-family="sans-serif" font-size="10px" fill="#000" opacity="1">more than 2</text></g></g><path class="foreground" aria-hidden="true" d="" pointer-events="none" display="none"/></g></g></g><path class="foreground" aria-hidden="true" d="" pointer-events="none" display="none"/></g></g><g class="mark-text role-legend-title" pointer-events="none"><text text-anchor="start" transform="translate(0,9)" font-family="sans-serif" font-size="11px" font-weight="bold" fill="#000" opacity="1">Number of Guests</text></g></g><path class="foreground" aria-hidden="true" d="" pointer-events="none" display="none"/></g></g></g><path class="foreground" aria-hidden="true" d="" display="none"/></g></g></g></svg>