<svg xmlns="http://www.w3.org/2000/svg" xmlns:xlink="http://www.w3.org/1999/xlink" version="1.1" class="marks" width="675" height="518" viewBox="0 0 675 518"><rect width="675" height="518" fill="white"/><g fill="none" stroke-miterlimit="10" transform="translate(47,30)"><g class="mark-group role-frame root" role="graphics-object" aria-roledescription="group mark container"><g transform="translate(0,0)"><path class="background" aria-hidden="true" d="M0,0h0v0h0Z"/><g><g class="mark-group role-row-header row_header" role="graphics-object" aria-roledescription="group mark container"><g transform="translate(-1,0)"><path class="background" aria-hidden="true" d="M0,0h0v200h0Z"/><g><g class="mark-group role-axis" role="graphics-symbol" aria-roledescription="axis" aria-label="Y-axis titled 'Y' for a linear scale with values from 0 to 13"><g transform="translate(0.5,0.5)"><path class="background" aria-hidden="true" d="M0,0h0v0h0Z" pointer-events="none"/><g><g class="mark-rule role-axis-tick" pointer-events="none"><line transform="translate(0,200)" x2="-5" y2="0" stroke="#888" stroke-width="1" opacity="1"/><line transform="translate(0,169)" x2="-5" y2="0" stroke="#888" stroke-width="1" opacity="1"/><line transform="translate(0,138)" x2="-5" y2="0" stroke="#888" stroke-width="1" opacity="1"/><line transform="translate(0,108)" x2="-5" y2="0" stroke="#888" stroke-width="1" opacity="1"/><line transform="translate(0,77)" x2="-5" y2="0" stroke="#888" stroke-width="1" opacity="1"/><line transform="translate(0,46)" x2="-5" y2="0" stroke="#888" stroke-width="1" opacity="1"/><line transform="translate(0,15)" x2="-5" y2="0" stroke="#888" stroke-width="1" opacity="1"/></g><g class="mark-text role-axis-label" pointer-events="none"><text text-anchor="end" transform="translate(-7,204)" font-family="sans-serif" font-size="12px" fill="#000" opacity="1">0</text><text text-anchor="end" transform="translate(-7,173.23076923076923)" font-family="sans-serif" font-size="12px" fill="#000" opacity="1">2</text><text text-anchor="end" transform="translate(-7,142.46153846153845)" font-family="sans-serif" font-size="12px" fill="#000" opacity="1">4</text><text text-anchor="end" transform="translate(-7,111.6923076923077)" font-family="sans-serif" font-size="12px" fill="#000" opacity="1">6</text><text text-anchor="end" transform="translate(-7,80.92307692307692)" font-family="sans-serif" font-size="12px" fill="#000" opacity="1">8</text><text text-anchor="end" transform="translate(-7,50.153846153846146)" font-family="sans-serif" font-size="12px" fill="#000" opacity="1">10</text><text text-anchor="end" transform="translate(-7,19.384615384615373)" font-family="sans-serif" font-size="12px" fill="#000" opacity="1">12</text></g><g class="mark-rule role-axis-domain" pointer-events="none"><line transform="translate(0,200)" x2="0" y2="-200" stroke="#888" stroke-width="1" opacity="1"/></g><g class="mark-text role-axis-title" pointer-events="none"><text text-anchor="middle" transform="translate(-27,100) rotate(-90) translate(0,-3)" font-family="sans-serif" font-size="14px" font-weight="bold" fill="#000" opacity="1">Y</text></g></g><path class="foreground" aria-hidden="true" d="" pointer-events="none" display="none"/></g></g></g><path class="foreground" aria-hidden="true" d="" display="none"/></g><g transform="translate(-1,246)"><path class="background" aria-hidden="true" d="M0,0h0v200h0Z"/><g><g class="mark-group role-axis" role="graphics-symbol" aria-roledescription="axis" aria-label="Y-axis titled 'Y' for a linear scale with values from 0 to 13"><g transform="translate(0.5,0.5)"><path class="background" aria-hidden="true" d="M0,0h0v0h0Z" pointer-events="none"/><g><g class="mark-rule role-axis-tick" pointer-events="none"><line transform="translate(0,200)" x2="-5" y2="0" stroke="#888" stroke-width="1" opacity="1"/><line transform="translate(0,169)" x2="-5" y2="0" stroke="#888" stroke-width="1" opacity="1"/><line transform="translate(0,138)" x2="-5" y2="0" stroke="#888" stroke-width="1" opacity="1"/><line transform="translate(0,108)" x2="-5" y2="0" stroke="#888" stroke-width="1" opacity="1"/><line transform="translate(0,77)" x2="-5" y2="0" stroke="#888" stroke-width="1" opacity="1"/><line transform="translate(0,46)" x2="-5" y2="0" stroke="#888" stroke-width="1" opacity="1"/><line transform="translate(0,15)" x2="-5" y2="0" stroke="#888" stroke-width="1" opacity="1"/></g><g class="mark-text role-axis-label" pointer-events="none"><text text-anchor="end" transform="translate(-7,204)" font-family="sans-serif" font-size="12px" fill="#000" opacity="1">0</text><text text-anchor="end" transform="translate(-7,173.23076923076923)" font-family="sans-serif" font-size="12px" fill="#000" opacity="1">2</text><text text-anchor="end" transform="translate(-7,142.46153846153845)" font-family="sans-serif" font-size="12px" fill="#000" opacity="1">4</text><text text-anchor="end" transform="translate(-7,111.6923076923077)" font-family="sans-serif" font-size="12px" fill="#000" opacity="1">6</text><text text-anchor="end" transform="translate(-7,80.92307692307692)" font-family="sans-serif" font-size="12px" fill="#000" opacity="1">8</text><text text-anchor="end" transform="translate(-7,50.153846153846146)" font-family="sans-serif" font-size="12px" fill="#000" opacity="1">10</text><text text-anchor="end" transform="translate(-7,19.384615384615373)" font-family="sans-serif" font-size="12px" fill="#000" opacity="1">12</text></g><g class="mark-rule role-axis-domain" pointer-events="none"><line transform="translate(0,200)" x2="0" y2="-200" stroke="#888" stroke-width="1" opacity="1"/></g><g class="mark-text role-axis-title" pointer-events="none"><text text-anchor="middle" transform="translate(-27,100) rotate(-90) translate(0,-3)" font-family="sans-serif" font-size="14px" font-weight="bold" fill="#000" opacity="1">Y</text></g></g><path class="foreground" aria-hidden="true" d="" pointer-events="none" display="none"/></g></g></g><path class="foreground" aria-hidden="true" d="" display="none"/></g></g><g class="mark-group role-column-footer column_footer" role="graphics-object" aria-roledescription="group mark container"><g transform="translate(0,447)"><path class="background" aria-hidden="true" d="M0,0h300v0h-300Z"/><g><g class="mark-group role-axis" role="graphics-symbol" aria-roledescription="axis" aria-label="X-axis titled 'X' for a linear scale with values from 0 to 20"><g transform="translate(0.5,0.5)"><path class="background" aria-hidden="true" d="M0,0h0v0h0Z" pointer-events="none"/><g><g class="mark-rule role-axis-tick" pointer-events="none"><line transform="translate(0,0)" x2="0" y2="5" stroke="#888" stroke-width="1" opacity="1"/><line transform="translate(30,0)" x2="0" y2="5" stroke="#888" stroke-width="1" opacity="1"/><line transform="translate(60,0)" x2="0" y2="5" stroke="#888" stroke-width="1" opacity="1"/><line transform="translate(90,0)" x2="0" y2="5" stroke="#888" stroke-width="1" opacity="1"/><line transform="translate(120,0)" x2="0" y2="5" stroke="#888" stroke-width="1" opacity="1"/><line transform="translate(150,0)" x2="0" y2="5" stroke="#888" stroke-width="1" opacity="1"/><line transform="translate(180,0)" x2="0" y2="5" stroke="#888" stroke-width="1" opacity="1"/><line transform="translate(210,0)" x2="0" y2="5" stroke="#888" stroke-width="1" opacity="1"/><line transform="translate(240,0)" x2="0" y2="5" stroke="#888" stroke-width="1" opacity="1"/><line transform="translate(270,0)" x2="0" y2="5" stroke="#888" stroke-width="1" opacity="1"/><line transform="translate(300,0)" x2="0" y2="5" stroke="#888" stroke-width="1" opacity="1"/></g><g class="mark-text role-axis-label" pointer-events="none"><text text-anchor="start" transform="translate(0,16)" font-family="sans-serif" font-size="12px" fill="#000" opacity="1">0</text><text text-anchor="middle" transform="translate(30,16)" font-family="sans-serif" font-size="12px" fill="#000" opacity="1">2</text><text text-anchor="middle" transform="translate(60,16)" font-family="sans-serif" font-size="12px" fill="#000" opacity="1">4</text><text text-anchor="middle" transform="translate(90,16)" font-family="sans-serif" font-size="12px" fill="#000" opacity="1">6</text><text text-anchor="middle" transform="translate(120,16)" font-family="sans-serif" font-size="12px" fill="#000" opacity="1">8</text><text text-anchor="middle" transform="translate(150,16)" font-family="sans-serif" font-size="12px" fill="#000" opacity="1">10</text><text text-anchor="middle" transform="translate(180,16)" font-family="sans-serif" font-size="12px" fill="#000" opacity="1">12</text><text text-anchor="middle" transform="translate(210,16)" font-family="sans-serif" font-size="12px" fill="#000" opacity="1">14</text><text text-anchor="middle" transform="translate(240,16)" font-family="sans-serif" font-size="12px" fill="#000" opacity="1">16</text><text text-anchor="middle" transform="translate(270,16)" font-family="sans-serif" font-size="12px" fill="#000" opacity="1">18</text><text text-anchor="end" transform="translate(300,16)" font-family="sans-serif" font-size="12px" fill="#000" opacity="1">20</text></g><g class="mark-rule role-axis-domain" pointer-events="none"><line transform="translate(0,0)" x2="300" y2="0" stroke="#888" stroke-width="1" opacity="1"/></g><g class="mark-text role-axis-title" pointer-events="none"><text text-anchor="middle" transform="translate(150,33)" font-family="sans-serif" font-size="14px" font-weight="bold" fill="#000" opacity="1">X</text></g></g><path class="foreground" aria-hidden="true" d="" pointer-events="none" display="none"/></g></g></g><path class="foreground" aria-hidden="true" d="" display="none"/></g><g transform="translate(322,447)"><path class="background" aria-hidden="true" d="M0,0h300v0h-300Z"/><g><g class="mark-group role-axis" role="graphics-symbol" aria-roledescription="axis" aria-label="X-axis titled 'X' for a linear scale with values from 0 to 20"><g transform="translate(0.5,0.5)"><path class="background" aria-hidden="true" d="M0,0h0v0h0Z" pointer-events="none"/><g><g class="mark-rule role-axis-tick" pointer-events="none"><line transform="translate(0,0)" x2="0" y2="5" stroke="#888" stroke-width="1" opacity="1"/><line transform="translate(30,0)" x2="0" y2="5" stroke="#888" stroke-width="1" opacity="1"/><line transform="translate(60,0)" x2="0" y2="5" stroke="#888" stroke-width="1" opacity="1"/><line transform="translate(90,0)" x2="0" y2="5" stroke="#888" stroke-width="1" opacity="1"/><line transform="translate(120,0)" x2="0" y2="5" stroke="#888" stroke-width="1" opacity="1"/><line transform="translate(150,0)" x2="0" y2="5" stroke="#888" stroke-width="1" opacity="1"/><line transform="translate(180,0)" x2="0" y2="5" stroke="#888" stroke-width="1" opacity="1"/><line transform="translate(210,0)" x2="0" y2="5" stroke="#888" stroke-width="1" opacity="1"/><line transform="translate(240,0)" x2="0" y2="5" stroke="#888" stroke-width="1" opacity="1"/><line transform="translate(270,0)" x2="0" y2="5" stroke="#888" stroke-width="1" opacity="1"/><line transform="translate(300,0)" x2="0" y2="5" stroke="#888" stroke-width="1" opacity="1"/></g><g class="mark-text role-axis-label" pointer-events="none"><text text-anchor="start" transform="translate(0,16)" font-family="sans-serif" font-size="12px" fill="#000" opacity="1">0</text><text text-anchor="middle" transform="translate(30,16)" font-family="sans-serif" font-size="12px" fill="#000" opacity="1">2</text><text text-anchor="middle" transform="translate(60,16)" font-family="sans-serif" font-size="12px" fill="#000" opacity="1">4</text><text text-anchor="middle" transform="translate(90,16)" font-family="sans-serif" font-size="12px" fill="#000" opacity="1">6</text><text text-anchor="middle" transform="translate(120,16)" font-family="sans-serif" font-size="12px" fill="#000" opacity="1">8</text><text text-anchor="middle" transform="translate(150,16)" font-family="sans-serif" font-size="12px" fill="#000" opacity="1">10</text><text text-anchor="middle" transform="translate(180,16)" font-family="sans-serif" font-size="12px" fill="#000" opacity="1">12</text><text text-anchor="middle" transform="translate(210,16)" font-family="sans-serif" font-size="12px" fill="#000" opacity="1">14</text><text text-anchor="middle" transform="translate(240,16)" font-family="sans-serif" font-size="12px" fill="#000" opacity="1">16</text><text text-anchor="middle" transform="translate(270,16)" font-family="sans-serif" font-size="12px" fill="#000" opacity="1">18</text><text text-anchor="end" transform="translate(300,16)" font-family="sans-serif" font-size="12px" fill="#000" opacity="1">20</text></g><g class="mark-rule role-axis-domain" pointer-events="none"><line transform="translate(0,0)" x2="300" y2="0" stroke="#888" stroke-width="1" opacity="1"/></g><g class="mark-text role-axis-title" pointer-events="none"><text text-anchor="middle" transform="translate(150,33)" font-family="sans-serif" font-size="14px" font-weight="bold" fill="#000" opacity="1">X</text></g></g><path class="foreground" aria-hidden="true" d="" pointer-events="none" display="none"/></g></g></g><path class="foreground" aria-hidden="true" d="" display="none"/></g></g><g class="mark-group role-scope cell" role="graphics-object" aria-roledescription="group mark container"><g transform="translate(0,0)"><path class="background" aria-hidden="true" d="M0.5,0.5h300v200h-300Z" stroke="#ddd"/><g><g class="mark-group role-axis" aria-hidden="true"><g transform="translate(0.5,200.5)"><path class="background" aria-hidden="true" d="M0,0h0v0h0Z" pointer-events="none"/><g><g class="mark-rule role-axis-grid" pointer-events="none"><line transform="translate(0,-200)" x2="0" y2="200" stroke="#ddd" stroke-width="1" opacity="1"/><line transform="translate(30,-200)" x2="0" y2="200" stroke="#ddd" stroke-width="1" opacity="1"/><line transform="translate(60,-200)" x2="0" y2="200" stroke="#ddd" stroke-width="1" opacity="1"/><line transform="translate(90,-200)" x2="0" y2="200" stroke="#ddd" stroke-width="1" opacity="1"/><line transform="translate(120,-200)" x2="0" y2="200" stroke="#ddd" stroke-width="1" opacity="1"/><line transform="translate(150,-200)" x2="0" y2="200" stroke="#ddd" stroke-width="1" opacity="1"/><line transform="translate(180,-200)" x2="0" y2="200" stroke="#ddd" stroke-width="1" opacity="1"/><line transform="translate(210,-200)" x2="0" y2="200" stroke="#ddd" stroke-width="1" opacity="1"/><line transform="translate(240,-200)" x2="0" y2="200" stroke="#ddd" stroke-width="1" opacity="1"/><line transform="translate(270,-200)" x2="0" y2="200" stroke="#ddd" stroke-width="1" opacity="1"/><line transform="translate(300,-200)" x2="0" y2="200" stroke="#ddd" stroke-width="1" opacity="1"/></g></g><path class="foreground" aria-hidden="true" d="" pointer-events="none" display="none"/></g></g><g class="mark-group role-axis" aria-hidden="true"><g transform="translate(0.5,0.5)"><path class="background" aria-hidden="true" d="M0,0h0v0h0Z" pointer-events="none"/><g><g class="mark-rule role-axis-grid" pointer-events="none"><line transform="translate(0,200)" x2="300" y2="0" stroke="#ddd" stroke-width="1" opacity="1"/><line transform="translate(0,169)" x2="300" y2="0" stroke="#ddd" stroke-width="1" opacity="1"/><line transform="translate(0,138)" x2="300" y2="0" stroke="#ddd" stroke-width="1" opacity="1"/><line transform="translate(0,108)" x2="300" y2="0" stroke="#ddd" stroke-width="1" opacity="1"/><line transform="translate(0,77)" x2="300" y2="0" stroke="#ddd" stroke-width="1" opacity="1"/><line transform="translate(0,46)" x2="300" y2="0" stroke="#ddd" stroke-width="1" opacity="1"/><line transform="translate(0,15)" x2="300" y2="0" stroke="#ddd" stroke-width="1" opacity="1"/></g></g><path class="foreground" aria-hidden="true" d="" pointer-events="none" display="none"/></g></g><g class="mark-symbol role-mark child_marks" role="graphics-object" aria-roledescription="symbol mark container"><path aria-label="X: 10; Y: 8.04" role="graphics-symbol" aria-roledescription="circle" transform="translate(150,76.30769230769232)" d="M4.47213595499958,0A4.47213595499958,4.47213595499958,0,1,1,-4.47213595499958,0A4.47213595499958,4.47213595499958,0,1,1,4.47213595499958,0" fill="#4c78a8" stroke-width="2" opacity="1"/><path aria-label="X: 8; Y: 6.95" role="graphics-symbol" aria-roledescription="circle" transform="translate(120,93.07692307692308)" d="M4.47213595499958,0A4.47213595499958,4.47213595499958,0,1,1,-4.47213595499958,0A4.47213595499958,4.47213595499958,0,1,1,4.47213595499958,0" fill="#4c78a8" stroke-width="2" opacity="1"/><path aria-label="X: 13; Y: 7.58" role="graphics-symbol" aria-roledescription="circle" transform="translate(195,83.38461538461539)" d="M4.47213595499958,0A4.47213595499958,4.47213595499958,0,1,1,-4.47213595499958,0A4.47213595499958,4.47213595499958,0,1,1,4.47213595499958,0" fill="#4c78a8" stroke-width="2" opacity="1"/><path aria-label="X: 9; Y: 8.81" role="graphics-symbol" aria-roledescription="circle" transform="translate(135,64.46153846153845)" d="M4.47213595499958,0A4.47213595499958,4.47213595499958,0,1,1,-4.47213595499958,0A4.47213595499958,4.47213595499958,0,1,1,4.47213595499958,0" fill="#4c78a8" stroke-width="2" opacity="1"/><path aria-label="X: 11; Y: 8.33" role="graphics-symbol" aria-roledescription="circle" transform="translate(165,71.84615384615385)" d="M4.47213595499958,0A4.47213595499958,4.47213595499958,0,1,1,-4.47213595499958,0A4.47213595499958,4.47213595499958,0,1,1,4.47213595499958,0" fill="#4c78a8" stroke-width="2" opacity="1"/><path aria-label="X: 14; Y: 9.96" role="graphics-symbol" aria-roledescription="circle" transform="translate(210,46.76923076923076)" d="M4.47213595499958,0A4.47213595499958,4.47213595499958,0,1,1,-4.47213595499958,0A4.47213595499958,4.47213595499958,0,1,1,4.47213595499958,0" fill="#4c78a8" stroke-width="2" opacity="1"/><path aria-label="X: 6; Y: 7.24" role="graphics-symbol" aria-roledescription="circle" transform="translate(90,88.61538461538461)" d="M4.47213595499958,0A4.47213595499958,4.47213595499958,0,1,1,-4.47213595499958,0A4.47213595499958,4.47213595499958,0,1,1,4.47213595499958,0" fill="#4c78a8" stroke-width="2" opacity="1"/><path aria-label="X: 4; Y: 4.26" role="graphics-symbol" aria-roledescription="circle" transform="translate(60,134.46153846153845)" d="M4.47213595499958,0A4.47213595499958,4.47213595499958,0,1,1,-4.47213595499958,0A4.47213595499958,4.47213595499958,0,1,1,4.47213595499958,0" fill="#4c78a8" stroke-width="2" opacity="1"/><path aria-label="X: 12; Y: 10.84" role="graphics-symbol" aria-roledescription="circle" transform="translate(180,33.23076923076924)" d="M4.47213595499958,0A4.47213595499958,4.47213595499958,0,1,1,-4.47213595499958,0A4.47213595499958,4.47213595499958,0,1,1,4.47213595499958,0" fill="#4c78a8" stroke-width="2" opacity="1"/><path aria-label="X: 7; Y: 4.81" role="graphics-symbol" aria-roledescription="circle" transform="translate(105,125.99999999999997)" d="M4.47213595499958,0A4.47213595499958,4.47213595499958,0,1,1,-4.47213595499958,0A4.47213595499958,4.47213595499958,0,1,1,4.47213595499958,0" fill="#4c78a8" stroke-width="2" opacity="1"/><path aria-label="X: 5; Y: 5.68" role="graphics-symbol" aria-roledescription="circle" transform="translate(75,112.61538461538461)" d="M4.47213595499958,0A4.47213595499958,4.47213595499958,0,1,1,-4.47213595499958,0A4.47213595499958,4.47213595499958,0,1,1,4.47213595499958,0" fill="#4c78a8" stroke-width="2" opacity="1"/></g><g class="mark-group role-title"><g transform="translate(150,-24)"><path class="background" aria-hidden="true" d="M0,0h0v0h0Z" pointer-events="none"/><g><g class="mark-text role-title-text" role="graphics-symbol" aria-roledescription="title" aria-label="Title text 'A'" pointer-events="none"><text text-anchor="middle" transform="translate(0,11)" font-family="sans-serif" font-size="14px" fill="#000" opacity="1">A</text></g></g><path class="foreground" aria-hidden="true" d="" pointer-events="none" display="none"/></g></g></g><path class="foreground" aria-hidden="true" d="" display="none"/></g><g transform="translate(322,0)"><path class="background" aria-hidden="true" d="M0.5,0.5h300v200h-300Z" stroke="#ddd"/><g><g class="mark-group role-axis" aria-hidden="true"><g transform="translate(0.5,200.5)"><path class="background" aria-hidden="true" d="M0,0h0v0h0Z" pointer-events="none"/><g><g class="mark-rule role-axis-grid" pointer-events="none"><line transform="translate(0,-200)" x2="0" y2="200" stroke="#ddd" stroke-width="1" opacity="1"/><line transform="translate(30,-200)" x2="0" y2="200" stroke="#ddd" stroke-width="1" opacity="1"/><line transform="translate(60,-200)" x2="0" y2="200" stroke="#ddd" stroke-width="1" opacity="1"/><line transform="translate(90,-200)" x2="0" y2="200" stroke="#ddd" stroke-width="1" opacity="1"/><line transform="translate(120,-200)" x2="0" y2="200" stroke="#ddd" stroke-width="1" opacity="1"/><line transform="translate(150,-200)" x2="0" y2="200" stroke="#ddd" stroke-width="1" opacity="1"/><line transform="translate(180,-200)" x2="0" y2="200" stroke="#ddd" stroke-width="1" opacity="1"/><line transform="translate(210,-200)" x2="0" y2="200" stroke="#ddd" stroke-width="1" opacity="1"/><line transform="translate(240,-200)" x2="0" y2="200" stroke="#ddd" stroke-width="1" opacity="1"/><line transform="translate(270,-200)" x2="0" y2="200" stroke="#ddd" stroke-width="1" opacity="1"/><line transform="translate(300,-200)" x2="0" y2="200" stroke="#ddd" stroke-width="1" opacity="1"/></g></g><path class="foreground" aria-hidden="true" d="" pointer-events="none" display="none"/></g></g><g class="mark-group role-axis" aria-hidden="true"><g transform="translate(0.5,0.5)"><path class="background" aria-hidden="true" d="M0,0h0v0h0Z" pointer-events="none"/><g><g class="mark-rule role-axis-grid" pointer-events="none"><line transform="translate(0,200)" x2="300" y2="0" stroke="#ddd" stroke-width="1" opacity="1"/><line transform="translate(0,169)" x2="300" y2="0" stroke="#ddd" stroke-width="1" opacity="1"/><line transform="translate(0,138)" x2="300" y2="0" stroke="#ddd" stroke-width="1" opacity="1"/><line transform="translate(0,108)" x2="300" y2="0" stroke="#ddd" stroke-width="1" opacity="1"/><line transform="translate(0,77)" x2="300" y2="0" stroke="#ddd" stroke-width="1" opacity="1"/><line transform="translate(0,46)" x2="300" y2="0" stroke="#ddd" stroke-width="1" opacity="1"/><line transform="translate(0,15)" x2="300" y2="0" stroke="#ddd" stroke-width="1" opacity="1"/></g></g><path class="foreground" aria-hidden="true" d="" pointer-events="none" display="none"/></g></g><g class="mark-symbol role-mark child_marks" role="graphics-object" aria-roledescription="symbol mark container"><path aria-label="X: 10; Y: 9.14" role="graphics-symbol" aria-roledescription="circle" transform="translate(150,59.38461538461537)" d="M4.47213595499958,0A4.47213595499958,4.47213595499958,0,1,1,-4.47213595499958,0A4.47213595499958,4.47213595499958,0,1,1,4.47213595499958,0" fill="#4c78a8" stroke-width="2" opacity="1"/><path aria-label="X: 8; Y: 8.14" role="graphics-symbol" aria-roledescription="circle" transform="translate(120,74.76923076923076)" d="M4.47213595499958,0A4.47213595499958,4.47213595499958,0,1,1,-4.47213595499958,0A4.47213595499958,4.47213595499958,0,1,1,4.47213595499958,0" fill="#4c78a8" stroke-width="2" opacity="1"/><path aria-label="X: 13; Y: 8.74" role="graphics-symbol" aria-roledescription="circle" transform="translate(195,65.53846153846155)" d="M4.47213595499958,0A4.47213595499958,4.47213595499958,0,1,1,-4.47213595499958,0A4.47213595499958,4.47213595499958,0,1,1,4.47213595499958,0" fill="#4c78a8" stroke-width="2" opacity="1"/><path aria-label="X: 9; Y: 8.77" role="graphics-symbol" aria-roledescription="circle" transform="translate(135,65.07692307692308)" d="M4.47213595499958,0A4.47213595499958,4.47213595499958,0,1,1,-4.47213595499958,0A4.47213595499958,4.47213595499958,0,1,1,4.47213595499958,0" fill="#4c78a8" stroke-width="2" opacity="1"/><path aria-label="X: 11; Y: 9.26" role="graphics-symbol" aria-roledescription="circle" transform="translate(165,57.53846153846154)" d="M4.47213595499958,0A4.47213595499958,4.47213595499958,0,1,1,-4.47213595499958,0A4.47213595499958,4.47213595499958,0,1,1,4.47213595499958,0" fill="#4c78a8" stroke-width="2" opacity="1"/><path aria-label="X: 14; Y: 8.1" role="graphics-symbol" aria-roledescription="circle" transform="translate(210,75.38461538461539)" d="M4.47213595499958,0A4.47213595499958,4.47213595499958,0,1,1,-4.47213595499958,0A4.47213595499958,4.47213595499958,0,1,1,4.47213595499958,0" fill="#4c78a8" stroke-width="2" opacity="1"/><path aria-label="X: 6; Y: 6.13" role="graphics-symbol" aria-roledescription="circle" transform="translate(90,105.69230769230771)" d="M4.47213595499958,0A4.47213595499958,4.47213595499958,0,1,1,-4.47213595499958,0A4.47213595499958,4.47213595499958,0,1,1,4.47213595499958,0" fill="#4c78a8" stroke-width="2" opacity="1"/><path aria-label="X: 4; Y: 3.1" role="graphics-symbol" aria-roledescription="circle" transform="translate(60,152.3076923076923)" d="M4.47213595499958,0A4.47213595499958,4.47213595499958,0,1,1,-4.47213595499958,0A4.47213595499958,4.47213595499958,0,1,1,4.47213595499958,0" fill="#4c78a8" stroke-width="2" opacity="1"/><path aria-label="X: 12; Y: 9.13" role="graphics-symbol" aria-roledescription="circle" transform="translate(180,59.53846153846152)" d="M4.47213595499958,0A4.47213595499958,4.47213595499958,0,1,1,-4.47213595499958,0A4.47213595499958,4.47213595499958,0,1,1,4.47213595499958,0" fill="#4c78a8" stroke-width="2" opacity="1"/><path aria-label="X: 7; Y: 7.26" role="graphics-symbol" aria-roledescription="circle" transform="translate(105,88.3076923076923)" d="M4.47213595499958,0A4.47213595499958,4.47213595499958,0,1,1,-4.47213595499958,0A4.47213595499958,4.47213595499958,0,1,1,4.47213595499958,0" fill="#4c78a8" stroke-width="2" opacity="1"/><path aria-label="X: 5; Y: 4.74" role="graphics-symbol" aria-roledescription="circle" transform="translate(75,127.0769230769231)" d="M4.47213595499958,0A4.47213595499958,4.47213595499958,0,1,1,-4.47213595499958,0A4.47213595499958,4.47213595499958,0,1,1,4.47213595499958,0" fill="#4c78a8" stroke-width="2" opacity="1"/></g><g class="mark-group role-title"><g transform="translate(150,-24)"><path class="background" aria-hidden="true" d="M0,0h0v0h0Z" pointer-events="none"/><g><g class="mark-text role-title-text" role="graphics-symbol" aria-roledescription="title" aria-label="Title text 'B'" pointer-events="none"><text text-anchor="middle" transform="translate(0,11)" font-family="sans-serif" font-size="14px" fill="#000" opacity="1">B</text></g></g><path class="foreground" aria-hidden="true" d="" pointer-events="none" display="none"/></g></g></g><path class="foreground" aria-hidden="true" d="" display="none"/></g><g transform="translate(0,246)"><path class="background" aria-hidden="true" d="M0.5,0.5h300v200h-300Z" stroke="#ddd"/><g><g class="mark-group role-axis" aria-hidden="true"><g transform="translate(0.5,200.5)"><path class="background" aria-hidden="true" d="M0,0h0v0h0Z" pointer-events="none"/><g><g class="mark-rule role-axis-grid" pointer-events="none"><line transform="translate(0,-200)" x2="0" y2="200" stroke="#ddd" stroke-width="1" opacity="1"/><line transform="translate(30,-200)" x2="0" y2="200" stroke="#ddd" stroke-width="1" opacity="1"/><line transform="translate(60,-200)" x2="0" y2="200" stroke="#ddd" stroke-width="1" opacity="1"/><line transform="translate(90,-200)" x2="0" y2="200" stroke="#ddd" stroke-width="1" opacity="1"/><line transform="translate(120,-200)" x2="0" y2="200" stroke="#ddd" stroke-width="1" opacity="1"/><line transform="translate(150,-200)" x2="0" y2="200" stroke="#ddd" stroke-width="1" opacity="1"/><line transform="translate(180,-200)" x2="0" y2="200" stroke="#ddd" stroke-width="1" opacity="1"/><line transform="translate(210,-200)" x2="0" y2="200" stroke="#ddd" stroke-width="1" opacity="1"/><line transform="translate(240,-200)" x2="0" y2="200" stroke="#ddd" stroke-width="1" opacity="1"/><line transform="translate(270,-200)" x2="0" y2="200" stroke="#ddd" stroke-width="1" opacity="1"/><line transform="translate(300,-200)" x2="0" y2="200" stroke="#ddd" stroke-width="1" opacity="1"/></g></g><path class="foreground" aria-hidden="true" d="" pointer-events="none" display="none"/></g></g><g class="mark-group role-axis" aria-hidden="true"><g transform="translate(0.5,0.5)"><path class="background" aria-hidden="true" d="M0,0h0v0h0Z" pointer-events="none"/><g><g class="mark-rule role-axis-grid" pointer-events="none"><line transform="translate(0,200)" x2="300" y2="0" stroke="#ddd" stroke-width="1" opacity="1"/><line transform="translate(0,169)" x2="300" y2="0" stroke="#ddd" stroke-width="1" opacity="1"/><line transform="translate(0,138)" x2="300" y2="0" stroke="#ddd" stroke-width="1" opacity="1"/><line transform="translate(0,108)" x2="300" y2="0" stroke="#ddd" stroke-width="1" opacity="1"/><line transform="translate(0,77)" x2="300" y2="0" stroke="#ddd" stroke-width="1" opacity="1"/><line transform="translate(0,46)" x2="300" y2="0" stroke="#ddd" stroke-width="1" opacity="1"/><line transform="translate(0,15)" x2="300" y2="0" stroke="#ddd" stroke-width="1" opacity="1"/></g></g><path class="foreground" aria-hidden="true" d="" pointer-events="none" display="none"/></g></g><g class="mark-symbol role-mark child_marks" role="graphics-object" aria-roledescription="symbol mark container"><path aria-label="X: 10; Y: 7.46" role="graphics-symbol" aria-roledescription="circle" transform="translate(150,85.23076923076923)" d="M4.47213595499958,0A4.47213595499958,4.47213595499958,0,1,1,-4.47213595499958,0A4.47213595499958,4.47213595499958,0,1,1,4.47213595499958,0" fill="#4c78a8" stroke-width="2" opacity="1"/><path aria-label="X: 8; Y: 6.77" role="graphics-symbol" aria-roledescription="circle" transform="translate(120,95.84615384615385)" d="M4.47213595499958,0A4.47213595499958,4.47213595499958,0,1,1,-4.47213595499958,0A4.47213595499958,4.47213595499958,0,1,1,4.47213595499958,0" fill="#4c78a8" stroke-width="2" opacity="1"/><path aria-label="X: 13; Y: 8.5" role="graphics-symbol" aria-roledescription="circle" transform="translate(195,69.23076923076923)" d="M4.47213595499958,0A4.47213595499958,4.47213595499958,0,1,1,-4.47213595499958,0A4.47213595499958,4.47213595499958,0,1,1,4.47213595499958,0" fill="#4c78a8" stroke-width="2" opacity="1"/><path aria-label="X: 9; Y: 7.11" role="graphics-symbol" aria-roledescription="circle" transform="translate(135,90.61538461538461)" d="M4.47213595499958,0A4.47213595499958,4.47213595499958,0,1,1,-4.47213595499958,0A4.47213595499958,4.47213595499958,0,1,1,4.47213595499958,0" fill="#4c78a8" stroke-width="2" opacity="1"/><path aria-label="X: 11; Y: 7.81" role="graphics-symbol" aria-roledescription="circle" transform="translate(165,79.84615384615384)" d="M4.47213595499958,0A4.47213595499958,4.47213595499958,0,1,1,-4.47213595499958,0A4.47213595499958,4.47213595499958,0,1,1,4.47213595499958,0" fill="#4c78a8" stroke-width="2" opacity="1"/><path aria-label="X: 14; Y: 8.84" role="graphics-symbol" aria-roledescription="circle" transform="translate(210,64.00000000000001)" d="M4.47213595499958,0A4.47213595499958,4.47213595499958,0,1,1,-4.47213595499958,0A4.47213595499958,4.47213595499958,0,1,1,4.47213595499958,0" fill="#4c78a8" stroke-width="2" opacity="1"/><path aria-label="X: 6; Y: 6.08" role="graphics-symbol" aria-roledescription="circle" transform="translate(90,106.46153846153848)" d="M4.47213595499958,0A4.47213595499958,4.47213595499958,0,1,1,-4.47213595499958,0A4.47213595499958,4.47213595499958,0,1,1,4.47213595499958,0" fill="#4c78a8" stroke-width="2" opacity="1"/><path aria-label="X: 4; Y: 5.39" role="graphics-symbol" aria-roledescription="circle" transform="translate(60,117.07692307692308)" d="M4.47213595499958,0A4.47213595499958,4.47213595499958,0,1,1,-4.47213595499958,0A4.47213595499958,4.47213595499958,0,1,1,4.47213595499958,0" fill="#4c78a8" stroke-width="2" opacity="1"/><path aria-label="X: 12; Y: 8.15" role="graphics-symbol" aria-roledescription="circle" transform="translate(180,74.61538461538461)" d="M4.47213595499958,0A4.47213595499958,4.47213595499958,0,1,1,-4.47213595499958,0A4.47213595499958,4.47213595499958,0,1,1,4.47213595499958,0" fill="#4c78a8" stroke-width="2" opacity="1"/><path aria-label="X: 7; Y: 6.42" role="graphics-symbol" aria-roledescription="circle" transform="translate(105,101.23076923076924)" d="M4.47213595499958,0A4.47213595499958,4.47213595499958,0,1,1,-4.47213595499958,0A4.47213595499958,4.47213595499958,0,1,1,4.47213595499958,0" fill="#4c78a8" stroke-width="2" opacity="1"/><path aria-label="X: 5; Y: 5.73" role="graphics-symbol" aria-roledescription="circle" transform="translate(75,111.84615384615384)" d="M4.47213595499958,0A4.47213595499958,4.47213595499958,0,1,1,-4.47213595499958,0A4.47213595499958,4.47213595499958,0,1,1,4.47213595499958,0" fill="#4c78a8" stroke-width="2" opacity="1"/></g><g class="mark-group role-title"><g transform="translate(150,-24)"><path class="background" aria-hidden="true" d="M0,0h0v0h0Z" pointer-events="none"/><g><g class="mark-text role-title-text" role="graphics-symbol" aria-roledescription="title" aria-label="Title text 'C'" pointer-events="none"><text text-anchor="middle" transform="translate(0,11)" font-family="sans-serif" font-size="14px" fill="#000" opacity="1">C</text></g></g><path class="foreground" aria-hidden="true" d="" pointer-events="none" display="none"/></g></g></g><path class="foreground" aria-hidden="true" d="" display="none"/></g><g transform="translate(322,246)"><path class="background" aria-hidden="true" d="M0.5,0.5h300v200h-300Z" stroke="#ddd"/><g><g class="mark-group role-axis" aria-hidden="true"><g transform="translate(0.5,200.5)"><path class="background" aria-hidden="true" d="M0,0h0v0h0Z" pointer-events="none"/><g><g class="mark-rule role-axis-grid" pointer-events="none"><line transform="translate(0,-200)" x2="0" y2="200" stroke="#ddd" stroke-width="1" opacity="1"/><line transform="translate(30,-200)" x2="0" y2="200" stroke="#ddd" stroke-width="1" opacity="1"/><line transform="translate(60,-200)" x2="0" y2="200" stroke="#ddd" stroke-width="1" opacity="1"/><line transform="translate(90,-200)" x2="0" y2="200" stroke="#ddd" stroke-width="1" opacity="1"/><line transform="translate(120,-200)" x2="0" y2="200" stroke="#ddd" stroke-width="1" opacity="1"/><line transform="translate(150,-200)" x2="0" y2="200" stroke="#ddd" stroke-width="1" opacity="1"/><line transform="translate(180,-200)" x2="0" y2="200" stroke="#ddd" stroke-width="1" opacity="1"/><line transform="translate(210,-200)" x2="0" y2="200" stroke="#ddd" stroke-width="1" opacity="1"/><line transform="translate(240,-200)" x2="0" y2="200" stroke="#ddd" stroke-width="1" opacity="1"/><line transform="translate(270,-200)" x2="0" y2="200" stroke="#ddd" stroke-width="1" opacity="1"/><line transform="translate(300,-200)" x2="0" y2="200" stroke="#ddd" stroke-width="1" opacity="1"/></g></g><path class="foreground" aria-hidden="true" d="" pointer-events="none" display="none"/></g></g><g class="mark-group role-axis" aria-hidden="true"><g transform="translate(0.5,0.5)"><path class="background" aria-hidden="true" d="M0,0h0v0h0Z" pointer-events="none"/><g><g class="mark-rule role-axis-grid" pointer-events="none"><line transform="translate(0,200)" x2="300" y2="0" stroke="#ddd" stroke-width="1" opacity="1"/><line transform="translate(0,169)" x2="300" y2="0" stroke="#ddd" stroke-width="1" opacity="1"/><line transform="translate(0,138)" x2="300" y2="0" stroke="#ddd" stroke-width="1" opacity="1"/><line transform="translate(0,108)" x2="300" y2="0" stroke="#ddd" stroke-width="1" opacity="1"/><line transform="translate(0,77)" x2="300" y2="0" stroke="#ddd" stroke-width="1" opacity="1"/><line transform="translate(0,46)" x2="300" y2="0" stroke="#ddd" stroke-width="1" opacity="1"/><line transform="translate(0,15)" x2="300" y2="0" stroke="#ddd" stroke-width="1" opacity="1"/></g></g><path class="foreground" aria-hidden="true" d="" pointer-events="none" display="none"/></g></g><g class="mark-symbol role-mark child_marks" role="graphics-object" aria-roledescription="symbol mark container"><path aria-label="X: 8; Y: 6.58" role="graphics-symbol" aria-roledescription="circle" transform="translate(120,98.76923076923076)" d="M4.47213595499958,0A4.47213595499958,4.47213595499958,0,1,1,-4.47213595499958,0A4.47213595499958,4.47213595499958,0,1,1,4.47213595499958,0" fill="#4c78a8" stroke-width="2" opacity="1"/><path aria-label="X: 8; Y: 5.76" role="graphics-symbol" aria-roledescription="circle" transform="translate(120,111.38461538461539)" d="M4.47213595499958,0A4.47213595499958,4.47213595499958,0,1,1,-4.47213595499958,0A4.47213595499958,4.47213595499958,0,1,1,4.47213595499958,0" fill="#4c78a8" stroke-width="2" opacity="1"/><path aria-label="X: 8; Y: 7.71" role="graphics-symbol" aria-roledescription="circle" transform="translate(120,81.38461538461539)" d="M4.47213595499958,0A4.47213595499958,4.47213595499958,0,1,1,-4.47213595499958,0A4.47213595499958,4.47213595499958,0,1,1,4.47213595499958,0" fill="#4c78a8" stroke-width="2" opacity="1"/><path aria-label="X: 8; Y: 8.84" role="graphics-symbol" aria-roledescription="circle" transform="translate(120,64.00000000000001)" d="M4.47213595499958,0A4.47213595499958,4.47213595499958,0,1,1,-4.47213595499958,0A4.47213595499958,4.47213595499958,0,1,1,4.47213595499958,0" fill="#4c78a8" stroke-width="2" opacity="1"/><path aria-label="X: 8; Y: 8.47" role="graphics-symbol" aria-roledescription="circle" transform="translate(120,69.69230769230768)" d="M4.47213595499958,0A4.47213595499958,4.47213595499958,0,1,1,-4.47213595499958,0A4.47213595499958,4.47213595499958,0,1,1,4.47213595499958,0" fill="#4c78a8" stroke-width="2" opacity="1"/><path aria-label="X: 8; Y: 7.04" role="graphics-symbol" aria-roledescription="circle" transform="translate(120,91.6923076923077)" d="M4.47213595499958,0A4.47213595499958,4.47213595499958,0,1,1,-4.47213595499958,0A4.47213595499958,4.47213595499958,0,1,1,4.47213595499958,0" fill="#4c78a8" stroke-width="2" opacity="1"/><path aria-label="X: 8; Y: 5.25" role="graphics-symbol" aria-roledescription="circle" transform="translate(120,119.23076923076923)" d="M4.47213595499958,0A4.47213595499958,4.47213595499958,0,1,1,-4.47213595499958,0A4.47213595499958,4.47213595499958,0,1,1,4.47213595499958,0" fill="#4c78a8" stroke-width="2" opacity="1"/><path aria-label="X: 19; Y: 12.5" role="graphics-symbol" aria-roledescription="circle" transform="translate(285,7.692307692307687)" d="M4.47213595499958,0A4.47213595499958,4.47213595499958,0,1,1,-4.47213595499958,0A4.47213595499958,4.47213595499958,0,1,1,4.47213595499958,0" fill="#4c78a8" stroke-width="2" opacity="1"/><path aria-label="X: 8; Y: 5.56" role="graphics-symbol" aria-roledescription="circle" transform="translate(120,114.46153846153845)" d="M4.47213595499958,0A4.47213595499958,4.47213595499958,0,1,1,-4.47213595499958,0A4.47213595499958,4.47213595499958,0,1,1,4.47213595499958,0" fill="#4c78a8" stroke-width="2" opacity="1"/><path aria-label="X: 8; Y: 7.91" role="graphics-symbol" aria-roledescription="circle" transform="translate(120,78.3076923076923)" d="M4.47213595499958,0A4.47213595499958,4.47213595499958,0,1,1,-4.47213595499958,0A4.47213595499958,4.47213595499958,0,1,1,4.47213595499958,0" fill="#4c78a8" stroke-width="2" opacity="1"/><path aria-label="X: 8; Y: 6.89" role="graphics-symbol" aria-roledescription="circle" transform="translate(120,94)" d="M4.47213595499958,0A4.47213595499958,4.47213595499958,0,1,1,-4.47213595499958,0A4.47213595499958,4.47213595499958,0,1,1,4.47213595499958,0" fill="#4c78a8" stroke-width="2" opacity="1"/></g><g class="mark-group role-title"><g transform="translate(150,-24)"><path class="background" aria-hidden="true" d="M0,0h0v0h0Z" pointer-events="none"/><g><g class="mark-text role-title-text" role="graphics-symbol" aria-roledescription="title" aria-label="Title text 'D'" pointer-events="none"><text text-anchor="middle" transform="translate(0,11)" font-family="sans-serif" font-size="14px" fill="#000" opacity="1">D</text></g></g><path class="foreground" aria-hidden="true" d="" pointer-events="none" display="none"/></g></g></g><path class="foreground" aria-hidden="true" d="" display="none"/></g></g></g><path class="foreground" aria-hidden="true" d="" display="none"/></g></g></g></svg>