<svg xmlns="http://www.w3.org/2000/svg" xmlns:xlink="http://www.w3.org/1999/xlink" version="1.1" class="marks" width="507" height="219" viewBox="0 0 507 219"><rect width="507" height="219" fill="white"/><g fill="none" stroke-miterlimit="10" transform="translate(101,22)"><g class="mark-group role-frame root" role="graphics-object" aria-roledescription="group mark container"><g transform="translate(0,0)"><path class="background" aria-hidden="true" d="M0.5,0.5h400v160h-400Z" stroke="#ddd"/><g><g class="mark-group role-axis" role="graphics-symbol" aria-roledescription="axis" aria-label="X-axis for a linear scale with values from 0.0 to 0.6"><g transform="translate(0.5,160.5)"><path class="background" aria-hidden="true" d="M0,0h0v0h0Z" pointer-events="none"/><g><g class="mark-rule role-axis-grid" pointer-events="none"><line transform="translate(0,0)" x2="0" y2="-160" stroke="#ddd" stroke-width="1" opacity="1"/><line transform="translate(36,0)" x2="0" y2="-160" stroke="#ddd" stroke-width="1" opacity="1"/><line transform="translate(73,0)" x2="0" y2="-160" stroke="#ddd" stroke-width="1" opacity="1"/><line transform="translate(109,0)" x2="0" y2="-160" stroke="#ddd" stroke-width="1" opacity="1"/><line transform="translate(145,0)" x2="0" y2="-160" stroke="#ddd" stroke-width="1" opacity="1"/><line transform="translate(182,0)" x2="0" y2="-160" stroke="#ddd" stroke-width="1" opacity="1"/><line transform="translate(218,0)" x2="0" y2="-160" stroke="#ddd" stroke-width="1" opacity="1"/><line transform="translate(255,0)" x2="0" y2="-160" stroke="#ddd" stroke-width="1" opacity="1"/><line transform="translate(291,0)" x2="0" y2="-160" stroke="#ddd" stroke-width="1" opacity="1"/><line transform="translate(327,0)" x2="0" y2="-160" stroke="#ddd" stroke-width="1" opacity="1"/><line transform="translate(364,0)" x2="0" y2="-160" stroke="#ddd" stroke-width="1" opacity="1"/><line transform="translate(400,0)" x2="0" y2="-160" stroke="#ddd" stroke-width="1" opacity="1"/></g></g><path class="foreground" aria-hidden="true" d="" pointer-events="none" display="none"/></g></g><g class="mark-group role-axis" role="graphics-symbol" aria-roledescription="axis" aria-label="X-axis titled 'Percentage of bookings' for a linear scale with values from 0% to 55%"><g transform="translate(0.5,160.5)"><path class="background" aria-hidden="true" d="M0,0h0v0h0Z" pointer-events="none"/><g><g class="mark-rule role-axis-tick" pointer-events="none"><line transform="translate(0,0)" x2="0" y2="5" stroke="#888" stroke-width="1" opacity="1"/><line transform="translate(36,0)" x2="0" y2="5" stroke="#888" stroke-width="1" opacity="1"/><line transform="translate(73,0)" x2="0" y2="5" stroke="#888" stroke-width="1" opacity="1"/><line transform="translate(109,0)" x2="0" y2="5" stroke="#888" stroke-width="1" opacity="1"/><line transform="translate(145,0)" x2="0" y2="5" stroke="#888" stroke-width="1" opacity="1"/><line transform="translate(182,0)" x2="0" y2="5" stroke="#888" stroke-width="1" opacity="1"/><line transform="translate(218,0)" x2="0" y2="5" stroke="#888" stroke-width="1" opacity="1"/><line transform="translate(255,0)" x2="0" y2="5" stroke="#888" stroke-width="1" opacity="1"/><line transform="translate(291,0)" x2="0" y2="5" stroke="#888" stroke-width="1" opacity="1"/><line transform="translate(327,0)" x2="0" y2="5" stroke="#888" stroke-width="1" opacity="1"/><line transform="translate(364,0)" x2="0" y2="5" stroke="#888" stroke-width="1" opacity="1"/><line transform="translate(400,0)" x2="0" y2="5" stroke="#888" stroke-width="1" opacity="1"/></g><g class="mark-text role-axis-label" pointer-events="none"><text text-anchor="start" transform="translate(0,15)" font-family="sans-serif" font-size="10px" fill="#000" opacity="1">0%</text><text text-anchor="middle" transform="translate(36.36363636363637,15)" font-family="sans-serif" font-size="10px" fill="#000" opacity="1">5%</text><text text-anchor="middle" transform="translate(72.72727272727273,15)" font-family="sans-serif" font-size="10px" fill="#000" opacity="1">10%</text><text text-anchor="middle" transform="translate(109.09090909090908,15)" font-family="sans-serif" font-size="10px" fill="#000" opacity="1">15%</text><text text-anchor="middle" transform="translate(145.45454545454547,15)" font-family="sans-serif" font-size="10px" fill="#000" opacity="1">20%</text><text text-anchor="middle" transform="translate(181.8181818181818,15)" font-family="sans-serif" font-size="10px" fill="#000" opacity="1">25%</text><text text-anchor="middle" transform="translate(218.18181818181816,15)" font-family="sans-serif" font-size="10px" fill="#000" opacity="1">30%</text><text text-anchor="middle" transform="translate(254.5454545454545,15)" font-family="sans-serif" font-size="10px" fill="#000" opacity="1">35%</text><text text-anchor="middle" transform="translate(290.90909090909093,15)" font-family="sans-serif" font-size="10px" fill="#000" opacity="1">40%</text><text text-anchor="middle" transform="translate(327.27272727272725,15)" font-family="sans-serif" font-size="10px" fill="#000" opacity="1">45%</text><text text-anchor="middle" transform="translate(363.6363636363636,15)" font-family="sans-serif" font-size="10px" fill="#000" opacity="1">50%</text><text text-anchor="end" transform="translate(400,15)" font-family="sans-serif" font-size="10px" fill="#000" opacity="1">55%</text></g><g class="mark-rule role-axis-domain" pointer-events="none"><line transform="translate(0,0)" x2="400" y2="0" stroke="#888" stroke-width="1" opacity="1"/></g><g class="mark-text role-axis-title" pointer-events="none"><text text-anchor="middle" transform="translate(200,30)" font-family="sans-serif" font-size="11px" font-weight="bold" fill="#000" opacity="1">Percentage of bookings</text></g></g><path class="foreground" aria-hidden="true" d="" pointer-events="none" display="none"/></g></g><g class="mark-group role-axis" role="graphics-symbol" aria-roledescription="axis" aria-label="Y-axis for a discrete scale with 8 values: Undefined, Aviation, Complementary, Corporate, Direct, ending with Online Travel Agent"><g transform="translate(0.5,0.5)"><path class="background" aria-hidden="true" d="M0,0h0v0h0Z" pointer-events="none"/><g><g class="mark-rule role-axis-tick" pointer-events="none"><line transform="translate(0,10)" x2="-5" y2="0" stroke="#888" stroke-width="1" opacity="1"/><line transform="translate(0,30)" x2="-5" y2="0" stroke="#888" stroke-width="1" opacity="1"/><line transform="translate(0,50)" x2="-5" y2="0" stroke="#888" stroke-width="1" opacity="1"/><line transform="translate(0,70)" x2="-5" y2="0" stroke="#888" stroke-width="1" opacity="1"/><line transform="translate(0,90)" x2="-5" y2="0" stroke="#888" stroke-width="1" opacity="1"/><line transform="translate(0,110)" x2="-5" y2="0" stroke="#888" stroke-width="1" opacity="1"/><line transform="translate(0,130)" x2="-5" y2="0" stroke="#888" stroke-width="1" opacity="1"/><line transform="translate(0,150)" x2="-5" y2="0" stroke="#888" stroke-width="1" opacity="1"/></g><g class="mark-text role-axis-label" pointer-events="none"><text text-anchor="end" transform="translate(-7,12.5)" font-family="sans-serif" font-size="10px" fill="#000" opacity="1">Undefined</text><text text-anchor="end" transform="translate(-7,32.5)" font-family="sans-serif" font-size="10px" fill="#000" opacity="1">Aviation</text><text text-anchor="end" transform="translate(-7,52.5)" font-family="sans-serif" font-size="10px" fill="#000" opacity="1">Complementary</text><text text-anchor="end" transform="translate(-7,72.5)" font-family="sans-serif" font-size="10px" fill="#000" opacity="1">Corporate</text><text text-anchor="end" transform="translate(-7,92.5)" font-family="sans-serif" font-size="10px" fill="#000" opacity="1">Direct</text><text text-anchor="end" transform="translate(-7,112.5)" font-family="sans-serif" font-size="10px" fill="#000" opacity="1">Groups</text><text text-anchor="end" transform="translate(-7,132.5)" font-family="sans-serif" font-size="10px" fill="#000" opacity="1">Offline Travel Agent</text><text text-anchor="end" transform="translate(-7,152.5)" font-family="sans-serif" font-size="10px" fill="#000" opacity="1">Online Travel Agent</text></g><g class="mark-rule role-axis-domain" pointer-events="none"><line transform="translate(0,0)" x2="0" y2="160" stroke="#888" stroke-width="1" opacity="1"/></g></g><path class="foreground" aria-hidden="true" d="" pointer-events="none" display="none"/></g></g><g class="mark-rect role-mark marks" role="graphics-symbol" aria-roledescription="rect mark container"><path d="M0,81h76.59251961044231v18h-76.59251961044231Z" fill="#4c78a8"/><path d="M0,141h376.15673197171435v18h-376.15673197171435Z" fill="#4c78a8"/><path d="M0,121h144.3252870514202v18h-144.3252870514202Z" fill="#4c78a8"/><path d="M0,61h9.269013604153097v18h-9.269013604153097Z" fill="#4c78a8"/><path d="M0,41h2.781461972791669v18h-2.781461972791669Z" fill="#4c78a8"/><path d="M0,101h118.10981848497258v18h-118.10981848497258Z" fill="#4c78a8"/><path d="M0,1h0.015157830914396146v18h-0.015157830914396146Z" fill="#4c78a8"/><path d="M0,21h0.022736746371594223v18h-0.022736746371594223Z" fill="#4c78a8"/></g><g class="mark-group role-title"><g transform="translate(200,-17)"><path class="background" aria-hidden="true" d="M0,0h0v0h0Z" pointer-events="none"/><g><g class="mark-text role-title-text" role="graphics-symbol" aria-roledescription="title" aria-label="Title text 'Method of booking for multiple guests'" pointer-events="none"><text text-anchor="middle" transform="translate(0,10)" font-family="sans-serif" font-size="13px" font-weight="bold" fill="#000" opacity="1">Method of booking for multiple guests</text></g></g><path class="foreground" aria-hidden="true" d="" pointer-events="none" display="none"/></g></g></g><path class="foreground" aria-hidden="true" d="" display="none"/></g></g></g></svg>