<svg xmlns="http://www.w3.org/2000/svg" xmlns:xlink="http://www.w3.org/1999/xlink" version="1.1" class="marks" width="594" height="992" viewBox="0 0 594 992"><rect width="594" height="992" fill="white"/><g fill="none" stroke-miterlimit="10" transform="translate(74,10)"><g class="mark-group role-frame root" role="graphics-object" aria-roledescription="group mark container"><g transform="translate(0,0)"><path class="background" aria-hidden="true" d="M0,0h0v0h0Z"/><g><g class="mark-group role-row-header row_header" role="graphics-object" aria-roledescription="group mark container"><g transform="translate(-1,0)"><path class="background" aria-hidden="true" d="M0,0h0v300h0Z"/><g><g class="mark-group role-axis" role="graphics-symbol" aria-roledescription="axis" aria-label="Y-axis titled 'Density' for a linear scale with values from 0.000 to 0.018"><g transform="translate(0.5,0.5)"><path class="background" aria-hidden="true" d="M0,0h0v0h0Z" pointer-events="none"/><g><g class="mark-rule role-axis-tick" pointer-events="none"><line transform="translate(0,300)" x2="-5" y2="0" stroke="#888" stroke-width="1" opacity="1"/><line transform="translate(0,267)" x2="-5" y2="0" stroke="#888" stroke-width="1" opacity="1"/><line transform="translate(0,233)" x2="-5" y2="0" stroke="#888" stroke-width="1" opacity="1"/><line transform="translate(0,200)" x2="-5" y2="0" stroke="#888" stroke-width="1" opacity="1"/><line transform="translate(0,167)" x2="-5" y2="0" stroke="#888" stroke-width="1" opacity="1"/><line transform="translate(0,133)" x2="-5" y2="0" stroke="#888" stroke-width="1" opacity="1"/><line transform="translate(0,100)" x2="-5" y2="0" stroke="#888" stroke-width="1" opacity="1"/><line transform="translate(0,67)" x2="-5" y2="0" stroke="#888" stroke-width="1" opacity="1"/><line transform="translate(0,33)" x2="-5" y2="0" stroke="#888" stroke-width="1" opacity="1"/><line transform="translate(0,0)" x2="-5" y2="0" stroke="#888" stroke-width="1" opacity="1"/></g><g class="mark-text role-axis-label" pointer-events="none"><text text-anchor="end" transform="translate(-7,303)" font-family="sans-serif" font-size="10px" fill="#000" opacity="1">0.000</text><text text-anchor="end" transform="translate(-7,269.66666666666663)" font-family="sans-serif" font-size="10px" fill="#000" opacity="1">0.002</text><text text-anchor="end" transform="translate(-7,236.33333333333334)" font-family="sans-serif" font-size="10px" fill="#000" opacity="1">0.004</text><text text-anchor="end" transform="translate(-7,203)" font-family="sans-serif" font-size="10px" fill="#000" opacity="1">0.006</text><text text-anchor="end" transform="translate(-7,169.66666666666669)" font-family="sans-serif" font-size="10px" fill="#000" opacity="1">0.008</text><text text-anchor="end" transform="translate(-7,136.33333333333331)" font-family="sans-serif" font-size="10px" fill="#000" opacity="1">0.010</text><text text-anchor="end" transform="translate(-7,102.99999999999997)" font-family="sans-serif" font-size="10px" fill="#000" opacity="1">0.012</text><text text-anchor="end" transform="translate(-7,69.66666666666663)" font-family="sans-serif" font-size="10px" fill="#000" opacity="1">0.014</text><text text-anchor="end" transform="translate(-7,36.333333333333314)" font-family="sans-serif" font-size="10px" fill="#000" opacity="1">0.016</text><text text-anchor="end" transform="translate(-7,3)" font-family="sans-serif" font-size="10px" fill="#000" opacity="1">0.018</text></g><g class="mark-rule role-axis-domain" pointer-events="none"><line transform="translate(0,300)" x2="0" y2="-300" stroke="#888" stroke-width="1" opacity="1"/></g><g class="mark-text role-axis-title" pointer-events="none"><text text-anchor="middle" transform="translate(-36.0244140625,150) rotate(-90) translate(0,-2)" font-family="sans-serif" font-size="11px" font-weight="bold" fill="#000" opacity="1">Density</text></g></g><path class="foreground" aria-hidden="true" d="" pointer-events="none" display="none"/></g></g><g class="mark-group role-title"><g transform="translate(-67.0244140625,150)"><path class="background" aria-hidden="true" d="M0,0h0v0h0Z" pointer-events="none"/><g><g class="mark-text role-title-text" role="graphics-symbol" aria-roledescription="title" aria-label="Title text 'single'" pointer-events="none"><text text-anchor="middle" transform="translate(0,0) rotate(-90) translate(0,8)" font-family="sans-serif" font-size="10px" fill="#000" opacity="1">single</text></g></g><path class="foreground" aria-hidden="true" d="" pointer-events="none" display="none"/></g></g></g><path class="foreground" aria-hidden="true" d="" display="none"/></g><g transform="translate(-1,322)"><path class="background" aria-hidden="true" d="M0,0h0v300h0Z"/><g><g class="mark-group role-axis" role="graphics-symbol" aria-roledescription="axis" aria-label="Y-axis titled 'Density' for a linear scale with values from 0.000 to 0.018"><g transform="translate(0.5,0.5)"><path class="background" aria-hidden="true" d="M0,0h0v0h0Z" pointer-events="none"/><g><g class="mark-rule role-axis-tick" pointer-events="none"><line transform="translate(0,300)" x2="-5" y2="0" stroke="#888" stroke-width="1" opacity="1"/><line transform="translate(0,267)" x2="-5" y2="0" stroke="#888" stroke-width="1" opacity="1"/><line transform="translate(0,233)" x2="-5" y2="0" stroke="#888" stroke-width="1" opacity="1"/><line transform="translate(0,200)" x2="-5" y2="0" stroke="#888" stroke-width="1" opacity="1"/><line transform="translate(0,167)" x2="-5" y2="0" stroke="#888" stroke-width="1" opacity="1"/><line transform="translate(0,133)" x2="-5" y2="0" stroke="#888" stroke-width="1" opacity="1"/><line transform="translate(0,100)" x2="-5" y2="0" stroke="#888" stroke-width="1" opacity="1"/><line transform="translate(0,67)" x2="-5" y2="0" stroke="#888" stroke-width="1" opacity="1"/><line transform="translate(0,33)" x2="-5" y2="0" stroke="#888" stroke-width="1" opacity="1"/><line transform="translate(0,0)" x2="-5" y2="0" stroke="#888" stroke-width="1" opacity="1"/></g><g class="mark-text role-axis-label" pointer-events="none"><text text-anchor="end" transform="translate(-7,303)" font-family="sans-serif" font-size="10px" fill="#000" opacity="1">0.000</text><text text-anchor="end" transform="translate(-7,269.66666666666663)" font-family="sans-serif" font-size="10px" fill="#000" opacity="1">0.002</text><text text-anchor="end" transform="translate(-7,236.33333333333334)" font-family="sans-serif" font-size="10px" fill="#000" opacity="1">0.004</text><text text-anchor="end" transform="translate(-7,203)" font-family="sans-serif" font-size="10px" fill="#000" opacity="1">0.006</text><text text-anchor="end" transform="translate(-7,169.66666666666669)" font-family="sans-serif" font-size="10px" fill="#000" opacity="1">0.008</text><text text-anchor="end" transform="translate(-7,136.33333333333331)" font-family="sans-serif" font-size="10px" fill="#000" opacity="1">0.010</text><text text-anchor="end" transform="translate(-7,102.99999999999997)" font-family="sans-serif" font-size="10px" fill="#000" opacity="1">0.012</text><text text-anchor="end" transform="translate(-7,69.66666666666663)" font-family="sans-serif" font-size="10px" fill="#000" opacity="1">0.014</text><text text-anchor="end" transform="translate(-7,36.333333333333314)" font-family="sans-serif" font-size="10px" fill="#000" opacity="1">0.016</text><text text-anchor="end" transform="translate(-7,3)" font-family="sans-serif" font-size="10px" fill="#000" opacity="1">0.018</text></g><g class="mark-rule role-axis-domain" pointer-events="none"><line transform="translate(0,300)" x2="0" y2="-300" stroke="#888" stroke-width="1" opacity="1"/></g><g class="mark-text role-axis-title" pointer-events="none"><text text-anchor="middle" transform="translate(-36.0244140625,150) rotate(-90) translate(0,-2)" font-family="sans-serif" font-size="11px" font-weight="bold" fill="#000" opacity="1">Density</text></g></g><path class="foreground" aria-hidden="true" d="" pointer-events="none" display="none"/></g></g><g class="mark-group role-title"><g transform="translate(-67.0244140625,150)"><path class="background" aria-hidden="true" d="M0,0h0v0h0Z" pointer-events="none"/><g><g class="mark-text role-title-text" role="graphics-symbol" aria-roledescription="title" aria-label="Title text 'couple'" pointer-events="none"><text text-anchor="middle" transform="translate(0,0) rotate(-90) translate(0,8)" font-family="sans-serif" font-size="10px" fill="#000" opacity="1">couple</text></g></g><path class="foreground" aria-hidden="true" d="" pointer-events="none" display="none"/></g></g></g><path class="foreground" aria-hidden="true" d="" display="none"/></g><g transform="translate(-1,644)"><path class="background" aria-hidden="true" d="M0,0h0v300h0Z"/><g><g class="mark-group role-axis" role="graphics-symbol" aria-roledescription="axis" aria-label="Y-axis titled 'Density' for a linear scale with values from 0.000 to 0.018"><g transform="translate(0.5,0.5)"><path class="background" aria-hidden="true" d="M0,0h0v0h0Z" pointer-events="none"/><g><g class="mark-rule role-axis-tick" pointer-events="none"><line transform="translate(0,300)" x2="-5" y2="0" stroke="#888" stroke-width="1" opacity="1"/><line transform="translate(0,267)" x2="-5" y2="0" stroke="#888" stroke-width="1" opacity="1"/><line transform="translate(0,233)" x2="-5" y2="0" stroke="#888" stroke-width="1" opacity="1"/><line transform="translate(0,200)" x2="-5" y2="0" stroke="#888" stroke-width="1" opacity="1"/><line transform="translate(0,167)" x2="-5" y2="0" stroke="#888" stroke-width="1" opacity="1"/><line transform="translate(0,133)" x2="-5" y2="0" stroke="#888" stroke-width="1" opacity="1"/><line transform="translate(0,100)" x2="-5" y2="0" stroke="#888" stroke-width="1" opacity="1"/><line transform="translate(0,67)" x2="-5" y2="0" stroke="#888" stroke-width="1" opacity="1"/><line transform="translate(0,33)" x2="-5" y2="0" stroke="#888" stroke-width="1" opacity="1"/><line transform="translate(0,0)" x2="-5" y2="0" stroke="#888" stroke-width="1" opacity="1"/></g><g class="mark-text role-axis-label" pointer-events="none"><text text-anchor="end" transform="translate(-7,303)" font-family="sans-serif" font-size="10px" fill="#000" opacity="1">0.000</text><text text-anchor="end" transform="translate(-7,269.66666666666663)" font-family="sans-serif" font-size="10px" fill="#000" opacity="1">0.002</text><text text-anchor="end" transform="translate(-7,236.33333333333334)" font-family="sans-serif" font-size="10px" fill="#000" opacity="1">0.004</text><text text-anchor="end" transform="translate(-7,203)" font-family="sans-serif" font-size="10px" fill="#000" opacity="1">0.006</text><text text-anchor="end" transform="translate(-7,169.66666666666669)" font-family="sans-serif" font-size="10px" fill="#000" opacity="1">0.008</text><text text-anchor="end" transform="translate(-7,136.33333333333331)" font-family="sans-serif" font-size="10px" fill="#000" opacity="1">0.010</text><text text-anchor="end" transform="translate(-7,102.99999999999997)" font-family="sans-serif" font-size="10px" fill="#000" opacity="1">0.012</text><text text-anchor="end" transform="translate(-7,69.66666666666663)" font-family="sans-serif" font-size="10px" fill="#000" opacity="1">0.014</text><text text-anchor="end" transform="translate(-7,36.333333333333314)" font-family="sans-serif" font-size="10px" fill="#000" opacity="1">0.016</text><text text-anchor="end" transform="translate(-7,3)" font-family="sans-serif" font-size="10px" fill="#000" opacity="1">0.018</text></g><g class="mark-rule role-axis-domain" pointer-events="none"><line transform="translate(0,300)" x2="0" y2="-300" stroke="#888" stroke-width="1" opacity="1"/></g><g class="mark-text role-axis-title" pointer-events="none"><text text-anchor="middle" transform="translate(-36.0244140625,150) rotate(-90) translate(0,-2)" font-family="sans-serif" font-size="11px" font-weight="bold" fill="#000" opacity="1">Density</text></g></g><path class="foreground" aria-hidden="true" d="" pointer-events="none" display="none"/></g></g><g class="mark-group role-title"><g transform="translate(-67.0244140625,150)"><path class="background" aria-hidden="true" d="M0,0h0v0h0Z" pointer-events="none"/><g><g class="mark-text role-title-text" role="graphics-symbol" aria-roledescription="title" aria-label="Title text 'many'" pointer-events="none"><text text-anchor="middle" transform="translate(0,0) rotate(-90) translate(0,8)" font-family="sans-serif" font-size="10px" fill="#000" opacity="1">many</text></g></g><path class="foreground" aria-hidden="true" d="" pointer-events="none" display="none"/></g></g></g><path class="foreground" aria-hidden="true" d="" display="none"/></g></g><g class="mark-group role-column-footer column_footer" role="graphics-object" aria-roledescription="group mark container"><g transform="translate(0,945)"><path class="background" aria-hidden="true" d="M0,0h400v0h-400Z"/><g><g class="mark-group role-axis" role="graphics-symbol" aria-roledescription="axis" aria-label="X-axis titled 'Advanced booking (num. days)' for a linear scale with values from 0 to 800"><g transform="translate(0.5,0.5)"><path class="background" aria-hidden="true" d="M0,0h0v0h0Z" pointer-events="none"/><g><g class="mark-rule role-axis-tick" pointer-events="none"><line transform="translate(0,0)" x2="0" y2="5" stroke="#888" stroke-width="1" opacity="1"/><line transform="translate(50,0)" x2="0" y2="5" stroke="#888" stroke-width="1" opacity="1"/><line transform="translate(100,0)" x2="0" y2="5" stroke="#888" stroke-width="1" opacity="1"/><line transform="translate(150,0)" x2="0" y2="5" stroke="#888" stroke-width="1" opacity="1"/><line transform="translate(200,0)" x2="0" y2="5" stroke="#888" stroke-width="1" opacity="1"/><line transform="translate(250,0)" x2="0" y2="5" stroke="#888" stroke-width="1" opacity="1"/><line transform="translate(300,0)" x2="0" y2="5" stroke="#888" stroke-width="1" opacity="1"/><line transform="translate(350,0)" x2="0" y2="5" stroke="#888" stroke-width="1" opacity="1"/><line transform="translate(400,0)" x2="0" y2="5" stroke="#888" stroke-width="1" opacity="1"/></g><g class="mark-text role-axis-label" pointer-events="none"><text text-anchor="start" transform="translate(0,15)" font-family="sans-serif" font-size="10px" fill="#000" opacity="1">0</text><text text-anchor="middle" transform="translate(50,15)" font-family="sans-serif" font-size="10px" fill="#000" opacity="1">100</text><text text-anchor="middle" transform="translate(100,15)" font-family="sans-serif" font-size="10px" fill="#000" opacity="1">200</text><text text-anchor="middle" transform="translate(150,15)" font-family="sans-serif" font-size="10px" fill="#000" opacity="1">300</text><text text-anchor="middle" transform="translate(200,15)" font-family="sans-serif" font-size="10px" fill="#000" opacity="1">400</text><text text-anchor="middle" transform="translate(250,15)" font-family="sans-serif" font-size="10px" fill="#000" opacity="1">500</text><text text-anchor="middle" transform="translate(300,15)" font-family="sans-serif" font-size="10px" fill="#000" opacity="1">600</text><text text-anchor="middle" transform="translate(350,15)" font-family="sans-serif" font-size="10px" fill="#000" opacity="1">700</text><text text-anchor="end" transform="translate(400,15)" font-family="sans-serif" font-size="10px" fill="#000" opacity="1">800</text></g><g class="mark-rule role-axis-domain" pointer-events="none"><line transform="translate(0,0)" x2="400" y2="0" stroke="#888" stroke-width="1" opacity="1"/></g><g class="mark-text role-axis-title" pointer-events="none"><text text-anchor="middle" transform="translate(200,30)" font-family="sans-serif" font-size="11px" font-weight="bold" fill="#000" opacity="1">Advanced booking (num. days)</text></g></g><path class="foreground" aria-hidden="true" d="" pointer-events="none" display="none"/></g></g></g><path class="foreground" aria-hidden="true" d="" display="none"/></g></g><g class="mark-group role-scope cell" role="graphics-object" aria-roledescription="group mark container"><g transform="translate(0,0)"><path class="background" aria-hidden="true" d="M0.5,0.5h400v300h-400Z" stroke="#ddd"/><g><g class="mark-group role-axis" role="graphics-symbol" aria-roledescription="axis" aria-label="X-axis for a linear scale with values from 0 to 800"><g transform="translate(0.5,300.5)"><path class="background" aria-hidden="true" d="M0,0h0v0h0Z" pointer-events="none"/><g><g class="mark-rule role-axis-grid" pointer-events="none"><line transform="translate(0,-300)" x2="0" y2="300" stroke="#ddd" stroke-width="1" opacity="1"/><line transform="translate(50,-300)" x2="0" y2="300" stroke="#ddd" stroke-width="1" opacity="1"/><line transform="translate(100,-300)" x2="0" y2="300" stroke="#ddd" stroke-width="1" opacity="1"/><line transform="translate(150,-300)" x2="0" y2="300" stroke="#ddd" stroke-width="1" opacity="1"/><line transform="translate(200,-300)" x2="0" y2="300" stroke="#ddd" stroke-width="1" opacity="1"/><line transform="translate(250,-300)" x2="0" y2="300" stroke="#ddd" stroke-width="1" opacity="1"/><line transform="translate(300,-300)" x2="0" y2="300" stroke="#ddd" stroke-width="1" opacity="1"/><line transform="translate(350,-300)" x2="0" y2="300" stroke="#ddd" stroke-width="1" opacity="1"/><line transform="translate(400,-300)" x2="0" y2="300" stroke="#ddd" stroke-width="1" opacity="1"/></g></g><path class="foreground" aria-hidden="true" d="" pointer-events="none" display="none"/></g></g><g class="mark-group role-axis" role="graphics-symbol" aria-roledescription="axis" aria-label="Y-axis for a linear scale with values from 0.000 to 0.018"><g transform="translate(0.5,0.5)"><path class="background" aria-hidden="true" d="M0,0h0v0h0Z" pointer-events="none"/><g><g class="mark-rule role-axis-grid" pointer-events="none"><line transform="translate(0,300)" x2="400" y2="0" stroke="#ddd" stroke-width="1" opacity="1"/><line transform="translate(0,267)" x2="400" y2="0" stroke="#ddd" stroke-width="1" opacity="1"/><line transform="translate(0,233)" x2="400" y2="0" stroke="#ddd" stroke-width="1" opacity="1"/><line transform="translate(0,200)" x2="400" y2="0" stroke="#ddd" stroke-width="1" opacity="1"/><line transform="translate(0,167)" x2="400" y2="0" stroke="#ddd" stroke-width="1" opacity="1"/><line transform="translate(0,133)" x2="400" y2="0" stroke="#ddd" stroke-width="1" opacity="1"/><line transform="translate(0,100)" x2="400" y2="0" stroke="#ddd" stroke-width="1" opacity="1"/><line transform="translate(0,67)" x2="400" y2="0" stroke="#ddd" stroke-width="1" opacity="1"/><line transform="translate(0,33)" x2="400" y2="0" stroke="#ddd" stroke-width="1" opacity="1"/><line transform="translate(0,0)" x2="400" y2="0" stroke="#ddd" stroke-width="1" opacity="1"/></g></g><path class="foreground" aria-hidden="true" d="" pointer-events="none" display="none"/></g></g><g class="mark-group role-scope child_pathgroup" role="graphics-object" aria-roledescription="group mark container"><g transform="translate(0,0)"><path class="background" aria-hidden="true" d="M0,0h400v300h-400Z"/><g><g class="mark-area role-mark child_marks" role="graphics-symbol" aria-roledescription="area mark container"><path d="M0,55.810098611202584L1.5725,35.196570606828814L3.145,31.308921476914144L4.7175,42.94482710494073L6.29,65.76117300900438L7.8625,94.01579742442343L9.435,122.43658458970849L11.0075,147.4665352386548L12.58,167.6112169952039L14.152500000000002,183.0634272075409L15.725,194.97813617808578L17.2975,204.7387154518495L18.87,213.42688853289917L20.4425,221.58164606250276L22.015,229.23087180269698L23.5875,236.1028339786437L25.16,241.88634536725283L26.7325,246.42437891263148L28.305000000000003,249.78621084761616L29.8775,252.23012060238312L31.45,254.10611373776388L33.0225,255.7481865644766L34.595,257.387164083348L36.167500000000004,259.0998957395838L37.74,260.804205979014L39.3125,262.3030438215035L40.885,263.36844082056774L42.4575,263.83937021467443L44.03,263.69747021855545L45.6025,263.0890788677154L47.175,262.28255129774345L48.7475,261.5796135698621L50.32,261.2236063663953L51.892500000000005,261.34847166089776L53.465,261.9844944517103L55.037499999999994,263.0975221284979L56.61000000000001,264.61935888871767L58.18249999999999,266.44595897994094L59.755,268.41984988861805L61.3275,270.33506585770726L62.9,271.9841465895232L64.4725,273.2249728246884L66.045,274.02116547888176L67.61749999999999,274.4269371840102L69.19,274.52974986028187L70.7625,274.39418850182557L72.33500000000001,274.0448432970792L73.9075,273.49381222999335L75.48,272.7873553638349L77.0525,272.0364354034662L78.625,271.4082098884108L80.1975,271.07876903543996L81.77,271.16943176678643L83.3425,271.7001207456041L84.915,272.5868163440542L86.48750000000001,273.68646871667795L88.06,274.8648853604564L89.6325,276.0497012098882L91.205,277.2408780025668L92.77749999999999,278.4771137539286L94.35,279.7805744643066L95.9225,281.1120511824118L97.495,282.3623598272931L99.0675,283.3883061934094L100.64,284.07935542783474L102.21249999999999,284.42278174282427L103.78500000000001,284.5308251038963L105.35749999999999,284.6093406216397L106.93,284.8778894076807L108.5025,285.4789258829191L110.07499999999999,286.4208570048216L111.6475,287.58128927339527L113.22000000000001,288.7645824283701L114.7925,289.78167137492176L116.36499999999998,290.5138942629273L117.9375,290.9366082558544L119.51,291.10187751499564L121.08250000000001,291.09868679221927L122.655,291.0148541196562L124.2275,290.9165782969325L125.8,290.8468042761096L127.3725,290.8326593039427L128.945,290.8912563582525L130.51749999999998,291.0300672554647L132.09,291.24517093461805L133.6625,291.52206372721224L135.23499999999999,291.8400605148347L136.8075,292.1777434812634L138.38,292.5168783141453L139.95250000000001,292.8444436420065L141.525,293.1536440191879L143.0975,293.44400672346865L144.67000000000002,293.7197395371162L146.2425,293.98615327817294L147.815,294.2455370449261L149.3875,294.49459809443596L150.96,294.7246612763583L152.5325,294.9240911285378L154.105,295.0811464163019L155.6775,295.18548404438155L157.25,295.22791720801314L158.8225,295.2001272997373L160.395,295.09717537777317L161.9675,294.9241164907862L163.54,294.7039942351363L165.1125,294.4810580384657L166.685,294.31393667093545L168.25750000000002,294.2592567710175L169.83,294.3528279221549L171.4025,294.5977736009256L172.97500000000002,294.96514628474534L174.5475,295.40573963588105L176.12,295.86668428563644L177.6925,296.3053570430141L179.265,296.6955667731329L180.83749999999998,297.0252306069244L182.41,297.2891519424399L183.9825,297.48302694405857L185.55499999999998,297.60348301139925L187.1275,297.6539739124026L188.7,297.65112807147995L190.2725,297.6249932796574L191.845,297.6107980157852L193.4175,297.6361007877173L194.99,297.71057951258933L196.5625,297.8238865590781L198.135,297.95188974812044L199.7075,298.0672553449475L201.28,298.14930362257394L202.85250000000002,298.1899398988719L204.42499999999998,298.19495339191354L205.9975,298.1812946946017L207.57000000000002,298.17108153367957L209.1425,298.18328263277533L210.71499999999997,298.2252160269478L212.2875,298.2875697873085L213.86,298.34670983861196L215.4325,298.3751224636926L217.005,298.3558606720985L218.57750000000001,298.2932231854067L220.14999999999998,298.212999544307L221.7225,298.15160939581756L223.295,298.14036794480654L224.8675,298.19377456946944L226.44000000000003,298.3072649725974L228.0125,298.46335054138797L229.585,298.6406414344044L231.1575,298.82056766541984L232.72999999999996,298.99004826422225L234.30249999999998,299.1413632937303L235.875,299.27110723510776L237.4475,299.37908900710715L239.02,299.4671482838422L240.59249999999997,299.537857663398L242.16500000000002,299.59347579520636L243.73750000000004,299.63557243944274L245.31,299.66534883839483L246.88250000000002,299.6842447162273L248.455,299.6943320471926L250.02750000000003,299.69825088454866L251.6,299.69879127311907L253.1725,299.6984189823669L254.745,299.69899131512886L256.3175,299.7016991083349L257.89,299.70709375144867L259.4625,299.7150662982518L261.03499999999997,299.7248150577825L262.6075,299.73497764100256L264.18,299.7440432273086L265.7525,299.7509317978503L267.325,299.7554370331707L268.8975,299.7582604622248L270.46999999999997,299.76060529753653L272.0425,299.7635664337447L273.615,299.76765614593023L275.1875,299.77268792987985L276.76,299.77800741632825L278.3325,299.78287575764494L279.90500000000003,299.7867805525099L281.4775,299.78955319486903L283.05,299.7913089906091L284.6225,299.7923058723272L286.195,299.79281528546676L287.7675,299.7930502380467L289.34000000000003,299.7931482611881L290.9125,299.79318535910784L292.485,299.7931983201843L294.0575,299.7932033651897L295.63,299.79320860002775L297.2025,299.7932230087879L298.775,299.79326719014114L300.34749999999997,299.7933927127884L301.92,299.79371788713036L303.4925,299.79448497945975L305.065,299.79613248886193L306.6375,299.79935361171044L308.21,299.8050860827705L309.78249999999997,299.814371296841L311.355,299.8280587479564L312.9275,299.84642010003034L314.5,299.86883389194907L314.5,300L312.9275,300L311.355,300L309.78249999999997,300L308.21,300L306.6375,300L305.065,300L303.4925,300L301.92,300L300.34749999999997,300L298.775,300L297.2025,300L295.63,300L294.0575,300L292.485,300L290.9125,300L289.34000000000003,300L287.7675,300L286.195,300L284.6225,300L283.05,300L281.4775,300L279.90500000000003,300L278.3325,300L276.76,300L275.1875,300L273.615,300L272.0425,300L270.46999999999997,300L268.8975,300L267.325,300L265.7525,300L264.18,300L262.6075,300L261.03499999999997,300L259.4625,300L257.89,300L256.3175,300L254.745,300L253.1725,300L251.6,300L250.02750000000003,300L248.455,300L246.88250000000002,300L245.31,300L243.73750000000004,300L242.16500000000002,300L240.59249999999997,300L239.02,300L237.4475,300L235.875,300L234.30249999999998,300L232.72999999999996,300L231.1575,300L229.585,300L228.0125,300L226.44000000000003,300L224.8675,300L223.295,300L221.7225,300L220.14999999999998,300L218.57750000000001,300L217.005,300L215.4325,300L213.86,300L212.2875,300L210.71499999999997,300L209.1425,300L207.57000000000002,300L205.9975,300L204.42499999999998,300L202.85250000000002,300L201.28,300L199.7075,300L198.135,300L196.5625,300L194.99,300L193.4175,300L191.845,300L190.2725,300L188.7,300L187.1275,300L185.55499999999998,300L183.9825,300L182.41,300L180.83749999999998,300L179.265,300L177.6925,300L176.12,300L174.5475,300L172.97500000000002,300L171.4025,300L169.83,300L168.25750000000002,300L166.685,300L165.1125,300L163.54,300L161.9675,300L160.395,300L158.8225,300L157.25,300L155.6775,300L154.105,300L152.5325,300L150.96,300L149.3875,300L147.815,300L146.2425,300L144.67000000000002,300L143.0975,300L141.525,300L139.95250000000001,300L138.38,300L136.8075,300L135.23499999999999,300L133.6625,300L132.09,300L130.51749999999998,300L128.945,300L127.3725,300L125.8,300L124.2275,300L122.655,300L121.08250000000001,300L119.51,300L117.9375,300L116.36499999999998,300L114.7925,300L113.22000000000001,300L111.6475,300L110.07499999999999,300L108.5025,300L106.93,300L105.35749999999999,300L103.78500000000001,300L102.21249999999999,300L100.64,300L99.0675,300L97.495,300L95.9225,300L94.35,300L92.77749999999999,300L91.205,300L89.6325,300L88.06,300L86.48750000000001,300L84.915,300L83.3425,300L81.77,300L80.1975,300L78.625,300L77.0525,300L75.48,300L73.9075,300L72.33500000000001,300L70.7625,300L69.19,300L67.61749999999999,300L66.045,300L64.4725,300L62.9,300L61.3275,300L59.755,300L58.18249999999999,300L56.61000000000001,300L55.037499999999994,300L53.465,300L51.892500000000005,300L50.32,300L48.7475,300L47.175,300L45.6025,300L44.03,300L42.4575,300L40.885,300L39.3125,300L37.74,300L36.167500000000004,300L34.595,300L33.0225,300L31.45,300L29.8775,300L28.305000000000003,300L26.7325,300L25.16,300L23.5875,300L22.015,300L20.4425,300L18.87,300L17.2975,300L15.725,300L14.152500000000002,300L12.58,300L11.0075,300L9.435,300L7.8625,300L6.29,300L4.7175,300L3.145,300L1.5725,300L0,300Z" fill="#4c78a8" opacity="0.5"/></g></g><path class="foreground" aria-hidden="true" d="" display="none"/></g></g></g><path class="foreground" aria-hidden="true" d="" display="none"/></g><g transform="translate(0,322)"><path class="background" aria-hidden="true" d="M0.5,0.5h400v300h-400Z" stroke="#ddd"/><g><g class="mark-group role-axis" role="graphics-symbol" aria-roledescription="axis" aria-label="X-axis for a linear scale with values from 0 to 800"><g transform="translate(0.5,300.5)"><path class="background" aria-hidden="true" d="M0,0h0v0h0Z" pointer-events="none"/><g><g class="mark-rule role-axis-grid" pointer-events="none"><line transform="translate(0,-300)" x2="0" y2="300" stroke="#ddd" stroke-width="1" opacity="1"/><line transform="translate(50,-300)" x2="0" y2="300" stroke="#ddd" stroke-width="1" opacity="1"/><line transform="translate(100,-300)" x2="0" y2="300" stroke="#ddd" stroke-width="1" opacity="1"/><line transform="translate(150,-300)" x2="0" y2="300" stroke="#ddd" stroke-width="1" opacity="1"/><line transform="translate(200,-300)" x2="0" y2="300" stroke="#ddd" stroke-width="1" opacity="1"/><line transform="translate(250,-300)" x2="0" y2="300" stroke="#ddd" stroke-width="1" opacity="1"/><line transform="translate(300,-300)" x2="0" y2="300" stroke="#ddd" stroke-width="1" opacity="1"/><line transform="translate(350,-300)" x2="0" y2="300" stroke="#ddd" stroke-width="1" opacity="1"/><line transform="translate(400,-300)" x2="0" y2="300" stroke="#ddd" stroke-width="1" opacity="1"/></g></g><path class="foreground" aria-hidden="true" d="" pointer-events="none" display="none"/></g></g><g class="mark-group role-axis" role="graphics-symbol" aria-roledescription="axis" aria-label="Y-axis for a linear scale with values from 0.000 to 0.018"><g transform="translate(0.5,0.5)"><path class="background" aria-hidden="true" d="M0,0h0v0h0Z" pointer-events="none"/><g><g class="mark-rule role-axis-grid" pointer-events="none"><line transform="translate(0,300)" x2="400" y2="0" stroke="#ddd" stroke-width="1" opacity="1"/><line transform="translate(0,267)" x2="400" y2="0" stroke="#ddd" stroke-width="1" opacity="1"/><line transform="translate(0,233)" x2="400" y2="0" stroke="#ddd" stroke-width="1" opacity="1"/><line transform="translate(0,200)" x2="400" y2="0" stroke="#ddd" stroke-width="1" opacity="1"/><line transform="translate(0,167)" x2="400" y2="0" stroke="#ddd" stroke-width="1" opacity="1"/><line transform="translate(0,133)" x2="400" y2="0" stroke="#ddd" stroke-width="1" opacity="1"/><line transform="translate(0,100)" x2="400" y2="0" stroke="#ddd" stroke-width="1" opacity="1"/><line transform="translate(0,67)" x2="400" y2="0" stroke="#ddd" stroke-width="1" opacity="1"/><line transform="translate(0,33)" x2="400" y2="0" stroke="#ddd" stroke-width="1" opacity="1"/><line transform="translate(0,0)" x2="400" y2="0" stroke="#ddd" stroke-width="1" opacity="1"/></g></g><path class="foreground" aria-hidden="true" d="" pointer-events="none" display="none"/></g></g><g class="mark-group role-scope child_pathgroup" role="graphics-object" aria-roledescription="group mark container"><g transform="translate(0,0)"><path class="background" aria-hidden="true" d="M0,0h400v300h-400Z"/><g><g class="mark-area role-mark child_marks" role="graphics-symbol" aria-roledescription="area mark container"><path d="M0,200.4204400940856L1.8425,187.55266583304757L3.685,180.08500999725695L5.5275,178.0131994695712L7.37,180.24229957974302L9.2125,185.14331987591325L11.055,191.15445297639096L12.8975,197.16810228412035L14.74,202.62235367955319L16.5825,207.37629893242865L18.425,211.50990628325218L20.267500000000002,215.15893221761817L22.11,218.429169306791L23.9525,221.3803909397727L25.795,224.046877409844L27.6375,226.46317601143403L29.48,228.67726319901405L31.3225,230.7472591486196L33.165,232.7270552035859L35.0075,234.65030407934748L36.85,236.5222038976685L38.692499999999995,238.32458495544347L40.535000000000004,240.03269032383307L42.377500000000005,241.63508921794548L44.22,243.1460539421611L46.0625,244.60413014472135L47.905,246.0582063840003L49.7475,247.5480045732178L51.59,249.087181439582L53.43249999999999,250.65533137221436L55.275,252.2020529563314L57.1175,253.66242414100512L58.96,254.97872846578136L60.8025,256.1195589330599L62.645,257.087416425095L64.4875,257.9112832243347L66.33,258.62906591371194L68.1725,259.2706023223317L70.015,259.8505614353292L71.8575,260.3729531536909L73.7,260.84116490193776L75.54249999999999,261.26544167752456L77.38499999999999,261.66421836406323L79.22749999999999,262.06182626523025L81.07000000000001,262.48715941394283L82.91250000000001,262.97457819822984L84.75500000000001,263.56349001679985L86.5975,264.2917878213126L88.44,265.18234607816737L90.2825,266.2280637217861L92.125,267.38450536837485L93.9675,268.5769868829152L95.81,269.72198050539714L97.6525,270.75509282958734L99.495,271.6539535638121L101.33750000000002,272.4460891300373L103.18,273.198047636452L105.0225,273.98959785918623L106.86499999999998,274.88260384582594L108.7075,275.8961957118378L110.55,276.99760035710676L112.39250000000001,278.1121961262751L114.235,279.1487497283323L116.07750000000001,280.0291257471701L117.92,280.70943274633584L119.76249999999999,281.18386717121473L121.605,281.4719841977279L123.4475,281.5991796039936L125.29,281.58286248984183L127.13250000000001,281.4318250474273L128.975,281.15785351173105L130.8175,280.7920593353559L132.66,280.396054287228L134.5025,280.05954485588774L136.345,279.88093008467047L138.1875,279.9359149767699L140.03,280.24786040586264L141.8725,280.77614623512926L143.715,281.43099832838925L145.5575,282.1086816214606L147.4,282.7295973132944L149.2425,283.261507726334L151.08499999999998,283.7201077706113L152.92749999999998,284.1515190580726L154.76999999999998,284.6080487758795L156.61249999999998,285.1276815998582L158.45499999999998,285.7229452164251L160.29749999999999,286.380498944931L162.14000000000001,287.07017719447225L163.98250000000002,287.7597600557571L165.82500000000002,288.42909506671737L167.66750000000002,289.076695729962L169.51000000000002,289.7156634264943L171.35250000000002,290.3620477496544L173.195,291.0229622255733L175.0375,291.69076189124166L176.88,292.34467436682263L178.7225,292.95673315466536L180.565,293.49794864335263L182.4075,293.94307859659426L184.25,294.2750677345796L186.0925,294.49035215689463L187.935,294.6036786586071L189.7775,294.6486156437154L191.62,294.67054816223964L193.4625,294.7130426129539L195.305,294.803262550175L197.1475,294.9439351896881L198.99,295.11652338011595L200.8325,295.2942570634083L202.67500000000004,295.45813451769214L204.51749999999998,295.6072957454979L206.36,295.7583599974041L208.2025,295.93452317564936L210.045,296.1507796622065L211.88750000000002,296.4033888611519L213.72999999999996,296.6688465124133L215.5725,296.91214595637285L217.415,297.0994835338454L219.25749999999996,297.2093495781574L221.1,297.23816492581966L222.9425,297.2000743156546L224.78500000000003,297.1227878120399L226.62749999999997,297.0416255949716L228.47,296.9930049069232L230.3125,297.007857822793L232.15500000000003,297.1055812529724L233.9975,297.28977085356155L235.84,297.5472677656252L237.6825,297.851309898853L239.52499999999998,298.16807485166044L241.3675,298.4645706822913L243.21,298.7154699725831L245.05250000000004,298.9071365947255L246.895,299.0382322464148L248.7375,299.11736853814165L250.58,299.1590078444371L252.42249999999999,299.179081541511L254.26500000000001,299.1915232030175L256.10749999999996,299.20624044640726L257.95,299.22838529130166L259.79249999999996,299.2585564599702L261.635,299.29378354180795L263.47749999999996,299.32932034546553L265.32,299.360971201987L267.16249999999997,299.3870749295121L269.005,299.40908618844895L270.84749999999997,299.4303729585321L272.69,299.45399009960335L274.53249999999997,299.4808544603813L276.375,299.5093731897505L278.21750000000003,299.5365059945682L280.06,299.5593527454141L281.90250000000003,299.5762470230549L283.745,299.58688907676293L285.58750000000003,299.59171409775115L287.43,299.5910298923576L289.27250000000004,299.5844313633989L291.115,299.57080139377047L292.95750000000004,299.5489736354738L294.8,299.5188483865432L296.64250000000004,299.4824214198482L298.485,299.4440097315797L300.3275,299.40924841744317L302.16999999999996,299.38322852328713L304.0125,299.36893394853945L305.85499999999996,299.36713538916035L307.6975,299.3778409040631L309.53999999999996,299.4020301136798L311.3825,299.44197217810716L313.22499999999997,299.4995116748501L315.0675,299.57347312966317L316.90999999999997,299.6582343021063L318.7525,299.744738525452L320.59499999999997,299.82344541342644L322.4375,299.8874443439201L324.28000000000003,299.9340798587475L326.1225,299.96461354512894L327.96500000000003,299.98261653858367L329.8075,299.9921932071818L331.65000000000003,299.9967946472126L333.4925,299.9987887911433L335.33500000000004,299.9995545442134L337.1775,299.9997798087985L339.02000000000004,299.9997476292684L340.8625,299.9995322019505L342.70500000000004,299.999113629447L344.5475,299.99844845215006L346.39,299.9975240412066L348.23249999999996,299.99640135601487L350.075,299.99522999530365L351.91749999999996,299.99421637762623L353.76,299.9935462894656L355.60249999999996,299.9932958803008L357.445,299.9933847367234L359.28749999999997,299.99360937321205L361.13,299.9937487813752L362.97249999999997,299.99368562811895L364.815,299.9934720588859L366.65749999999997,299.99330035375544L368.5,299.9933962383048L368.5,300L366.65749999999997,300L364.815,300L362.97249999999997,300L361.13,300L359.28749999999997,300L357.445,300L355.60249999999996,300L353.76,300L351.91749999999996,300L350.075,300L348.23249999999996,300L346.39,300L344.5475,300L342.70500000000004,300L340.8625,300L339.02000000000004,300L337.1775,300L335.33500000000004,300L333.4925,300L331.65000000000003,300L329.8075,300L327.96500000000003,300L326.1225,300L324.28000000000003,300L322.4375,300L320.59499999999997,300L318.7525,300L316.90999999999997,300L315.0675,300L313.22499999999997,300L311.3825,300L309.53999999999996,300L307.6975,300L305.85499999999996,300L304.0125,300L302.16999999999996,300L300.3275,300L298.485,300L296.64250000000004,300L294.8,300L292.95750000000004,300L291.115,300L289.27250000000004,300L287.43,300L285.58750000000003,300L283.745,300L281.90250000000003,300L280.06,300L278.21750000000003,300L276.375,300L274.53249999999997,300L272.69,300L270.84749999999997,300L269.005,300L267.16249999999997,300L265.32,300L263.47749999999996,300L261.635,300L259.79249999999996,300L257.95,300L256.10749999999996,300L254.26500000000001,300L252.42249999999999,300L250.58,300L248.7375,300L246.895,300L245.05250000000004,300L243.21,300L241.3675,300L239.52499999999998,300L237.6825,300L235.84,300L233.9975,300L232.15500000000003,300L230.3125,300L228.47,300L226.62749999999997,300L224.78500000000003,300L222.9425,300L221.1,300L219.25749999999996,300L217.415,300L215.5725,300L213.72999999999996,300L211.88750000000002,300L210.045,300L208.2025,300L206.36,300L204.51749999999998,300L202.67500000000004,300L200.8325,300L198.99,300L197.1475,300L195.305,300L193.4625,300L191.62,300L189.7775,300L187.935,300L186.0925,300L184.25,300L182.4075,300L180.565,300L178.7225,300L176.88,300L175.0375,300L173.195,300L171.35250000000002,300L169.51000000000002,300L167.66750000000002,300L165.82500000000002,300L163.98250000000002,300L162.14000000000001,300L160.29749999999999,300L158.45499999999998,300L156.61249999999998,300L154.76999999999998,300L152.92749999999998,300L151.08499999999998,300L149.2425,300L147.4,300L145.5575,300L143.715,300L141.8725,300L140.03,300L138.1875,300L136.345,300L134.5025,300L132.66,300L130.8175,300L128.975,300L127.13250000000001,300L125.29,300L123.4475,300L121.605,300L119.76249999999999,300L117.92,300L116.07750000000001,300L114.235,300L112.39250000000001,300L110.55,300L108.7075,300L106.86499999999998,300L105.0225,300L103.18,300L101.33750000000002,300L99.495,300L97.6525,300L95.81,300L93.9675,300L92.125,300L90.2825,300L88.44,300L86.5975,300L84.75500000000001,300L82.91250000000001,300L81.07000000000001,300L79.22749999999999,300L77.38499999999999,300L75.54249999999999,300L73.7,300L71.8575,300L70.015,300L68.1725,300L66.33,300L64.4875,300L62.645,300L60.8025,300L58.96,300L57.1175,300L55.275,300L53.43249999999999,300L51.59,300L49.7475,300L47.905,300L46.0625,300L44.22,300L42.377500000000005,300L40.535000000000004,300L38.692499999999995,300L36.85,300L35.0075,300L33.165,300L31.3225,300L29.48,300L27.6375,300L25.795,300L23.9525,300L22.11,300L20.267500000000002,300L18.425,300L16.5825,300L14.74,300L12.8975,300L11.055,300L9.2125,300L7.37,300L5.5275,300L3.685,300L1.8425,300L0,300Z" fill="#f58518" opacity="0.5"/></g></g><path class="foreground" aria-hidden="true" d="" display="none"/></g></g></g><path class="foreground" aria-hidden="true" d="" display="none"/></g><g transform="translate(0,644)"><path class="background" aria-hidden="true" d="M0.5,0.5h400v300h-400Z" stroke="#ddd"/><g><g class="mark-group role-axis" role="graphics-symbol" aria-roledescription="axis" aria-label="X-axis for a linear scale with values from 0 to 800"><g transform="translate(0.5,300.5)"><path class="background" aria-hidden="true" d="M0,0h0v0h0Z" pointer-events="none"/><g><g class="mark-rule role-axis-grid" pointer-events="none"><line transform="translate(0,-300)" x2="0" y2="300" stroke="#ddd" stroke-width="1" opacity="1"/><line transform="translate(50,-300)" x2="0" y2="300" stroke="#ddd" stroke-width="1" opacity="1"/><line transform="translate(100,-300)" x2="0" y2="300" stroke="#ddd" stroke-width="1" opacity="1"/><line transform="translate(150,-300)" x2="0" y2="300" stroke="#ddd" stroke-width="1" opacity="1"/><line transform="translate(200,-300)" x2="0" y2="300" stroke="#ddd" stroke-width="1" opacity="1"/><line transform="translate(250,-300)" x2="0" y2="300" stroke="#ddd" stroke-width="1" opacity="1"/><line transform="translate(300,-300)" x2="0" y2="300" stroke="#ddd" stroke-width="1" opacity="1"/><line transform="translate(350,-300)" x2="0" y2="300" stroke="#ddd" stroke-width="1" opacity="1"/><line transform="translate(400,-300)" x2="0" y2="300" stroke="#ddd" stroke-width="1" opacity="1"/></g></g><path class="foreground" aria-hidden="true" d="" pointer-events="none" display="none"/></g></g><g class="mark-group role-axis" role="graphics-symbol" aria-roledescription="axis" aria-label="Y-axis for a linear scale with values from 0.000 to 0.018"><g transform="translate(0.5,0.5)"><path class="background" aria-hidden="true" d="M0,0h0v0h0Z" pointer-events="none"/><g><g class="mark-rule role-axis-grid" pointer-events="none"><line transform="translate(0,300)" x2="400" y2="0" stroke="#ddd" stroke-width="1" opacity="1"/><line transform="translate(0,267)" x2="400" y2="0" stroke="#ddd" stroke-width="1" opacity="1"/><line transform="translate(0,233)" x2="400" y2="0" stroke="#ddd" stroke-width="1" opacity="1"/><line transform="translate(0,200)" x2="400" y2="0" stroke="#ddd" stroke-width="1" opacity="1"/><line transform="translate(0,167)" x2="400" y2="0" stroke="#ddd" stroke-width="1" opacity="1"/><line transform="translate(0,133)" x2="400" y2="0" stroke="#ddd" stroke-width="1" opacity="1"/><line transform="translate(0,100)" x2="400" y2="0" stroke="#ddd" stroke-width="1" opacity="1"/><line transform="translate(0,67)" x2="400" y2="0" stroke="#ddd" stroke-width="1" opacity="1"/><line transform="translate(0,33)" x2="400" y2="0" stroke="#ddd" stroke-width="1" opacity="1"/><line transform="translate(0,0)" x2="400" y2="0" stroke="#ddd" stroke-width="1" opacity="1"/></g></g><path class="foreground" aria-hidden="true" d="" pointer-events="none" display="none"/></g></g><g class="mark-group role-scope child_pathgroup" role="graphics-object" aria-roledescription="group mark container"><g transform="translate(0,0)"><path class="background" aria-hidden="true" d="M0,0h400v300h-400Z"/><g><g class="mark-area role-mark child_marks" role="graphics-symbol" aria-roledescription="area mark container"><path d="M0,225.28637395090792L1.355,217.15427928286755L2.71,210.07991437629144L4.0649999999999995,204.26849027810212L5.42,199.80595400362492L6.775,196.66291353639156L8.129999999999999,194.71533293168545L9.485000000000001,193.77612873539408L10.84,193.63024092491767L12.195,194.06619106596304L13.55,194.89917520827646L14.905,195.98356587757016L16.259999999999998,197.2154267082727L17.615000000000002,198.52758740505303L18.970000000000002,199.88066785468993L20.325,201.25324400613337L21.68,202.63345425043443L23.035,204.01319779168676L24.39,205.3850639951734L25.745,206.74148189989242L27.1,208.0753324073395L28.455,209.38131585617054L29.81,210.65754368051944L31.165000000000003,211.90697582988204L32.519999999999996,213.13838881000163L33.875,214.3665604968894L35.230000000000004,215.61138535838376L36.585,216.8957731892881L37.940000000000005,218.24246024361352L39.294999999999995,219.67021019038015L40.65,221.19017292906747L42.005,222.80326329863834L43.36,224.49924194059804L44.715,226.25775673964333L46.07,228.05106943037555L47.425,229.84773542302582L48.78,231.61628934374457L50.135,233.32808687457035L51.49,234.95881901314064L52.845,236.48870513396062L54.2,237.90180700453584L55.555,239.18514114609115L56.91,240.3282389630267L58.265,241.32354709531174L59.62,242.1676824101221L60.975,242.86319312111408L62.330000000000005,243.42024605364298L63.68499999999999,243.85762252752846L65.03999999999999,244.20255852510434L66.395,244.48924983700832L67.75,244.7561697747389L69.105,245.04262465673781L70.46000000000001,245.38513400148918L71.815,245.8142409508432L73.17,246.35224703127128L74.525,247.01216622948684L75.88000000000001,247.79796011168588L77.235,248.70589638612344L78.58999999999999,249.72670085019573L79.945,250.8480648807724L81.3,252.0570362405771L82.655,253.3418651071265L84.01,254.69300062169538L85.365,256.1031246860259L86.72,257.56633741213477L88.075,259.07681916922905L89.43,260.62742479018135L90.78500000000001,262.2086672629396L92.14,263.80841017957897L93.49499999999999,265.4123492672707L94.85,267.0051033333688L96.205,268.5715462142077L97.56,270.0979619354137L98.91499999999999,271.57271067003876L100.27,272.98630861835323L101.62500000000001,274.3310636972064L102.98,275.60057683394183L104.335,276.7894520818455L105.69,277.89344876369L107.04500000000002,278.91010244799986L108.4,279.8396208242073L109.755,280.68570925810235L111.11,281.4559532584616L112.46499999999999,282.16148892111966L113.82,282.81589050589804L115.17500000000001,283.43343198432217L116.53,284.0270681139709L117.88499999999999,284.60657837485905L119.24,285.17730010110404L120.59500000000001,285.73975158843024L121.95,286.2902433369335L123.30499999999999,286.82234440068993L124.66000000000001,287.3288667031312L126.01500000000001,287.8039045820415L127.36999999999998,288.24445457506283L128.725,288.6512486140815L130.07999999999998,289.0286362062769L131.435,289.38359291008646L132.79,289.7241451397997L134.145,290.0576254566423L135.5,290.38917765730446L136.855,290.7208260548166L138.21,291.0512514303275L139.565,291.37623633986925L140.92000000000002,291.6896069744101L142.275,291.9844350833314L143.63,292.25426892984103L144.985,292.4942118130232L146.34,292.70172865499944L147.69500000000002,292.8771125684349L149.05,293.02357811127825L150.405,293.14697491952023L151.76000000000002,293.25514860185035L153.11499999999998,293.3570227908004L154.47,293.4615310530712L155.825,293.57657131914465L157.17999999999998,293.7081661753737L158.535,293.8599758637536L159.89,294.03323108575756L161.245,294.2270525475852L162.6,294.43903687971215L163.95499999999998,294.6659434143633L165.31,294.9043253993391L166.665,295.1510021759271L168.02,295.4033383958573L169.375,295.6593520757572L170.73,295.9176962998327L172.085,296.1775504410216L173.44,296.43843382510914L174.79500000000002,296.6999415996899L176.15,296.961414849044L177.505,297.22159304903874L178.86,297.478338039139L180.215,297.7285384159067L181.57000000000002,297.9682814077576L182.925,298.193313210895L184.28,298.3997167798983L185.63500000000002,298.5846512234644L186.98999999999998,298.74695368867395L188.345,298.8874241024643L189.7,299.0086937039707L191.05499999999998,299.11469506362323L192.41,299.2098652779522L193.765,299.2982870370275L195.12,299.38298119859326L196.475,299.46550947524986L197.82999999999998,299.54594886293063L199.185,299.6231948416047L200.54,299.69547136586806L201.89500000000004,299.76089271910826L203.25000000000003,299.8179378257982L204.60499999999996,299.8657480148947L205.96,299.90422251980294L207.315,299.9339409633102L208.67,299.9559751554332L210.025,299.9716603960411L211.38,299.9823843222112L212.73500000000004,299.98942873606416L214.09000000000003,299.99387631756827L215.44500000000002,299.99657618708136L216.8,299.9981524981337L218.155,299.9990379179747L219.51,299.9995165260935L220.865,299.999765548081L222.22,299.9998902905877L223.575,299.99995046234204L224.92999999999998,299.9999784164253L226.28499999999997,299.9999909257512L227.64,299.99999631823556L228.995,299.99999855672536L230.35000000000002,299.9999994484981L231.705,299.9999997805947L233.06,299.9999998716843L234.415,299.9999998193765L235.76999999999998,299.9999995865055L237.125,299.999998985628L238.48,299.9999975643899L239.835,299.99999434733184L241.19000000000003,299.9999873399245L242.54500000000002,299.9999726430539L243.9,299.99994296568553L245.255,299.99988527958504L246.60999999999999,299.99977737143604L247.965,299.99958317214845L249.32000000000002,299.9992470463528L250.675,299.9986877535134L252.03000000000003,299.99779352880597L253.38500000000002,299.9964205461176L254.73999999999995,299.99439764084997L256.09499999999997,299.99154018651933L257.45,299.98767501795646L258.805,299.9826760281863L260.15999999999997,299.97650668468117L261.515,299.9692619146006L262.87,299.96119881547L264.22499999999997,299.9527448853528L265.58,299.94447503106113L266.935,299.9370546730985L268.29,299.9311546949797L269.645,299.92735247393233L271,299.9260389621918L271,300L269.645,300L268.29,300L266.935,300L265.58,300L264.22499999999997,300L262.87,300L261.515,300L260.15999999999997,300L258.805,300L257.45,300L256.09499999999997,300L254.73999999999995,300L253.38500000000002,300L252.03000000000003,300L250.675,300L249.32000000000002,300L247.965,300L246.60999999999999,300L245.255,300L243.9,300L242.54500000000002,300L241.19000000000003,300L239.835,300L238.48,300L237.125,300L235.76999999999998,300L234.415,300L233.06,300L231.705,300L230.35000000000002,300L228.995,300L227.64,300L226.28499999999997,300L224.92999999999998,300L223.575,300L222.22,300L220.865,300L219.51,300L218.155,300L216.8,300L215.44500000000002,300L214.09000000000003,300L212.73500000000004,300L211.38,300L210.025,300L208.67,300L207.315,300L205.96,300L204.60499999999996,300L203.25000000000003,300L201.89500000000004,300L200.54,300L199.185,300L197.82999999999998,300L196.475,300L195.12,300L193.765,300L192.41,300L191.05499999999998,300L189.7,300L188.345,300L186.98999999999998,300L185.63500000000002,300L184.28,300L182.925,300L181.57000000000002,300L180.215,300L178.86,300L177.505,300L176.15,300L174.79500000000002,300L173.44,300L172.085,300L170.73,300L169.375,300L168.02,300L166.665,300L165.31,300L163.95499999999998,300L162.6,300L161.245,300L159.89,300L158.535,300L157.17999999999998,300L155.825,300L154.47,300L153.11499999999998,300L151.76000000000002,300L150.405,300L149.05,300L147.69500000000002,300L146.34,300L144.985,300L143.63,300L142.275,300L140.92000000000002,300L139.565,300L138.21,300L136.855,300L135.5,300L134.145,300L132.79,300L131.435,300L130.07999999999998,300L128.725,300L127.36999999999998,300L126.01500000000001,300L124.66000000000001,300L123.30499999999999,300L121.95,300L120.59500000000001,300L119.24,300L117.88499999999999,300L116.53,300L115.17500000000001,300L113.82,300L112.46499999999999,300L111.11,300L109.755,300L108.4,300L107.04500000000002,300L105.69,300L104.335,300L102.98,300L101.62500000000001,300L100.27,300L98.91499999999999,300L97.56,300L96.205,300L94.85,300L93.49499999999999,300L92.14,300L90.78500000000001,300L89.43,300L88.075,300L86.72,300L85.365,300L84.01,300L82.655,300L81.3,300L79.945,300L78.58999999999999,300L77.235,300L75.88000000000001,300L74.525,300L73.17,300L71.815,300L70.46000000000001,300L69.105,300L67.75,300L66.395,300L65.03999999999999,300L63.68499999999999,300L62.330000000000005,300L60.975,300L59.62,300L58.265,300L56.91,300L55.555,300L54.2,300L52.845,300L51.49,300L50.135,300L48.78,300L47.425,300L46.07,300L44.715,300L43.36,300L42.005,300L40.65,300L39.294999999999995,300L37.940000000000005,300L36.585,300L35.230000000000004,300L33.875,300L32.519999999999996,300L31.165000000000003,300L29.81,300L28.455,300L27.1,300L25.745,300L24.39,300L23.035,300L21.68,300L20.325,300L18.970000000000002,300L17.615000000000002,300L16.259999999999998,300L14.905,300L13.55,300L12.195,300L10.84,300L9.485000000000001,300L8.129999999999999,300L6.775,300L5.42,300L4.0649999999999995,300L2.71,300L1.355,300L0,300Z" fill="#e45756" opacity="0.5"/></g></g><path class="foreground" aria-hidden="true" d="" display="none"/></g></g></g><path class="foreground" aria-hidden="true" d="" display="none"/></g></g><g class="mark-group role-legend" role="graphics-symbol" aria-roledescription="legend" aria-label="Symbol legend titled 'Number of Guests' for fill color with 3 values: single, couple, many"><g transform="translate(419,0)"><path class="background" aria-hidden="true" d="M0,0h96v53h-96Z" pointer-events="none"/><g><g class="mark-group role-legend-entry"><g transform="translate(0,16)"><path class="background" aria-hidden="true" d="M0,0h0v0h0Z" pointer-events="none"/><g><g class="mark-group role-scope" role="graphics-object" aria-roledescription="group mark container"><g transform="translate(0,0)"><path class="background" aria-hidden="true" d="M0,0h45.4677734375v11h-45.4677734375Z" pointer-events="none" opacity="1"/><g><g class="mark-symbol role-legend-symbol" pointer-events="none"><path transform="translate(6,6)" d="M5,0A5,5,0,1,1,-5,0A5,5,0,1,1,5,0" fill="#4c78a8" stroke-width="1.5" opacity="0.5"/></g><g class="mark-text role-legend-label" pointer-events="none"><text text-anchor="start" transform="translate(16,9)" font-family="sans-serif" font-size="10px" fill="#000" opacity="1">single</text></g></g><path class="foreground" aria-hidden="true" d="" pointer-events="none" display="none"/></g><g transform="translate(0,13)"><path class="background" aria-hidden="true" d="M0,0h45.4677734375v11h-45.4677734375Z" pointer-events="none" opacity="1"/><g><g class="mark-symbol role-legend-symbol" pointer-events="none"><path transform="translate(6,6)" d="M5,0A5,5,0,1,1,-5,0A5,5,0,1,1,5,0" fill="#f58518" stroke-width="1.5" opacity="0.5"/></g><g class="mark-text role-legend-label" pointer-events="none"><text text-anchor="start" transform="translate(16,9)" font-family="sans-serif" font-size="10px" fill="#000" opacity="1">couple</text></g></g><path class="foreground" aria-hidden="true" d="" pointer-events="none" display="none"/></g><g transform="translate(0,26)"><path class="background" aria-hidden="true" d="M0,0h45.4677734375v11h-45.4677734375Z" pointer-events="none" opacity="1"/><g><g class="mark-symbol role-legend-symbol" pointer-events="none"><path transform="translate(6,6)" d="M5,0A5,5,0,1,1,-5,0A5,5,0,1,1,5,0" fill="#e45756" stroke-width="1.5" opacity="0.5"/></g><g class="mark-text role-legend-label" pointer-events="none"><text text-anchor="start" transform="translate(16,9)" font-family="sans-serif" font-size="10px" fill="#000" opacity="1">many</text></g></g><path class="foreground" aria-hidden="true" d="" pointer-events="none" display="none"/></g></g></g><path class="foreground" aria-hidden="true" d="" pointer-events="none" display="none"/></g></g><g class="mark-text role-legend-title" pointer-events="none"><text text-anchor="start" transform="translate(0,9)" font-family="sans-serif" font-size="11px" font-weight="bold" fill="#000" opacity="1">Number of Guests</text></g></g><path class="foreground" aria-hidden="true" d="" pointer-events="none" display="none"/></g></g></g><path class="foreground" aria-hidden="true" d="" display="none"/></g></g></g></svg>