<svg xmlns="http://www.w3.org/2000/svg" xmlns:xlink="http://www.w3.org/1999/xlink" version="1.1" class="marks" width="519" height="759" viewBox="0 0 519 759"><rect width="519" height="759" fill="white"/><g fill="none" stroke-miterlimit="10" transform="translate(113,22)"><g class="mark-group role-frame root" role="graphics-object" aria-roledescription="group mark container"><g transform="translate(0,0)"><path class="background" aria-hidden="true" d="M0.5,0.5h400v700h-400Z" stroke="#ddd"/><g><g class="mark-group role-axis" role="graphics-symbol" aria-roledescription="axis" aria-label="X-axis for a linear scale with values from 0 to 5,500"><g transform="translate(0.5,700.5)"><path class="background" aria-hidden="true" d="M0,0h0v0h0Z" pointer-events="none"/><g><g class="mark-rule role-axis-grid" pointer-events="none"><line transform="translate(0,0)" x2="0" y2="-700" stroke="#ddd" stroke-width="1" opacity="1"/><line transform="translate(36,0)" x2="0" y2="-700" stroke="#ddd" stroke-width="1" opacity="1"/><line transform="translate(73,0)" x2="0" y2="-700" stroke="#ddd" stroke-width="1" opacity="1"/><line transform="translate(109,0)" x2="0" y2="-700" stroke="#ddd" stroke-width="1" opacity="1"/><line transform="translate(145,0)" x2="0" y2="-700" stroke="#ddd" stroke-width="1" opacity="1"/><line transform="translate(182,0)" x2="0" y2="-700" stroke="#ddd" stroke-width="1" opacity="1"/><line transform="translate(218,0)" x2="0" y2="-700" stroke="#ddd" stroke-width="1" opacity="1"/><line transform="translate(255,0)" x2="0" y2="-700" stroke="#ddd" stroke-width="1" opacity="1"/><line transform="translate(291,0)" x2="0" y2="-700" stroke="#ddd" stroke-width="1" opacity="1"/><line transform="translate(327,0)" x2="0" y2="-700" stroke="#ddd" stroke-width="1" opacity="1"/><line transform="translate(364,0)" x2="0" y2="-700" stroke="#ddd" stroke-width="1" opacity="1"/><line transform="translate(400,0)" x2="0" y2="-700" stroke="#ddd" stroke-width="1" opacity="1"/></g></g><path class="foreground" aria-hidden="true" d="" pointer-events="none" display="none"/></g></g><g class="mark-group role-axis" role="graphics-symbol" aria-roledescription="axis" aria-label="X-axis titled 'Number of Players' for a linear scale with values from 0 to 5,500"><g transform="translate(0.5,700.5)"><path class="background" aria-hidden="true" d="M0,0h0v0h0Z" pointer-events="none"/><g><g class="mark-rule role-axis-tick" pointer-events="none"><line transform="translate(0,0)" x2="0" y2="5" stroke="#888" stroke-width="1" opacity="1"/><line transform="translate(36,0)" x2="0" y2="5" stroke="#888" stroke-width="1" opacity="1"/><line transform="translate(73,0)" x2="0" y2="5" stroke="#888" stroke-width="1" opacity="1"/><line transform="translate(109,0)" x2="0" y2="5" stroke="#888" stroke-width="1" opacity="1"/><line transform="translate(145,0)" x2="0" y2="5" stroke="#888" stroke-width="1" opacity="1"/><line transform="translate(182,0)" x2="0" y2="5" stroke="#888" stroke-width="1" opacity="1"/><line transform="translate(218,0)" x2="0" y2="5" stroke="#888" stroke-width="1" opacity="1"/><line transform="translate(255,0)" x2="0" y2="5" stroke="#888" stroke-width="1" opacity="1"/><line transform="translate(291,0)" x2="0" y2="5" stroke="#888" stroke-width="1" opacity="1"/><line transform="translate(327,0)" x2="0" y2="5" stroke="#888" stroke-width="1" opacity="1"/><line transform="translate(364,0)" x2="0" y2="5" stroke="#888" stroke-width="1" opacity="1"/><line transform="translate(400,0)" x2="0" y2="5" stroke="#888" stroke-width="1" opacity="1"/></g><g class="mark-text role-axis-label" pointer-events="none"><text text-anchor="start" transform="translate(0,15)" font-family="sans-serif" font-size="10px" fill="#000" opacity="1">0</text><text text-anchor="middle" transform="translate(36.36363636363637,15)" font-family="sans-serif" font-size="10px" fill="#000" opacity="0">500</text><text text-anchor="middle" transform="translate(72.72727272727273,15)" font-family="sans-serif" font-size="10px" fill="#000" opacity="1">1,000</text><text text-anchor="middle" transform="translate(109.09090909090908,15)" font-family="sans-serif" font-size="10px" fill="#000" opacity="0">1,500</text><text text-anchor="middle" transform="translate(145.45454545454547,15)" font-family="sans-serif" font-size="10px" fill="#000" opacity="1">2,000</text><text text-anchor="middle" transform="translate(181.8181818181818,15)" font-family="sans-serif" font-size="10px" fill="#000" opacity="0">2,500</text><text text-anchor="middle" transform="translate(218.18181818181816,15)" font-family="sans-serif" font-size="10px" fill="#000" opacity="1">3,000</text><text text-anchor="middle" transform="translate(254.54545454545453,15)" font-family="sans-serif" font-size="10px" fill="#000" opacity="0">3,500</text><text text-anchor="middle" transform="translate(290.90909090909093,15)" font-family="sans-serif" font-size="10px" fill="#000" opacity="1">4,000</text><text text-anchor="middle" transform="translate(327.2727272727273,15)" font-family="sans-serif" font-size="10px" fill="#000" opacity="0">4,500</text><text text-anchor="middle" transform="translate(363.6363636363636,15)" font-family="sans-serif" font-size="10px" fill="#000" opacity="1">5,000</text><text text-anchor="end" transform="translate(400,15)" font-family="sans-serif" font-size="10px" fill="#000" opacity="0">5,500</text></g><g class="mark-rule role-axis-domain" pointer-events="none"><line transform="translate(0,0)" x2="400" y2="0" stroke="#888" stroke-width="1" opacity="1"/></g><g class="mark-text role-axis-title" pointer-events="none"><text text-anchor="middle" transform="translate(200,30)" font-family="sans-serif" font-size="11px" font-weight="bold" fill="#000" opacity="1">Number of Players</text></g></g><path class="foreground" aria-hidden="true" d="" pointer-events="none" display="none"/></g></g><g class="mark-group role-axis" role="graphics-symbol" aria-roledescription="axis" aria-label="Y-axis titled 'Nationality' for a discrete scale with 49 values: Brunei Darussalam, Croatia, Australia, South Wales, Northern Ireland, ending with Canada"><g transform="translate(0.5,0.5)"><path class="background" aria-hidden="true" d="M0,0h0v0h0Z" pointer-events="none"/><g><g class="mark-rule role-axis-tick" pointer-events="none"><line transform="translate(0,7)" x2="-5" y2="0" stroke="#888" stroke-width="1" opacity="1"/><line transform="translate(0,21)" x2="-5" y2="0" stroke="#888" stroke-width="1" opacity="1"/><line transform="translate(0,35)" x2="-5" y2="0" stroke="#888" stroke-width="1" opacity="1"/><line transform="translate(0,50)" x2="-5" y2="0" stroke="#888" stroke-width="1" opacity="1"/><line transform="translate(0,64)" x2="-5" y2="0" stroke="#888" stroke-width="1" opacity="1"/><line transform="translate(0,78)" x2="-5" y2="0" stroke="#888" stroke-width="1" opacity="1"/><line transform="translate(0,92)" x2="-5" y2="0" stroke="#888" stroke-width="1" opacity="1"/><line transform="translate(0,107)" x2="-5" y2="0" stroke="#888" stroke-width="1" opacity="1"/><line transform="translate(0,121)" x2="-5" y2="0" stroke="#888" stroke-width="1" opacity="1"/><line transform="translate(0,135)" x2="-5" y2="0" stroke="#888" stroke-width="1" opacity="1"/><line transform="translate(0,150)" x2="-5" y2="0" stroke="#888" stroke-width="1" opacity="1"/><line transform="translate(0,164)" x2="-5" y2="0" stroke="#888" stroke-width="1" opacity="1"/><line transform="translate(0,178)" x2="-5" y2="0" stroke="#888" stroke-width="1" opacity="1"/><line transform="translate(0,192)" x2="-5" y2="0" stroke="#888" stroke-width="1" opacity="1"/><line transform="translate(0,207)" x2="-5" y2="0" stroke="#888" stroke-width="1" opacity="1"/><line transform="translate(0,221)" x2="-5" y2="0" stroke="#888" stroke-width="1" opacity="1"/><line transform="translate(0,235)" x2="-5" y2="0" stroke="#888" stroke-width="1" opacity="1"/><line transform="translate(0,250)" x2="-5" y2="0" stroke="#888" stroke-width="1" opacity="1"/><line transform="translate(0,264)" x2="-5" y2="0" stroke="#888" stroke-width="1" opacity="1"/><line transform="translate(0,278)" x2="-5" y2="0" stroke="#888" stroke-width="1" opacity="1"/><line transform="translate(0,292)" x2="-5" y2="0" stroke="#888" stroke-width="1" opacity="1"/><line transform="translate(0,307)" x2="-5" y2="0" stroke="#888" stroke-width="1" opacity="1"/><line transform="translate(0,321)" x2="-5" y2="0" stroke="#888" stroke-width="1" opacity="1"/><line transform="translate(0,335)" x2="-5" y2="0" stroke="#888" stroke-width="1" opacity="1"/><line transform="translate(0,350)" x2="-5" y2="0" stroke="#888" stroke-width="1" opacity="1"/><line transform="translate(0,364)" x2="-5" y2="0" stroke="#888" stroke-width="1" opacity="1"/><line transform="translate(0,378)" x2="-5" y2="0" stroke="#888" stroke-width="1" opacity="1"/><line transform="translate(0,392)" x2="-5" y2="0" stroke="#888" stroke-width="1" opacity="1"/><line transform="translate(0,407)" x2="-5" y2="0" stroke="#888" stroke-width="1" opacity="1"/><line transform="translate(0,421)" x2="-5" y2="0" stroke="#888" stroke-width="1" opacity="1"/><line transform="translate(0,435)" x2="-5" y2="0" stroke="#888" stroke-width="1" opacity="1"/><line transform="translate(0,450)" x2="-5" y2="0" stroke="#888" stroke-width="1" opacity="1"/><line transform="translate(0,464)" x2="-5" y2="0" stroke="#888" stroke-width="1" opacity="1"/><line transform="translate(0,478)" x2="-5" y2="0" stroke="#888" stroke-width="1" opacity="1"/><line transform="translate(0,492)" x2="-5" y2="0" stroke="#888" stroke-width="1" opacity="1"/><line transform="translate(0,507)" x2="-5" y2="0" stroke="#888" stroke-width="1" opacity="1"/><line transform="translate(0,521)" x2="-5" y2="0" stroke="#888" stroke-width="1" opacity="1"/><line transform="translate(0,535)" x2="-5" y2="0" stroke="#888" stroke-width="1" opacity="1"/><line transform="translate(0,550)" x2="-5" y2="0" stroke="#888" stroke-width="1" opacity="1"/><line transform="translate(0,564)" x2="-5" y2="0" stroke="#888" stroke-width="1" opacity="1"/><line transform="translate(0,578)" x2="-5" y2="0" stroke="#888" stroke-width="1" opacity="1"/><line transform="translate(0,592)" x2="-5" y2="0" stroke="#888" stroke-width="1" opacity="1"/><line transform="translate(0,607)" x2="-5" y2="0" stroke="#888" stroke-width="1" opacity="1"/><line transform="translate(0,621)" x2="-5" y2="0" stroke="#888" stroke-width="1" opacity="1"/><line transform="translate(0,635)" x2="-5" y2="0" stroke="#888" stroke-width="1" opacity="1"/><line transform="translate(0,650)" x2="-5" y2="0" stroke="#888" stroke-width="1" opacity="1"/><line transform="translate(0,664)" x2="-5" y2="0" stroke="#888" stroke-width="1" opacity="1"/><line transform="translate(0,678)" x2="-5" y2="0" stroke="#888" stroke-width="1" opacity="1"/><line transform="translate(0,692)" x2="-5" y2="0" stroke="#888" stroke-width="1" opacity="1"/></g><g class="mark-text role-axis-label" pointer-events="none"><text text-anchor="end" transform="translate(-7,9.642857142857151)" font-family="sans-serif" font-size="10px" fill="#000" opacity="1">Brunei Darussalam</text><text text-anchor="end" transform="translate(-7,23.928571428571438)" font-family="sans-serif" font-size="10px" fill="#000" opacity="1">Croatia</text><text text-anchor="end" transform="translate(-7,38.21428571428572)" font-family="sans-serif" font-size="10px" fill="#000" opacity="1">Australia</text><text text-anchor="end" transform="translate(-7,52.500000000000014)" font-family="sans-serif" font-size="10px" fill="#000" opacity="1">South Wales</text><text text-anchor="end" transform="translate(-7,66.78571428571429)" font-family="sans-serif" font-size="10px" fill="#000" opacity="1">Northern Ireland</text><text text-anchor="end" transform="translate(-7,81.07142857142858)" font-family="sans-serif" font-size="10px" fill="#000" opacity="1">Lebanon</text><text text-anchor="end" transform="translate(-7,95.35714285714288)" font-family="sans-serif" font-size="10px" fill="#000" opacity="1">British West Indies</text><text text-anchor="end" transform="translate(-7,109.64285714285715)" font-family="sans-serif" font-size="10px" fill="#000" opacity="1">Netherlands</text><text text-anchor="end" transform="translate(-7,123.92857142857144)" font-family="sans-serif" font-size="10px" fill="#000" opacity="1">South Africa</text><text text-anchor="end" transform="translate(-7,138.21428571428572)" font-family="sans-serif" font-size="10px" fill="#000" opacity="1">Slovenia</text><text text-anchor="end" transform="translate(-7,152.5)" font-family="sans-serif" font-size="10px" fill="#000" opacity="1">Taiwan</text><text text-anchor="end" transform="translate(-7,166.78571428571428)" font-family="sans-serif" font-size="10px" fill="#000" opacity="1">Nigeria</text><text text-anchor="end" transform="translate(-7,181.07142857142858)" font-family="sans-serif" font-size="10px" fill="#000" opacity="1">Tanzania</text><text text-anchor="end" transform="translate(-7,195.35714285714286)" font-family="sans-serif" font-size="10px" fill="#000" opacity="1">Korea</text><text text-anchor="end" transform="translate(-7,209.64285714285714)" font-family="sans-serif" font-size="10px" fill="#000" opacity="1">South Korea</text><text text-anchor="end" transform="translate(-7,223.92857142857144)" font-family="sans-serif" font-size="10px" fill="#000" opacity="1">Paraguay</text><text text-anchor="end" transform="translate(-7,238.21428571428572)" font-family="sans-serif" font-size="10px" fill="#000" opacity="1">Indonesia</text><text text-anchor="end" transform="translate(-7,252.5)" font-family="sans-serif" font-size="10px" fill="#000" opacity="1">Haiti</text><text text-anchor="end" transform="translate(-7,266.78571428571433)" font-family="sans-serif" font-size="10px" fill="#000" opacity="1">Belgium</text><text text-anchor="end" transform="translate(-7,281.0714285714286)" font-family="sans-serif" font-size="10px" fill="#000" opacity="1">Venezuela</text><text text-anchor="end" transform="translate(-7,295.3571428571429)" font-family="sans-serif" font-size="10px" fill="#000" opacity="1">Wales</text><text text-anchor="end" transform="translate(-7,309.64285714285717)" font-family="sans-serif" font-size="10px" fill="#000" opacity="1">Japan</text><text text-anchor="end" transform="translate(-7,323.92857142857144)" font-family="sans-serif" font-size="10px" fill="#000" opacity="1">Brazil</text><text text-anchor="end" transform="translate(-7,338.2142857142858)" font-family="sans-serif" font-size="10px" fill="#000" opacity="1">Lithuania</text><text text-anchor="end" transform="translate(-7,352.50000000000006)" font-family="sans-serif" font-size="10px" fill="#000" opacity="1">Jamaica</text><text text-anchor="end" transform="translate(-7,366.78571428571433)" font-family="sans-serif" font-size="10px" fill="#000" opacity="1">Yugoslavia</text><text text-anchor="end" transform="translate(-7,381.0714285714286)" font-family="sans-serif" font-size="10px" fill="#000" opacity="1">Italy</text><text text-anchor="end" transform="translate(-7,395.3571428571429)" font-family="sans-serif" font-size="10px" fill="#000" opacity="1">France</text><text text-anchor="end" transform="translate(-7,409.64285714285717)" font-family="sans-serif" font-size="10px" fill="#000" opacity="1">Austria</text><text text-anchor="end" transform="translate(-7,423.9285714285715)" font-family="sans-serif" font-size="10px" fill="#000" opacity="1">Poland</text><text text-anchor="end" transform="translate(-7,438.2142857142858)" font-family="sans-serif" font-size="10px" fill="#000" opacity="1">Ireland</text><text text-anchor="end" transform="translate(-7,452.50000000000006)" font-family="sans-serif" font-size="10px" fill="#000" opacity="1">Belarus</text><text text-anchor="end" transform="translate(-7,466.78571428571433)" font-family="sans-serif" font-size="10px" fill="#000" opacity="1">Norway</text><text text-anchor="end" transform="translate(-7,481.0714285714286)" font-family="sans-serif" font-size="10px" fill="#000" opacity="1">Denmark</text><text text-anchor="end" transform="translate(-7,495.3571428571429)" font-family="sans-serif" font-size="10px" fill="#000" opacity="1">Kazakhstan</text><text text-anchor="end" transform="translate(-7,509.64285714285717)" font-family="sans-serif" font-size="10px" fill="#000" opacity="1">USSR</text><text text-anchor="end" transform="translate(-7,523.9285714285714)" font-family="sans-serif" font-size="10px" fill="#000" opacity="1">Switzerland</text><text text-anchor="end" transform="translate(-7,538.2142857142857)" font-family="sans-serif" font-size="10px" fill="#000" opacity="1">Latvia</text><text text-anchor="end" transform="translate(-7,552.5000000000001)" font-family="sans-serif" font-size="10px" fill="#000" opacity="1">Ukraine</text><text text-anchor="end" transform="translate(-7,566.7857142857143)" font-family="sans-serif" font-size="10px" fill="#000" opacity="1">Scotland</text><text text-anchor="end" transform="translate(-7,581.0714285714286)" font-family="sans-serif" font-size="10px" fill="#000" opacity="1">England</text><text text-anchor="end" transform="translate(-7,595.357142857143)" font-family="sans-serif" font-size="10px" fill="#000" opacity="1">Germany</text><text text-anchor="end" transform="translate(-7,609.6428571428572)" font-family="sans-serif" font-size="10px" fill="#000" opacity="1">Slovakia</text><text text-anchor="end" transform="translate(-7,623.9285714285714)" font-family="sans-serif" font-size="10px" fill="#000" opacity="1">Finland</text><text text-anchor="end" transform="translate(-7,638.2142857142857)" font-family="sans-serif" font-size="10px" fill="#000" opacity="1">Russia</text><text text-anchor="end" transform="translate(-7,652.5000000000001)" font-family="sans-serif" font-size="10px" fill="#000" opacity="1">Czech Republic</text><text text-anchor="end" transform="translate(-7,666.7857142857143)" font-family="sans-serif" font-size="10px" fill="#000" opacity="1">Sweden</text><text text-anchor="end" transform="translate(-7,681.0714285714286)" font-family="sans-serif" font-size="10px" fill="#000" opacity="1">USA</text><text text-anchor="end" transform="translate(-7,695.357142857143)" font-family="sans-serif" font-size="10px" fill="#000" opacity="1">Canada</text></g><g class="mark-rule role-axis-domain" pointer-events="none"><line transform="translate(0,0)" x2="0" y2="700" stroke="#888" stroke-width="1" opacity="1"/></g><g class="mark-text role-axis-title" pointer-events="none"><text text-anchor="middle" transform="translate(-96.0341796875,350) rotate(-90) translate(0,-2)" font-family="sans-serif" font-size="11px" font-weight="bold" fill="#000" opacity="1">Nationality</text></g></g><path class="foreground" aria-hidden="true" d="" pointer-events="none" display="none"/></g></g><g class="mark-rect role-mark marks" role="graphics-symbol" aria-roledescription="rect mark container"><path d="M0,615h11.927272727272726v12.857142857142858h-11.927272727272726Z" fill="#4c78a8"/><path d="M0,686.4285714285716h387.4909090909091v12.857142857142858h-387.4909090909091Z" fill="#4c78a8"/><path d="M0,672.1428571428571h72.2909090909091v12.857142857142858h-72.2909090909091Z" fill="#4c78a8"/><path d="M0,657.8571428571429h16.945454545454545v12.857142857142858h-16.945454545454545Z" fill="#4c78a8"/><path d="M0,0.7142857142857224h0.07272727272727272v12.857142857142858h-0.07272727272727272Z" fill="#4c78a8"/><path d="M0,515h1.2363636363636363v12.857142857142858h-1.2363636363636363Z" fill="#4c78a8"/><path d="M0,629.2857142857142h12.509090909090908v12.857142857142858h-12.509090909090908Z" fill="#4c78a8"/><path d="M0,429.28571428571433h0.5090909090909091v12.857142857142858h-0.5090909090909091Z" fill="#4c78a8"/><path d="M0,557.8571428571429h1.6727272727272726v12.857142857142858h-1.6727272727272726Z" fill="#4c78a8"/><path d="M0,443.5714285714286h0.5090909090909091v12.857142857142858h-0.5090909090909091Z" fill="#4c78a8"/><path d="M0,529.2857142857142h1.2363636363636363v12.857142857142858h-1.2363636363636363Z" fill="#4c78a8"/><path d="M0,643.5714285714287h14.981818181818182v12.857142857142858h-14.981818181818182Z" fill="#4c78a8"/><path d="M0,543.5714285714287h1.2363636363636363v12.857142857142858h-1.2363636363636363Z" fill="#4c78a8"/><path d="M0,600.7142857142858h4.654545454545454v12.857142857142858h-4.654545454545454Z" fill="#4c78a8"/><path d="M0,572.1428571428571h1.8181818181818181v12.857142857142858h-1.8181818181818181Z" fill="#4c78a8"/><path d="M0,257.8571428571429h0.14545454545454545v12.857142857142858h-0.14545454545454545Z" fill="#4c78a8"/><path d="M0,15.000000000000009h0.07272727272727272v12.857142857142858h-0.07272727272727272Z" fill="#4c78a8"/><path d="M0,472.14285714285717h0.5818181818181818v12.857142857142858h-0.5818181818181818Z" fill="#4c78a8"/><path d="M0,357.8571428571429h0.2909090909090909v12.857142857142858h-0.2909090909090909Z" fill="#4c78a8"/><path d="M0,500.7142857142857h0.8727272727272728v12.857142857142858h-0.8727272727272728Z" fill="#4c78a8"/><path d="M0,386.42857142857144h0.4363636363636364v12.857142857142858h-0.4363636363636364Z" fill="#4c78a8"/><path d="M0,400.7142857142857h0.4363636363636364v12.857142857142858h-0.4363636363636364Z" fill="#4c78a8"/><path d="M0,586.4285714285716h2.0363636363636366v12.857142857142858h-2.0363636363636366Z" fill="#4c78a8"/><path d="M0,272.14285714285717h0.14545454545454545v12.857142857142858h-0.14545454545454545Z" fill="#4c78a8"/><path d="M0,286.42857142857144h0.14545454545454545v12.857142857142858h-0.14545454545454545Z" fill="#4c78a8"/><path d="M0,415.00000000000006h0.4363636363636364v12.857142857142858h-0.4363636363636364Z" fill="#4c78a8"/><path d="M0,372.14285714285717h0.2909090909090909v12.857142857142858h-0.2909090909090909Z" fill="#4c78a8"/><path d="M0,29.285714285714295h0.07272727272727272v12.857142857142858h-0.07272727272727272Z" fill="#4c78a8"/><path d="M0,43.571428571428584h0.07272727272727272v12.857142857142858h-0.07272727272727272Z" fill="#4c78a8"/><path d="M0,300.7142857142857h0.14545454545454545v12.857142857142858h-0.14545454545454545Z" fill="#4c78a8"/><path d="M0,315h0.14545454545454545v12.857142857142858h-0.14545454545454545Z" fill="#4c78a8"/><path d="M0,57.85714285714287h0.07272727272727272v12.857142857142858h-0.07272727272727272Z" fill="#4c78a8"/><path d="M0,72.14285714285715h0.07272727272727272v12.857142857142858h-0.07272727272727272Z" fill="#4c78a8"/><path d="M0,86.42857142857144h0.07272727272727272v12.857142857142858h-0.07272727272727272Z" fill="#4c78a8"/><path d="M0,457.8571428571429h0.5090909090909091v12.857142857142858h-0.5090909090909091Z" fill="#4c78a8"/><path d="M0,329.28571428571433h0.14545454545454545v12.857142857142858h-0.14545454545454545Z" fill="#4c78a8"/><path d="M0,100.71428571428572h0.07272727272727272v12.857142857142858h-0.07272727272727272Z" fill="#4c78a8"/><path d="M0,486.42857142857144h0.6545454545454545v12.857142857142858h-0.6545454545454545Z" fill="#4c78a8"/><path d="M0,115.00000000000001h0.07272727272727272v12.857142857142858h-0.07272727272727272Z" fill="#4c78a8"/><path d="M0,129.2857142857143h0.07272727272727272v12.857142857142858h-0.07272727272727272Z" fill="#4c78a8"/><path d="M0,143.57142857142858h0.07272727272727272v12.857142857142858h-0.07272727272727272Z" fill="#4c78a8"/><path d="M0,343.5714285714286h0.14545454545454545v12.857142857142858h-0.14545454545454545Z" fill="#4c78a8"/><path d="M0,157.85714285714286h0.07272727272727272v12.857142857142858h-0.07272727272727272Z" fill="#4c78a8"/><path d="M0,172.14285714285717h0.07272727272727272v12.857142857142858h-0.07272727272727272Z" fill="#4c78a8"/><path d="M0,186.42857142857144h0.07272727272727272v12.857142857142858h-0.07272727272727272Z" fill="#4c78a8"/><path d="M0,200.71428571428572h0.07272727272727272v12.857142857142858h-0.07272727272727272Z" fill="#4c78a8"/><path d="M0,215.00000000000003h0.07272727272727272v12.857142857142858h-0.07272727272727272Z" fill="#4c78a8"/><path d="M0,229.2857142857143h0.07272727272727272v12.857142857142858h-0.07272727272727272Z" fill="#4c78a8"/><path d="M0,243.57142857142858h0.07272727272727272v12.857142857142858h-0.07272727272727272Z" fill="#4c78a8"/></g><g class="mark-group role-title"><g transform="translate(200,-17)"><path class="background" aria-hidden="true" d="M0,0h0v0h0Z" pointer-events="none"/><g><g class="mark-text role-title-text" role="graphics-symbol" aria-roledescription="title" aria-label="Title text 'NHL Players Nationality'" pointer-events="none"><text text-anchor="middle" transform="translate(0,10)" font-family="sans-serif" font-size="13px" font-weight="bold" fill="#000" opacity="1">NHL Players Nationality</text></g></g><path class="foreground" aria-hidden="true" d="" pointer-events="none" display="none"/></g></g></g><path class="foreground" aria-hidden="true" d="" display="none"/></g></g></g></svg>