<?xml version="1.0" encoding="utf-8"?>
<!-- Generator: Adobe Illustrator 24.0.0, SVG Export Plug-In . SVG Version: 6.00 Build 0)  -->
<svg version="1.1" id="Layer_1" xmlns="http://www.w3.org/2000/svg" xmlns:xlink="http://www.w3.org/1999/xlink" x="0px" y="0px"
	 viewBox="0 0 700 404.6" style="enable-background:new 0 0 700 404.6;" xml:space="preserve">
<style type="text/css">
	.st0{fill:#4853A4;}
	.st1{fill:#F78F2E;}
	.st2{fill:none;}
	.st3{fill:#42C7F4;}
	.st4{font-family:'Courier';}
	.st5{font-size:86px;}
	.st6{fill:#EBE72B;}
</style>
<path class="st0" d="M635.1,399.2H65.6c-35.8,0-64.9-29-64.9-64.9V73c0-35.8,29-64.9,64.9-64.9h569.6C671,8.1,700,37.2,700,73v261.4
	C700,370.2,671,399.2,635.1,399.2z"/>
<g>
	<g>
		<path class="st1" d="M250.9,29.8h26.5c19.5,0,32.2,12.8,32.2,32.6c0,19.5-12.4,34.3-32.8,34.3h-25.9V29.8z M265.4,85h10.8
			c12.8,0,18.5-9.5,18.5-22.6c0-10.9-5.3-21-18.4-21h-10.9V85z"/>
		<path class="st1" d="M362.3,83.7c0,4.8,0.4,11.8,0.7,13h-13.3c-0.4-1-0.7-3.6-0.7-4.9c-1.8,2.8-5.2,6.1-14.1,6.1
			c-12.1,0-17.2-8-17.2-15.7c0-11.4,9.2-16.7,23.9-16.7c2.5,0,5.5,0,7.2,0v-3.1c0-3.6-1.3-7.1-7.7-7.1c-5.9,0-7.2,2.5-7.8,6.1H320
			c0.8-8.9,6.3-16.1,21.5-16.1c13.4,0.1,20.8,5.3,20.8,17.3V83.7z M348.7,73.8c-1.2,0-3.8,0-5.7,0c-8.4,0-11.5,2.6-11.5,7.4
			c0,3.6,2.2,6.7,7.2,6.7c8.8,0,9.9-6.1,9.9-12.8V73.8z"/>
		<path class="st1" d="M370,46.4h7.7V32.8h13.9v13.6h9.8v10.5h-9.8v24.8c0,3.8,1.2,5.3,5.3,5.3c0.8,0,2.1,0,3.2-0.2v9.6
			c-2.8,0.9-6.5,1-9.3,1c-9.8,0-13-5.2-13-14V56.9H370V46.4z"/>
		<path class="st1" d="M451.7,83.7c0,4.8,0.4,11.8,0.7,13h-13.3c-0.4-1-0.7-3.6-0.7-4.9c-1.8,2.8-5.2,6.1-14.1,6.1
			c-12.1,0-17.2-8-17.2-15.7c0-11.4,9.2-16.7,23.9-16.7c2.5,0,5.5,0,7.2,0v-3.1c0-3.6-1.3-7.1-7.7-7.1c-5.9,0-7.2,2.5-7.8,6.1h-13.2
			c0.8-8.9,6.3-16.1,21.5-16.1c13.4,0.1,20.8,5.3,20.8,17.3V83.7z M438.1,73.8c-1.2,0-3.8,0-5.7,0c-8.4,0-11.5,2.6-11.5,7.4
			c0,3.6,2.2,6.7,7.2,6.7c8.8,0,9.9-6.1,9.9-12.8V73.8z"/>
	</g>
</g>
<rect x="10.6" y="304.8" class="st2" width="678.4" height="76.8"/>
<text transform="matrix(1 0 0 1 10.5552 359.7198)" class="st3 st4 st5">Visualization</text>
<rect x="69.6" y="187.3" class="st6" width="32.1" height="99"/>
<rect x="594.5" y="151.3" class="st6" width="32.1" height="135"/>
<rect x="642.2" y="203.3" class="st6" width="32.1" height="83"/>
<rect x="117.3" y="138.3" class="st6" width="32.1" height="148"/>
<rect x="165.1" y="187.3" class="st6" width="32.1" height="99"/>
<rect x="260.5" y="176.3" class="st6" width="32.1" height="110"/>
<rect x="21.9" y="117.3" class="st6" width="32.1" height="169"/>
<rect x="546.8" y="117.3" class="st6" width="32.1" height="169"/>
<rect x="451.3" y="242.3" class="st6" width="32.1" height="44"/>
<rect x="499" y="167.3" class="st6" width="32.1" height="119"/>
<rect x="403.6" y="151.3" class="st6" width="32.1" height="135"/>
<rect x="308.2" y="151.3" class="st6" width="32.1" height="135"/>
<rect x="355.9" y="117.3" class="st6" width="32.1" height="169"/>
<rect x="212.8" y="212.3" class="st6" width="32.1" height="72.9"/>
</svg>
