<svg id="Layer_1" data-name="Layer 1" xmlns="http://www.w3.org/2000/svg" viewBox="0 0 699.3 391.23"><defs><style>.cls-1{fill:#4853a4;}.cls-2{fill:#fff;}.cls-3{fill:#f78f2e;}.cls-4{font-size:95px;font-family:Courier;}.cls-4,.cls-7{fill:#42c7f4;}.cls-5{font-size:86.54px;}.cls-6{font-size:86px;}</style></defs><title>logo_joel</title><rect class="cls-1" width="699.3" height="391.11" rx="64.86"/><path class="cls-2" d="M59.93,96.12H25.3v28.52H63.23l-.78,4.85H20.06V61.59H61.67v4.85H25.3V91.27H59.93Z" transform="translate(-0.7 -0.11)"/><path class="cls-2" d="M77.39,81c8,11.93,11.54,17.27,13.48,20.17H91c2.32-3.29,7.17-10.28,14.16-20.17h5.53L93.78,104.46l17.17,25h-5.82c-7-10.38-12-17.75-14.36-21.15h-.09c-1.85,2.82-6.21,9.41-14.17,21.15H70.89l17.17-24.64L71.66,81Z" transform="translate(-0.7 -0.11)"/><path class="cls-2" d="M124.33,122.31v26.58h-4.85v-56c0-4,0-8.25-.09-11.93h4.75c.19,1.84.19,4.75.19,8.73,3-5.82,8.35-9.9,17.08-9.9,11.44,0,19.4,9.61,19.4,24.16,0,17.46-9.32,26.67-21.05,26.67C131.22,130.65,126.76,126.87,124.33,122.31Zm31.33-18.14c0-11.25-5.43-19.69-15-19.69-11.74,0-16.59,7.37-16.59,20.57,0,13,3.79,21,15.91,21C150,126.09,155.66,117.56,155.66,104.17Z" transform="translate(-0.7 -0.11)"/><path class="cls-2" d="M172.93,129.49V58h4.85v71.49Z" transform="translate(-0.7 -0.11)"/><path class="cls-2" d="M233,105.14c0,13.49-7.47,25.51-21.92,25.51-13.1,0-21.24-10.76-21.24-25.41,0-13.87,7.66-25.42,21.72-25.42C224.44,79.82,233,89.91,233,105.14Zm-38,.1c0,11.54,6.21,20.85,16.49,20.85,10.47,0,16.39-8.63,16.39-20.85,0-11.45-5.82-20.86-16.59-20.86C200.19,84.38,195,93.6,195,105.24Z" transform="translate(-0.7 -0.11)"/><path class="cls-2" d="M245,94.18c0-8.15-.1-11.64-.1-13.19h4.75c.1,1.55.2,4.65.2,10.86a18.38,18.38,0,0,1,16.88-12v5.24c-10.09.68-16.88,7.67-16.88,19.21v25.22H245Z" transform="translate(-0.7 -0.11)"/><path class="cls-2" d="M308.05,120.27a55.55,55.55,0,0,0,.68,9.22h-4.66c-.39-1.17-.68-3.3-.87-7.47-1.65,3.59-5.92,8.63-15.91,8.63-11.25,0-16.1-7.27-16.1-14.55,0-10.67,8.24-15.52,22.79-15.52h9.22V95.64c0-4.85-1.46-11.35-12.52-11.35-9.79,0-11.25,5.14-12.31,9.11h-4.85c.58-5.33,3.88-13.58,17.26-13.58,11.06,0,17.27,4.66,17.27,15.33Zm-4.76-15.52h-9.5c-10.77,0-17.46,2.82-17.46,11.16,0,6.11,4.36,10.28,11.15,10.28,13.87,0,15.81-9.21,15.81-19.69Z" transform="translate(-0.7 -0.11)"/><path class="cls-2" d="M316.29,81h9V65.86h4.85V81h11.55v4.56H330.16v31.52c0,5.44,1.17,8.54,5.82,8.54a18.54,18.54,0,0,0,5-.58v4.27a17.27,17.27,0,0,1-6,.87c-6.2,0-9.7-3.11-9.7-10.87V85.55h-9Z" transform="translate(-0.7 -0.11)"/><path class="cls-2" d="M390.3,105.14c0,13.49-7.47,25.51-21.92,25.51-13.09,0-21.24-10.76-21.24-25.41,0-13.87,7.66-25.42,21.73-25.42C381.77,79.82,390.3,89.91,390.3,105.14Zm-38,.1c0,11.54,6.21,20.85,16.49,20.85,10.48,0,16.39-8.63,16.39-20.85,0-11.45-5.82-20.86-16.58-20.86C357.52,84.38,352.28,93.6,352.28,105.24Z" transform="translate(-0.7 -0.11)"/><path class="cls-2" d="M402.33,94.18c0-8.15-.1-11.64-.1-13.19H407c.09,1.55.19,4.65.19,10.86a18.38,18.38,0,0,1,16.88-12v5.24c-10.09.68-16.88,7.67-16.88,19.21v25.22h-4.85Z" transform="translate(-0.7 -0.11)"/><path class="cls-2" d="M435.5,81c9.8,27.74,14.07,39.19,15.72,44.42h.09c1.94-5.91,5.82-17.16,15.23-44.42h5L453.35,132.3c-5.14,14.36-8.63,17.56-17.36,17.56a32.87,32.87,0,0,1-4.46-.29v-4.85a32.47,32.47,0,0,0,4.36.29c7,0,9.22-3.4,12.8-13.39L430.17,81Z" transform="translate(-0.7 -0.11)"/><path class="cls-3" d="M18.52,156.93H45c19.48,0,32.21,12.83,32.21,32.6,0,19.5-12.35,34.27-32.82,34.27H18.52ZM33,212.12H43.83c12.82,0,18.49-9.53,18.49-22.56,0-10.92-5.31-20.95-18.41-20.95H33Z" transform="translate(-0.7 -0.11)"/><path class="cls-3" d="M129,210.83a113.14,113.14,0,0,0,.68,13H116.36a20.17,20.17,0,0,1-.7-4.9c-1.82,2.82-5.24,6.07-14.12,6.07-12.1,0-17.21-8-17.21-15.75,0-11.43,9.18-16.71,23.9-16.71h7.17v-3.07c0-3.57-1.28-7.08-7.73-7.08-5.87,0-7.15,2.49-7.79,6.13H86.66c.75-8.92,6.27-16.14,21.53-16.06,13.45.09,20.77,5.34,20.77,17.29ZM115.41,201h-5.66c-8.38,0-11.48,2.56-11.48,7.4,0,3.63,2.23,6.69,7.22,6.69,8.84,0,9.92-6.14,9.92-12.77Z" transform="translate(-0.7 -0.11)"/><path class="cls-3" d="M135.69,173.6h7.74V160h13.9v13.6h9.84v10.45h-9.84v24.78c0,3.81,1.17,5.29,5.31,5.29a24.43,24.43,0,0,0,3.16-.16v9.57c-2.76.93-6.53.95-9.34.95-9.79,0-13-5.23-13-14V184.05h-7.74Z" transform="translate(-0.7 -0.11)"/><path class="cls-3" d="M216.84,210.83a113.14,113.14,0,0,0,.68,13H204.24a20.17,20.17,0,0,1-.7-4.9c-1.82,2.82-5.24,6.07-14.12,6.07-12.1,0-17.21-8-17.21-15.75,0-11.43,9.18-16.71,23.91-16.71h7.16v-3.07c0-3.57-1.28-7.08-7.73-7.08-5.87,0-7.15,2.49-7.79,6.13H174.54c.75-8.92,6.27-16.14,21.53-16.06,13.45.09,20.77,5.34,20.77,17.29ZM203.29,201h-5.66c-8.38,0-11.48,2.56-11.48,7.4,0,3.63,2.23,6.69,7.22,6.69,8.84,0,9.92-6.14,9.92-12.77Z" transform="translate(-0.7 -0.11)"/><text class="cls-4" transform="translate(9.86 352.36)">V<tspan class="cls-5" x="57.01" y="0"> </tspan><tspan class="cls-6" x="108.94" y="0">sual zat on</tspan></text><rect class="cls-7" x="75.28" y="258.91" width="32.1" height="93.52"/><rect class="cls-7" x="331.51" y="165.39" width="32.1" height="187.04"/><rect class="cls-7" x="539.48" y="258.91" width="32.1" height="93.52"/></svg>