<svg class="marks" width="343" height="242" viewBox="0 0 343 242" version="1.1" xmlns="http://www.w3.org/2000/svg" xmlns:xlink="http://www.w3.org/1999/xlink"><g transform="translate(131,5)"><g class="mark-group role-frame root"><g transform="translate(0,0)"><path class="background" d="M0,0h200v200h-200Z" style="fill: none;"></path><g><g class="mark-symbol role-mark marks"><path transform="translate(189.98051111111113,181.95164625)" d="M7.0710678118654755,0A7.0710678118654755,7.0710678118654755,0,1,1,-7.0710678118654755,0A7.0710678118654755,7.0710678118654755,0,1,1,7.0710678118654755,0" style="fill: #FFDB58; stroke-width: 2; opacity: 0.7;"></path><path transform="translate(110.94077777777778,195.248999375)" d="M7.0710678118654755,0A7.0710678118654755,7.0710678118654755,0,1,1,-7.0710678118654755,0A7.0710678118654755,7.0710678118654755,0,1,1,7.0710678118654755,0" style="fill: steelblue; stroke-width: 2; opacity: 0.7;"></path><path transform="translate(106.6329,24.993750000000006)" d="M7.0710678118654755,0A7.0710678118654755,7.0710678118654755,0,1,1,-7.0710678118654755,0A7.0710678118654755,7.0710678118654755,0,1,1,7.0710678118654755,0" style="fill: coral; stroke-width: 2; opacity: 0.7;"></path></g><g class="mark-group role-axis"><g transform="translate(0.5,200.5)"><path class="background" d="M0,0h0v0h0Z" style="pointer-events: none; fill: none;"></path><g><g class="mark-rule role-axis-tick" style="pointer-events: none;"><line transform="translate(0,0)" x2="0" y2="5" style="fill: none; stroke: #888; stroke-width: 1; opacity: 1;"></line><line transform="translate(56,0)" x2="0" y2="5" style="fill: none; stroke: #888; stroke-width: 1; opacity: 1;"></line><line transform="translate(111,0)" x2="0" y2="5" style="fill: none; stroke: #888; stroke-width: 1; opacity: 1;"></line><line transform="translate(167,0)" x2="0" y2="5" style="fill: none; stroke: #888; stroke-width: 1; opacity: 1;"></line></g><g class="mark-text role-axis-label" style="pointer-events: none;"><text text-anchor="start" transform="translate(0,15)" style="font-family: sans-serif; font-size: 10px; fill: #000; opacity: 1;">0</text><text text-anchor="middle" transform="translate(55.55555555555556,15)" style="font-family: sans-serif; font-size: 10px; fill: #000; opacity: 0;">5,000,000</text><text text-anchor="middle" transform="translate(111.11111111111111,15)" style="font-family: sans-serif; font-size: 10px; fill: #000; opacity: 0;">10,000,000</text><text text-anchor="middle" transform="translate(166.66666666666669,15)" style="font-family: sans-serif; font-size: 10px; fill: #000; opacity: 1;">15,000,000</text></g><g class="mark-rule role-axis-domain" style="pointer-events: none;"><line transform="translate(0,0)" x2="200" y2="0" style="fill: none; stroke: #888; stroke-width: 1; opacity: 1;"></line></g><g class="mark-text role-axis-title" style="pointer-events: none;"><text text-anchor="middle" transform="translate(100,30)" style="font-family: sans-serif; font-size: 11px; font-weight: bold; fill: #000; opacity: 1;">Area</text></g></g></g></g><g class="mark-group role-axis"><g transform="translate(0.5,0.5)"><path class="background" d="M0,0h0v0h0Z" style="pointer-events: none; fill: none;"></path><g><g class="mark-rule role-axis-tick" style="pointer-events: none;"><line transform="translate(0,200)" x2="-5" y2="0" style="fill: none; stroke: #888; stroke-width: 1; opacity: 1;"></line><line transform="translate(0,138)" x2="-5" y2="0" style="fill: none; stroke: #888; stroke-width: 1; opacity: 1;"></line><line transform="translate(0,75)" x2="-5" y2="0" style="fill: none; stroke: #888; stroke-width: 1; opacity: 1;"></line><line transform="translate(0,13)" x2="-5" y2="0" style="fill: none; stroke: #888; stroke-width: 1; opacity: 1;"></line></g><g class="mark-text role-axis-label" style="pointer-events: none;"><text text-anchor="end" transform="translate(-7,203)" style="font-family: sans-serif; font-size: 10px; fill: #000; opacity: 1;">0</text><text text-anchor="end" transform="translate(-7,140.5)" style="font-family: sans-serif; font-size: 10px; fill: #000; opacity: 1;">500,000,000</text><text text-anchor="end" transform="translate(-7,78)" style="font-family: sans-serif; font-size: 10px; fill: #000; opacity: 1;">1,000,000,000</text><text text-anchor="end" transform="translate(-7,15.5)" style="font-family: sans-serif; font-size: 10px; fill: #000; opacity: 1;">1,500,000,000</text></g><g class="mark-rule role-axis-domain" style="pointer-events: none;"><line transform="translate(0,200)" x2="0" y2="-200" style="fill: none; stroke: #888; stroke-width: 1; opacity: 1;"></line></g><g class="mark-text role-axis-title" style="pointer-events: none;"><text text-anchor="middle" transform="translate(-115,100) rotate(-90) translate(0,-2)" style="font-family: sans-serif; font-size: 11px; font-weight: bold; fill: #000; opacity: 1;">Population</text></g></g></g></g></g></g></g></g></svg>